<svg width="800px" height="800px" viewBox="0 0 128 128" data-name="Layer 4" id="Layer_4" xmlns="http://www.w3.org/2000/svg"><defs><style>.cls-1{fill:#231f20;}</style></defs><path class="cls-1" d="M80.35,26C92.88,26,102,35.12,102,47.65V61.34C102,73.87,92.88,83,80.35,83H75.41l-2.3,1.32L54.82,94.73V83.61l-9.2-.74C34.08,82,26,73.1,26,61.34V47.65C26,35.12,35.12,26,47.65,26h32.7m0-10H47.65C29.58,16,16,29.58,16,47.65V61.34c0,17.11,12.15,30.17,28.79,31.5V112L78.07,93h2.28C98.42,93,112,79.41,112,61.34V47.65C112,29.58,98.42,16,80.35,16Z"/></svg>