<?xml version="1.0" encoding="UTF-8"?>
<!DOCTYPE svg PUBLIC "-//W3C//DTD SVG 1.1//EN" "http://www.w3.org/Graphics/SVG/1.1/DTD/svg11.dtd">
<svg xmlns="http://www.w3.org/2000/svg" version="1.1" width="2048px" height="2048px" style="shape-rendering:geometricPrecision; text-rendering:geometricPrecision; image-rendering:optimizeQuality; fill-rule:evenodd; clip-rule:evenodd" xmlns:xlink="http://www.w3.org/1999/xlink">
<g><path style="opacity:0.998" fill="#0d0a09" d="M 729.5,291.5 C 734.586,291.963 739.586,291.963 744.5,291.5C 746.926,291.404 749.093,292.07 751,293.5C 753.79,292.302 756.457,291.635 759,291.5C 761.368,292.369 762.868,294.035 763.5,296.5C 770.302,296.058 774.968,298.891 777.5,305C 779.843,304.293 782.176,304.626 784.5,306C 786.037,307.11 786.703,308.61 786.5,310.5C 789.32,310.248 791.986,310.748 794.5,312C 796.369,314.613 798.703,316.779 801.5,318.5C 802.262,319.628 802.929,320.795 803.5,322C 802.424,323.726 802.257,325.559 803,327.5C 806.633,328.634 809.133,330.967 810.5,334.5C 810.291,335.086 809.957,335.586 809.5,336C 812.735,337.36 815.235,339.527 817,342.5C 817.536,344.567 817.036,346.401 815.5,348C 823.107,352.065 824.774,357.899 820.5,365.5C 824.712,368.58 826.045,372.58 824.5,377.5C 826.66,380.293 827.994,383.46 828.5,387C 827.044,390.595 825.71,394.262 824.5,398C 828.921,401.075 829.921,404.909 827.5,409.5C 828.314,414.916 828.647,420.416 828.5,426C 828.385,427.895 827.718,429.562 826.5,431C 828.172,434.143 827.506,436.643 824.5,438.5C 823.277,445.449 822.444,452.449 822,459.5C 819.123,464.867 816.623,470.367 814.5,476C 815.167,478 815.833,480 816.5,482C 814.178,485.165 812.511,488.665 811.5,492.5C 808.435,493.899 807.435,496.066 808.5,499C 806.798,502.686 805.131,506.353 803.5,510C 801.353,512.22 798.686,513.387 795.5,513.5C 795.804,516.522 796.304,519.522 797,522.5C 799.534,518.632 802.701,515.466 806.5,513C 807.833,512.667 809.167,512.333 810.5,512C 812.017,509.796 813.35,507.462 814.5,505C 817.023,504.482 819.023,503.148 820.5,501C 822.134,500.506 823.801,500.34 825.5,500.5C 825.253,497.495 826.253,494.995 828.5,493C 832.654,491.139 836.987,489.806 841.5,489C 845.109,486.046 848.442,482.88 851.5,479.5C 853.135,478.67 854.802,478.503 856.5,479C 859.896,475.912 863.562,473.245 867.5,471C 870.167,470.667 872.833,470.333 875.5,470C 878.447,467.745 881.613,466.912 885,467.5C 887.204,464.762 889.871,464.095 893,465.5C 896.71,462.581 900.876,460.747 905.5,460C 907.527,459.502 909.527,459.669 911.5,460.5C 918.372,458.242 925.372,456.242 932.5,454.5C 937.646,456.064 942.646,455.731 947.5,453.5C 950.108,453.923 952.442,454.923 954.5,456.5C 958.419,454.579 961.253,455.579 963,459.5C 965.278,459.218 967.612,458.218 970,456.5C 974.497,457.121 978.997,458.621 983.5,461C 985.907,467.396 990.574,470.73 997.5,471C 999.5,473.667 1001.5,476.333 1003.5,479C 1009.55,481.05 1013.55,485.05 1015.5,491C 1015.41,492.107 1015.08,493.107 1014.5,494C 1017.57,497.397 1020.23,501.064 1022.5,505C 1022.17,506 1021.83,507 1021.5,508C 1023.09,512.33 1023.92,516.83 1024,521.5C 1026.54,523.962 1028.04,526.962 1028.5,530.5C 1026.46,532.448 1026.46,534.615 1028.5,537C 1027.26,538.73 1026.26,540.563 1025.5,542.5C 1026.86,546.766 1027.36,551.099 1027,555.5C 1024.91,558.681 1022.57,561.681 1020,564.5C 1019.24,568.225 1019.41,571.892 1020.5,575.5C 1020.05,578.276 1019.05,580.776 1017.5,583C 1018.58,584.726 1018.74,586.559 1018,588.5C 1016.06,592.634 1014.72,596.968 1014,601.5C 1012.79,602.071 1011.63,602.738 1010.5,603.5C 1008.96,607.543 1006.46,610.876 1003,613.5C 1002.54,617.752 1000.54,621.085 997,623.5C 996.125,626.883 995.125,630.216 994,633.5C 988.306,638.639 982.972,643.972 978,649.5C 976.667,652.833 975.333,656.167 974,659.5C 972.601,660.227 971.101,660.727 969.5,661C 968.9,664.436 966.9,666.269 963.5,666.5C 963.587,669.739 962.92,672.739 961.5,675.5C 958.45,674.923 956.45,676.09 955.5,679C 954.552,679.483 953.552,679.649 952.5,679.5C 952.244,681.937 951.577,684.271 950.5,686.5C 947.685,688.569 945.352,691.069 943.5,694C 946.003,694.874 948.003,694.207 949.5,692C 952.682,691.593 955.849,691.093 959,690.5C 962.095,691.187 965.095,691.521 968,691.5C 971.123,690.404 974.289,689.404 977.5,688.5C 980.039,689.202 982.206,690.535 984,692.5C 989.895,687.711 994.395,688.711 997.5,695.5C 1001.04,691.554 1004.54,691.554 1008,695.5C 1009.47,693.993 1011.31,693.326 1013.5,693.5C 1016.57,693.87 1019.57,694.537 1022.5,695.5C 1028.7,693.852 1034.7,694.186 1040.5,696.5C 1043.56,695.314 1046.73,694.647 1050,694.5C 1052.35,694.305 1054.35,694.972 1056,696.5C 1061.01,696.285 1065.68,696.285 1070,696.5C 1071.25,697.211 1072.42,698.044 1073.5,699C 1077.53,699.481 1081.53,700.147 1085.5,701C 1086.83,701.667 1087.83,702.667 1088.5,704C 1091.83,704.333 1095.17,704.667 1098.5,705C 1101.08,710.387 1105.41,713.387 1111.5,714C 1113.49,714.574 1114.99,715.741 1116,717.5C 1117.39,716.446 1118.89,716.28 1120.5,717C 1123.83,718.667 1127.17,720.333 1130.5,722C 1131.36,725.726 1133.03,729.059 1135.5,732C 1139.25,732.26 1142.92,732.927 1146.5,734C 1148.3,737.3 1150.3,740.467 1152.5,743.5C 1157.27,745.363 1161.77,747.696 1166,750.5C 1168.35,752.706 1168.85,755.206 1167.5,758C 1172.83,759.241 1177,762.074 1180,766.5C 1180.49,767.793 1180.66,769.127 1180.5,770.5C 1181.68,770.281 1182.68,770.614 1183.5,771.5C 1185.23,774.287 1186.39,777.287 1187,780.5C 1191.88,785.046 1197.38,788.879 1203.5,792C 1206.02,794.22 1208.19,796.72 1210,799.5C 1210.72,801.112 1210.55,802.612 1209.5,804C 1213.33,806.488 1215.49,809.988 1216,814.5C 1220.08,816.972 1222.41,820.639 1223,825.5C 1226.8,830.051 1228.97,835.384 1229.5,841.5C 1234.04,843.206 1237.04,846.372 1238.5,851C 1238.36,851.772 1238.02,852.439 1237.5,853C 1241.22,856.591 1243.06,860.757 1243,865.5C 1248.18,873.417 1252.35,881.75 1255.5,890.5C 1255.38,893.044 1255.38,895.544 1255.5,898C 1256.67,899.167 1257.83,900.333 1259,901.5C 1260.18,906.454 1261.18,911.454 1262,916.5C 1261.89,913.443 1263.06,911.109 1265.5,909.5C 1269.3,902.219 1271.8,894.553 1273,886.5C 1274.44,884.845 1276.28,884.178 1278.5,884.5C 1277.96,879.551 1278.79,874.884 1281,870.5C 1282.7,869.594 1284.53,869.261 1286.5,869.5C 1288.72,861.103 1291.22,852.77 1294,844.5C 1295.83,841.163 1298.66,839.163 1302.5,838.5C 1304.77,829.956 1309.11,822.623 1315.5,816.5C 1317.78,809.655 1321.62,803.988 1327,799.5C 1332.25,792.247 1338.25,785.58 1345,779.5C 1346.96,777.089 1348.79,774.589 1350.5,772C 1351.79,771.51 1353.13,771.343 1354.5,771.5C 1354.35,770.448 1354.52,769.448 1355,768.5C 1358.07,766.553 1360.57,764.053 1362.5,761C 1363.83,760.667 1365.17,760.333 1366.5,760C 1367.26,758.488 1368.26,757.154 1369.5,756C 1373.24,756.144 1376.91,755.144 1380.5,753C 1383.39,749.778 1385.89,746.278 1388,742.5C 1390.29,739.938 1393.12,738.271 1396.5,737.5C 1397.39,736.675 1397.72,735.675 1397.5,734.5C 1399.2,734.66 1400.87,734.494 1402.5,734C 1407.94,727.623 1414.94,724.289 1423.5,724C 1433.98,718.591 1444.31,713.591 1454.5,709C 1459.58,708.827 1464.58,708.161 1469.5,707C 1480.92,702.909 1491.92,698.076 1502.5,692.5C 1503.09,692.709 1503.59,693.043 1504,693.5C 1506,692.833 1508,692.167 1510,691.5C 1510.33,691.833 1510.67,692.167 1511,692.5C 1519.76,690.849 1528.59,689.516 1537.5,688.5C 1539.31,689.859 1540.81,689.525 1542,687.5C 1563.26,687.857 1583.6,687.857 1603,687.5C 1606.79,688.23 1610.63,688.73 1614.5,689C 1617.2,691.792 1620.54,693.126 1624.5,693C 1627.02,694.763 1629.35,696.763 1631.5,699C 1634.17,699.333 1636.83,699.667 1639.5,700C 1640.36,700.689 1641.02,701.522 1641.5,702.5C 1645.08,702.949 1648.25,704.282 1651,706.5C 1654.54,704.862 1657.71,705.362 1660.5,708C 1666.99,709.478 1673.32,711.478 1679.5,714C 1682.63,716.082 1685.63,718.248 1688.5,720.5C 1691.85,721.287 1695.18,722.121 1698.5,723C 1700.11,725.515 1702.44,726.849 1705.5,727C 1707.21,728.916 1708.54,731.082 1709.5,733.5C 1712.84,735.336 1716.34,736.669 1720,737.5C 1720.33,737.167 1720.67,736.833 1721,736.5C 1724.1,739.55 1727.77,741.55 1732,742.5C 1732.33,742.167 1732.67,741.833 1733,741.5C 1735.31,742.975 1737.48,744.642 1739.5,746.5C 1740.75,748.042 1740.75,749.542 1739.5,751C 1748.15,753.638 1755.15,758.638 1760.5,766C 1768.43,768.114 1771.77,773.28 1770.5,781.5C 1774.47,782.318 1778.14,783.984 1781.5,786.5C 1789.89,794.964 1797.05,804.297 1803,814.5C 1801.94,818.631 1803.27,821.964 1807,824.5C 1808.15,827.44 1809.15,830.44 1810,833.5C 1813.46,835.717 1816.46,838.383 1819,841.5C 1821.16,846.334 1823.49,851.001 1826,855.5C 1825.3,862.887 1827.63,869.221 1833,874.5C 1835.32,877.058 1835.65,879.725 1834,882.5C 1833.33,884.833 1833.33,887.167 1834,889.5C 1839.28,894.015 1841.11,899.682 1839.5,906.5C 1844.68,909.861 1846.01,914.194 1843.5,919.5C 1844.93,920.23 1846.1,921.23 1847,922.5C 1848.25,928.849 1848.58,935.182 1848,941.5C 1848.57,945.973 1850.24,949.973 1853,953.5C 1854.14,957.389 1853.31,960.722 1850.5,963.5C 1855.84,970.914 1856.84,978.914 1853.5,987.5C 1854,990.998 1855,994.332 1856.5,997.5C 1855.03,999.945 1855.53,1001.94 1858,1003.5C 1858.88,1007.9 1858.38,1012.06 1856.5,1016C 1857.04,1019.48 1858.04,1022.81 1859.5,1026C 1857.49,1028.17 1856.16,1030.67 1855.5,1033.5C 1856.57,1036.27 1857.57,1039.11 1858.5,1042C 1857.94,1042.72 1857.61,1043.56 1857.5,1044.5C 1858.61,1046.88 1859.27,1049.38 1859.5,1052C 1858.48,1054.87 1858.48,1057.7 1859.5,1060.5C 1859.14,1063.69 1857.48,1065.85 1854.5,1067C 1859.6,1073.57 1859.6,1080.24 1854.5,1087C 1856.99,1092.03 1857.15,1097.2 1855,1102.5C 1852.7,1103.68 1852.37,1105.01 1854,1106.5C 1854.67,1109.83 1854.67,1113.17 1854,1116.5C 1851.97,1119.22 1850.47,1122.22 1849.5,1125.5C 1851.59,1129.97 1851.09,1134.3 1848,1138.5C 1847.74,1144.55 1847.07,1150.55 1846,1156.5C 1845.75,1158.66 1844.75,1160.33 1843,1161.5C 1842.37,1163.71 1842.54,1165.88 1843.5,1168C 1843.16,1172.51 1840.82,1175.34 1836.5,1176.5C 1838.41,1183.14 1837.25,1189.14 1833,1194.5C 1832,1201.17 1830,1207.51 1827,1213.5C 1825.34,1215.92 1823.17,1217.75 1820.5,1219C 1821.02,1219.56 1821.36,1220.23 1821.5,1221C 1820.49,1225.91 1818.66,1230.41 1816,1234.5C 1814.74,1236.61 1812.9,1237.61 1810.5,1237.5C 1811.43,1242.81 1809.43,1246.31 1804.5,1248C 1805.4,1251.12 1804.4,1253.62 1801.5,1255.5C 1799.97,1261.52 1796.47,1265.86 1791,1268.5C 1786.12,1276.78 1779.79,1283.78 1772,1289.5C 1770.79,1295.04 1767.29,1298.21 1761.5,1299C 1760.67,1300.82 1759.84,1302.65 1759,1304.5C 1754.35,1306.99 1750.52,1310.32 1747.5,1314.5C 1743.51,1317.16 1739.51,1319.83 1735.5,1322.5C 1734.23,1321.57 1732.9,1321.41 1731.5,1322C 1729.95,1327.73 1726.29,1330.56 1720.5,1330.5C 1719.42,1335.78 1716.09,1337.95 1710.5,1337C 1707.04,1341 1702.87,1342.16 1698,1340.5C 1696.96,1341.62 1696.29,1342.96 1696,1344.5C 1691.66,1348.15 1687,1351.48 1682,1354.5C 1679.6,1353.5 1677.26,1353.84 1675,1355.5C 1672.01,1359.49 1668.18,1362.33 1663.5,1364C 1657.69,1365.89 1651.69,1367.22 1645.5,1368C 1641.95,1370.48 1638.28,1372.81 1634.5,1375C 1628.95,1376.36 1623.45,1377.86 1618,1379.5C 1616.02,1379.01 1614.35,1378.01 1613,1376.5C 1609.75,1382.13 1605.08,1384.13 1599,1382.5C 1596.46,1385.64 1593.29,1386.31 1589.5,1384.5C 1587.18,1386.29 1584.68,1387.96 1582,1389.5C 1577.6,1388.84 1573.26,1389.51 1569,1391.5C 1566.92,1390.98 1564.92,1390.32 1563,1389.5C 1561.68,1391.49 1559.85,1392.65 1557.5,1393C 1554.32,1393.41 1551.15,1393.91 1548,1394.5C 1542.33,1392.54 1536.66,1392.87 1531,1395.5C 1529.16,1394.24 1527.16,1393.24 1525,1392.5C 1522.29,1393.74 1519.62,1393.74 1517,1392.5C 1512.9,1396.37 1509.4,1396.04 1506.5,1391.5C 1501.26,1393.33 1496.09,1394.33 1491,1394.5C 1489.33,1393.32 1487.83,1391.99 1486.5,1390.5C 1482.49,1392.64 1478.66,1392.3 1475,1389.5C 1472.76,1391.28 1470.26,1391.78 1467.5,1391C 1464,1388.76 1460.5,1386.6 1457,1384.5C 1453.97,1386.51 1450.63,1387.85 1447,1388.5C 1444.91,1388.08 1443.41,1386.91 1442.5,1385C 1439.45,1384.32 1436.45,1383.49 1433.5,1382.5C 1432.21,1380.53 1430.55,1380.53 1428.5,1382.5C 1424.59,1380.54 1421.09,1378.21 1418,1375.5C 1413.93,1376.35 1409.93,1377.35 1406,1378.5C 1401.33,1375 1396.33,1372 1391,1369.5C 1385.69,1371.79 1381.86,1370.29 1379.5,1365C 1376.59,1363.71 1373.59,1362.71 1370.5,1362C 1368.96,1360.42 1367.79,1358.59 1367,1356.5C 1363.6,1355.1 1360.76,1352.93 1358.5,1350C 1351.69,1349.77 1347.02,1346.43 1344.5,1340C 1338.73,1338.31 1333.06,1336.31 1327.5,1334C 1326.67,1333.17 1325.83,1332.33 1325,1331.5C 1324.79,1328.77 1323.96,1326.27 1322.5,1324C 1314.74,1323.48 1309.74,1319.65 1307.5,1312.5C 1304.32,1307.48 1300.65,1302.81 1296.5,1298.5C 1291.75,1298.54 1287.41,1296.87 1283.5,1293.5C 1282.72,1292.27 1282.22,1290.94 1282,1289.5C 1277.46,1286.63 1274.46,1282.63 1273,1277.5C 1268.39,1276.23 1266.05,1273.23 1266,1268.5C 1261.66,1265.85 1260.16,1262.18 1261.5,1257.5C 1255.07,1254.99 1252.73,1250.49 1254.5,1244C 1253.18,1242.34 1251.52,1241.17 1249.5,1240.5C 1248.42,1239.33 1247.58,1238 1247,1236.5C 1245.8,1229.35 1244.63,1222.19 1243.5,1215C 1244.83,1211.12 1243.66,1207.95 1240,1205.5C 1238,1202.43 1238.16,1199.59 1240.5,1197C 1239.08,1194.9 1237.74,1192.73 1236.5,1190.5C 1235.35,1191.14 1234.35,1191.98 1233.5,1193C 1235.99,1199.52 1234.15,1204.36 1228,1207.5C 1225.53,1215.91 1222.86,1224.24 1220,1232.5C 1218.42,1234.04 1216.59,1235.21 1214.5,1236C 1216.12,1241.32 1215.12,1246.16 1211.5,1250.5C 1204.68,1253.08 1201.18,1258.08 1201,1265.5C 1198.12,1267.38 1195.95,1269.88 1194.5,1273C 1191.72,1274.34 1189.22,1276.17 1187,1278.5C 1186.65,1281.58 1185.99,1284.58 1185,1287.5C 1184.09,1289.44 1182.59,1290.44 1180.5,1290.5C 1180.63,1292.65 1180.13,1294.65 1179,1296.5C 1173.52,1300.82 1168.35,1305.49 1163.5,1310.5C 1158.77,1312.73 1155.1,1316.23 1152.5,1321C 1150.23,1321.76 1148.06,1321.59 1146,1320.5C 1143.74,1323.97 1141.58,1327.47 1139.5,1331C 1138.01,1332.37 1136.51,1332.53 1135,1331.5C 1134,1333.17 1133,1334.83 1132,1336.5C 1129.67,1337.41 1127.83,1338.91 1126.5,1341C 1124.61,1341.97 1122.61,1342.64 1120.5,1343C 1117.24,1348.3 1112.57,1351.63 1106.5,1353C 1105.23,1356.2 1103.23,1358.87 1100.5,1361C 1096.45,1359.51 1093.11,1360.51 1090.5,1364C 1086.89,1364.94 1083.22,1365.61 1079.5,1366C 1078.55,1367.96 1077.21,1369.62 1075.5,1371C 1072.34,1372.75 1069.34,1374.75 1066.5,1377C 1064.62,1377.58 1062.79,1377.41 1061,1376.5C 1058.75,1378.41 1056.25,1379.91 1053.5,1381C 1046.35,1379.74 1041.02,1382.08 1037.5,1388C 1034.81,1389.2 1032.15,1389.36 1029.5,1388.5C 1022.26,1391.14 1015.26,1394.97 1008.5,1400C 1005.23,1400.45 1002.07,1401.29 999,1402.5C 996.447,1401.78 994.28,1400.44 992.5,1398.5C 990.639,1399.53 989.305,1401.03 988.5,1403C 984.79,1403.37 981.456,1404.71 978.5,1407C 975.62,1407.68 972.787,1407.52 970,1406.5C 966.212,1411.34 961.712,1412.34 956.5,1409.5C 951.008,1412.34 945.175,1414.34 939,1415.5C 936.655,1413.81 934.822,1414.31 933.5,1417C 929.581,1417.46 925.748,1418.29 922,1419.5C 918.498,1418.74 914.998,1419.07 911.5,1420.5C 910.311,1420.24 909.144,1419.91 908,1419.5C 904.037,1420.35 900.037,1421.02 896,1421.5C 893.966,1421.65 892.299,1420.98 891,1419.5C 887.915,1421.14 884.749,1422.47 881.5,1423.5C 879.754,1423.03 878.087,1422.36 876.5,1421.5C 870.301,1423.5 863.967,1424.34 857.5,1424C 854.365,1418.81 850.365,1418.14 845.5,1422C 840.201,1423.15 834.868,1423.48 829.5,1423C 828.299,1422.1 827.465,1420.93 827,1419.5C 825.333,1420.5 823.667,1421.5 822,1422.5C 817.578,1420.3 812.911,1418.3 808,1416.5C 800.671,1418.28 794.837,1416.11 790.5,1410C 787.833,1409.67 785.167,1409.33 782.5,1409C 781.667,1408.17 780.833,1407.33 780,1406.5C 779.803,1408.86 778.636,1410.53 776.5,1411.5C 775.231,1413.69 775.231,1415.86 776.5,1418C 775.794,1420.58 774.461,1422.75 772.5,1424.5C 774.181,1428.24 773.681,1431.57 771,1434.5C 770.369,1437.39 769.536,1440.23 768.5,1443C 772.816,1449.23 772.483,1455.06 767.5,1460.5C 768.58,1463.33 769.58,1466.16 770.5,1469C 769.645,1476.15 768.312,1483.15 766.5,1490C 768.807,1497.1 768.807,1504.27 766.5,1511.5C 770.747,1520.51 770.414,1529.35 765.5,1538C 769.687,1548.09 770.353,1558.43 767.5,1569C 769.445,1574.77 770.112,1580.6 769.5,1586.5C 767.983,1593.92 766.983,1601.42 766.5,1609C 767.294,1611.97 767.961,1614.97 768.5,1618C 767.758,1622.87 767.425,1627.71 767.5,1632.5C 769.742,1635.48 769.909,1638.48 768,1641.5C 767.667,1652.5 767.333,1663.5 767,1674.5C 765.869,1676.72 765.036,1679.06 764.5,1681.5C 766.532,1685.38 766.865,1689.38 765.5,1693.5C 768.287,1696.82 767.954,1699.65 764.5,1702C 765.308,1707.1 765.308,1712.1 764.5,1717C 763.231,1720.37 761.564,1723.54 759.5,1726.5C 759.901,1729.57 760.901,1732.74 762.5,1736C 759.153,1745.2 755.653,1754.37 752,1763.5C 750.103,1765.02 747.936,1765.68 745.5,1765.5C 744.14,1768.62 743.307,1771.95 743,1775.5C 742.208,1777.59 741.041,1779.42 739.5,1781C 733.567,1780.89 727.733,1780.06 722,1778.5C 717.269,1782.12 712.435,1782.29 707.5,1779C 706.929,1777.79 706.262,1776.63 705.5,1775.5C 698.838,1772.7 697.171,1768.2 700.5,1762C 699.402,1759.54 698.402,1757.04 697.5,1754.5C 699.278,1752.06 700.611,1749.39 701.5,1746.5C 701.344,1742.35 701.011,1737.85 700.5,1733C 701.167,1730.67 701.833,1728.33 702.5,1726C 701.13,1720.54 699.797,1715.04 698.5,1709.5C 698.471,1704.87 698.804,1700.2 699.5,1695.5C 697.177,1688.62 697.177,1681.96 699.5,1675.5C 699.27,1672.39 699.27,1669.22 699.5,1666C 698.987,1660.89 697.987,1655.89 696.5,1651C 697.116,1648.55 696.783,1646.05 695.5,1643.5C 696.167,1642.17 696.833,1640.83 697.5,1639.5C 695.599,1636.04 694.933,1632.54 695.5,1629C 695.834,1626.83 696.834,1624.99 698.5,1623.5C 697.399,1621.36 696.399,1619.19 695.5,1617C 696.334,1613.75 696.334,1610.42 695.5,1607C 695.07,1603.44 696.404,1600.77 699.5,1599C 700.13,1596.18 699.464,1593.52 697.5,1591C 697.903,1589.53 698.57,1588.19 699.5,1587C 697.236,1585.22 695.903,1582.89 695.5,1580C 696.979,1575.02 697.312,1570.02 696.5,1565C 696.482,1562.62 697.149,1560.45 698.5,1558.5C 697.003,1555.84 696.003,1553.01 695.5,1550C 696.812,1542.05 696.812,1534.05 695.5,1526C 695.493,1524.19 696.16,1522.69 697.5,1521.5C 696.102,1517.49 696.769,1513.82 699.5,1510.5C 698.313,1505.35 696.979,1500.02 695.5,1494.5C 695.848,1492.3 696.848,1490.47 698.5,1489C 695.999,1485.46 696.332,1482.13 699.5,1479C 698.018,1476.41 698.352,1474.07 700.5,1472C 699.39,1465.57 698.89,1459.07 699,1452.5C 700.41,1451.21 701.91,1450.05 703.5,1449C 701.516,1446.87 700.182,1444.37 699.5,1441.5C 700.836,1436.41 702.502,1431.24 704.5,1426C 703.351,1419.61 705.351,1414.27 710.5,1410C 709.884,1408.6 709.551,1407.1 709.5,1405.5C 710.617,1401.59 711.45,1397.59 712,1393.5C 714.695,1385.09 718.362,1377.09 723,1369.5C 734.393,1358.77 745.726,1348.1 757,1337.5C 760.433,1338.73 763.933,1339.73 767.5,1340.5C 771.407,1338.72 775.24,1337.05 779,1335.5C 780.984,1335.74 782.817,1336.41 784.5,1337.5C 789.774,1336.82 794.941,1336.82 800,1337.5C 803.503,1337.75 806.503,1339.09 809,1341.5C 813.159,1340.59 817.325,1340.76 821.5,1342C 823.032,1342.7 824.032,1343.87 824.5,1345.5C 829.326,1346.7 834.16,1346.7 839,1345.5C 841.151,1345.77 843.151,1346.44 845,1347.5C 849.113,1343.73 853.113,1343.73 857,1347.5C 862.897,1343.61 868.73,1343.61 874.5,1347.5C 882.794,1343.93 891.46,1342.76 900.5,1344C 901.211,1345.25 902.044,1346.42 903,1347.5C 906.867,1343.87 910.867,1343.87 915,1347.5C 920.904,1342.93 927.237,1341.6 934,1343.5C 938.974,1339.27 944.808,1337.11 951.5,1337C 954.319,1336.09 956.986,1334.92 959.5,1333.5C 961.601,1334.59 963.768,1335.59 966,1336.5C 967.141,1334.39 968.641,1332.56 970.5,1331C 972.833,1330.67 975.167,1330.33 977.5,1330C 980.539,1326.54 984.205,1325.54 988.5,1327C 991.553,1323.56 995.219,1322.72 999.5,1324.5C 1004.65,1321.17 1010.31,1319.34 1016.5,1319C 1017.9,1315.63 1020.23,1314.47 1023.5,1315.5C 1024.98,1313.52 1026.65,1311.68 1028.5,1310C 1030.77,1309.24 1032.94,1309.41 1035,1310.5C 1035.83,1309.67 1036.67,1308.83 1037.5,1308C 1040.83,1307.33 1044.17,1306.67 1047.5,1306C 1048.93,1303.25 1051.27,1301.75 1054.5,1301.5C 1057.94,1298.73 1061.6,1296.23 1065.5,1294C 1071.05,1294.01 1076.39,1293.01 1081.5,1291C 1082.86,1285.31 1086.53,1282.47 1092.5,1282.5C 1095.77,1278.58 1099.44,1275.08 1103.5,1272C 1105.5,1271.67 1107.5,1271.33 1109.5,1271C 1110.7,1266.96 1113.37,1264.46 1117.5,1263.5C 1119.12,1256.54 1123.45,1252.88 1130.5,1252.5C 1131.24,1249.01 1132.57,1245.68 1134.5,1242.5C 1138.57,1238.29 1143.24,1234.79 1148.5,1232C 1152.07,1225.02 1155.24,1217.85 1158,1210.5C 1159.03,1208.64 1160.53,1207.31 1162.5,1206.5C 1162.74,1202.02 1164.57,1198.35 1168,1195.5C 1168.32,1191.2 1169.98,1187.53 1173,1184.5C 1173.33,1181.5 1173.67,1178.5 1174,1175.5C 1175.84,1172.66 1177.68,1169.83 1179.5,1167C 1178.21,1162.36 1179.71,1158.86 1184,1156.5C 1184.25,1153.15 1185.08,1149.98 1186.5,1147C 1185.42,1145.27 1185.26,1143.44 1186,1141.5C 1190.71,1130.99 1194.05,1119.99 1196,1108.5C 1198.77,1106.16 1199.27,1103.33 1197.5,1100C 1199.18,1096.33 1200.85,1092.66 1202.5,1089C 1202.24,1084.52 1201.91,1080.02 1201.5,1075.5C 1202.24,1072.56 1202.74,1069.56 1203,1066.5C 1204,1065.5 1205,1064.5 1206,1063.5C 1206.11,1057.46 1205.94,1051.63 1205.5,1046C 1206.98,1041.1 1207.98,1036.1 1208.5,1031C 1206.9,1027.78 1207.4,1024.95 1210,1022.5C 1210.3,1014.8 1209.8,1007.13 1208.5,999.5C 1209.33,991.149 1210,982.982 1210.5,975C 1207.51,972.123 1207.18,969.123 1209.5,966C 1208.71,964.915 1208.04,963.748 1207.5,962.5C 1208.78,960.278 1209.78,957.944 1210.5,955.5C 1209.85,950.334 1207.68,946.001 1204,942.5C 1201.55,937.895 1199.71,933.062 1198.5,928C 1195.8,926.575 1195.14,924.575 1196.5,922C 1194.19,915.189 1191.19,908.689 1187.5,902.5C 1187.71,901.914 1188.04,901.414 1188.5,901C 1183.64,896.413 1182.14,890.913 1184,884.5C 1180.48,882.074 1177.15,879.407 1174,876.5C 1173.22,875.271 1172.72,873.938 1172.5,872.5C 1173.23,870.845 1173.39,869.179 1173,867.5C 1168.33,863.16 1163.99,858.494 1160,853.5C 1159.46,851.433 1159.96,849.599 1161.5,848C 1158.95,845.951 1156.95,843.451 1155.5,840.5C 1149.66,839.014 1147,835.347 1147.5,829.5C 1140.19,830.03 1136.52,826.697 1136.5,819.5C 1134.04,818.209 1132.54,816.209 1132,813.5C 1125.6,807.41 1118.43,802.577 1110.5,799C 1109.66,797.989 1109.33,796.822 1109.5,795.5C 1104.69,794.688 1101.35,792.022 1099.5,787.5C 1094.13,784.654 1088.47,782.487 1082.5,781C 1081.62,779.414 1080.62,777.914 1079.5,776.5C 1074.48,772.957 1068.81,770.624 1062.5,769.5C 1061.01,769.897 1059.51,770.23 1058,770.5C 1052.1,768.175 1045.94,766.675 1039.5,766C 1037.15,764.1 1034.48,762.767 1031.5,762C 1027.53,761.466 1023.7,761.966 1020,763.5C 1017.42,763.91 1015.76,762.91 1015,760.5C 1013.56,761.26 1012.06,761.926 1010.5,762.5C 1006.44,761.197 1002.44,760.863 998.5,761.5C 994.396,759.949 990.396,758.116 986.5,756C 982.805,755.682 979.138,755.182 975.5,754.5C 970.713,756.432 965.879,757.099 961,756.5C 956.24,753.72 951.073,753.054 945.5,754.5C 941.896,754.744 938.563,754.078 935.5,752.5C 932.094,754.416 928.594,756.083 925,757.5C 922.902,755.951 920.568,754.951 918,754.5C 915.935,756.216 913.602,757.549 911,758.5C 910.667,758.167 910.333,757.833 910,757.5C 908.786,759.049 907.286,760.215 905.5,761C 901.822,761.418 898.155,761.918 894.5,762.5C 888.825,765.666 882.825,768.333 876.5,770.5C 876.023,771.478 875.357,772.311 874.5,773C 867.408,775.851 860.741,779.351 854.5,783.5C 849.608,788.895 844.275,793.728 838.5,798C 837.551,798.617 836.718,798.451 836,797.5C 827.603,803.941 819.436,810.774 811.5,818C 810.809,819.067 810.309,820.234 810,821.5C 803.774,825.962 798.441,831.295 794,837.5C 793.285,841.878 791.285,845.545 788,848.5C 786.084,853.638 785.084,858.971 785,864.5C 784,865.167 783,865.833 782,866.5C 781.852,871.677 779.519,875.343 775,877.5C 774.421,881.091 772.588,883.924 769.5,886C 768.328,886.353 767.162,886.187 766,885.5C 763.672,887.994 761.172,890.328 758.5,892.5C 756.167,891.167 753.833,891.167 751.5,892.5C 748.131,890.35 745.131,890.516 742.5,893C 741.167,893.667 739.833,893.667 738.5,893C 735.226,889.494 731.226,887.161 726.5,886C 725.874,885.25 725.374,884.416 725,883.5C 721.887,885.83 718.721,885.997 715.5,884C 718.535,881.095 718.868,878.095 716.5,875C 717.602,872.599 717.769,870.099 717,867.5C 712.399,863.127 712.399,858.793 717,854.5C 717.769,851.901 717.602,849.401 716.5,847C 718.085,842.687 718.919,838.187 719,833.5C 721.333,831.833 723.667,830.167 726,828.5C 725.107,823.529 726.774,819.529 731,816.5C 731.023,811.115 733.523,807.448 738.5,805.5C 739.485,803.228 740.319,800.895 741,798.5C 745.444,794.21 750.277,790.543 755.5,787.5C 758.023,783.303 761.19,779.637 765,776.5C 767.432,771.996 770.599,767.996 774.5,764.5C 777.287,759.554 780.62,755.054 784.5,751C 789.077,751.087 791.911,748.92 793,744.5C 796.253,742.496 799.086,739.996 801.5,737C 803.715,735.956 806.048,735.29 808.5,735C 813.86,729.64 819.194,724.306 824.5,719C 827.005,717.247 829.671,715.747 832.5,714.5C 834.306,711.528 836.306,708.695 838.5,706C 840.134,705.506 841.801,705.34 843.5,705.5C 843.87,701.455 845.87,698.455 849.5,696.5C 850.167,696.833 850.833,697.167 851.5,697.5C 852.779,692.442 855.446,688.275 859.5,685C 861.473,684.505 863.473,684.338 865.5,684.5C 866.444,678.889 869.777,675.556 875.5,674.5C 877.027,672.807 878.36,670.973 879.5,669C 883.111,668.233 886.111,666.4 888.5,663.5C 889.457,661.082 890.791,658.916 892.5,657C 894.964,654.748 897.631,652.748 900.5,651C 903.167,648 905.833,645 908.5,642C 915.536,639.631 919.703,634.798 921,627.5C 924.145,625.21 926.312,622.21 927.5,618.5C 930.639,615.883 933.972,613.55 937.5,611.5C 936.812,609.523 937.145,607.523 938.5,605.5C 942.18,601.817 945.514,597.817 948.5,593.5C 949.736,592.754 951.07,592.421 952.5,592.5C 952.298,590.011 952.798,587.677 954,585.5C 956.074,583.548 958.241,581.715 960.5,580C 959.903,578.938 959.57,577.772 959.5,576.5C 960.683,572.564 961.683,568.564 962.5,564.5C 966.924,562.721 967.591,559.888 964.5,556C 968.533,551.879 969.2,547.379 966.5,542.5C 966.732,540.202 967.399,538.035 968.5,536C 965.398,532.054 964.398,527.72 965.5,523C 960.748,518.977 955.748,516.144 950.5,514.5C 946.298,512.866 941.965,511.699 937.5,511C 936.069,510.535 934.903,509.701 934,508.5C 933.626,509.416 933.126,510.25 932.5,511C 928.644,512.089 924.81,513.256 921,514.5C 919.667,513.833 918.333,513.167 917,512.5C 905.027,516.269 893.193,520.436 881.5,525C 878.53,526.153 875.863,527.82 873.5,530C 871.167,530.333 868.833,530.667 866.5,531C 861.644,536.854 856.477,542.354 851,547.5C 850.586,547.043 850.086,546.709 849.5,546.5C 844.042,553.652 838.042,560.152 831.5,566C 827.309,567.518 824.143,570.685 822,575.5C 816.891,578.61 813.224,582.943 811,588.5C 807.637,592.525 804.304,596.525 801,600.5C 799.89,602.037 798.39,602.703 796.5,602.5C 796.174,605.311 795.341,607.978 794,610.5C 790.988,614.538 787.988,618.538 785,622.5C 781.967,623.8 779.801,625.966 778.5,629C 777.234,629.309 776.067,629.809 775,630.5C 771.35,637.012 767.35,643.346 763,649.5C 760.766,652.749 757.766,654.749 754,655.5C 753.178,657.788 752.511,660.122 752,662.5C 746.707,666.372 741.873,670.705 737.5,675.5C 735.521,680.123 733.021,684.456 730,688.5C 728.89,690.037 727.39,690.703 725.5,690.5C 724.861,692.76 723.694,694.76 722,696.5C 720.045,697.453 718.378,698.787 717,700.5C 711.391,711.406 705.057,721.74 698,731.5C 693.885,733.778 691.052,737.112 689.5,741.5C 687.235,742.7 685.402,744.367 684,746.5C 682.434,747.061 681.101,746.394 680,744.5C 677.493,746.837 674.993,749.17 672.5,751.5C 671.575,750.359 670.741,750.359 670,751.5C 669.333,750.833 668.667,750.167 668,749.5C 663.64,751.786 658.974,753.119 654,753.5C 652.105,753.385 650.438,752.718 649,751.5C 646.827,745.158 643.16,739.824 638,735.5C 637.887,731.457 636.721,727.791 634.5,724.5C 634.977,723.522 635.643,722.689 636.5,722C 636.456,718.943 635.789,715.776 634.5,712.5C 635.156,709.667 636.49,707.167 638.5,705C 637.483,702.213 637.316,699.38 638,696.5C 640.59,692.844 642.59,688.844 644,684.5C 645.011,683.663 646.178,683.33 647.5,683.5C 646.516,677.766 647.683,672.433 651,667.5C 651.333,664.167 651.667,660.833 652,657.5C 652.833,656.667 653.667,655.833 654.5,655C 653.424,653.274 653.257,651.441 654,649.5C 656.719,642.394 659.719,635.394 663,628.5C 664.11,626.963 665.61,626.297 667.5,626.5C 666.907,623.404 667.907,621.071 670.5,619.5C 672.557,614.377 673.724,609.044 674,603.5C 677.079,599.419 680.246,595.419 683.5,591.5C 684.324,588.215 684.824,584.882 685,581.5C 689.946,575.945 693.613,569.612 696,562.5C 697.509,560.081 699.675,559.081 702.5,559.5C 704.189,553.21 706.022,547.21 708,541.5C 709.932,538.116 712.432,535.282 715.5,533C 715.167,532.667 714.833,532.333 714.5,532C 715.658,528.527 716.824,525.027 718,521.5C 721.757,516.228 724.757,510.561 727,504.5C 728.333,502.5 730,500.833 732,499.5C 732.333,496.833 732.667,494.167 733,491.5C 735.667,490.167 737.667,488.167 739,485.5C 738.733,478.537 740.9,472.537 745.5,467.5C 746.325,466.614 747.325,466.281 748.5,466.5C 746.29,459.186 747.623,452.686 752.5,447C 752.544,442.181 752.544,437.347 752.5,432.5C 753.698,428.853 755.031,425.353 756.5,422C 755.761,418.173 755.594,414.34 756,410.5C 757.916,408.767 759.082,406.6 759.5,404C 758.015,401.844 756.515,399.677 755,397.5C 754.223,394.571 754.39,391.737 755.5,389C 751.999,385.18 750.999,380.847 752.5,376C 749.257,372.179 746.257,368.179 743.5,364C 743.833,363.667 744.167,363.333 744.5,363C 738.819,361.452 733.319,359.618 728,357.5C 721.526,359.563 715.192,362.229 709,365.5C 707.915,364.707 706.748,364.04 705.5,363.5C 703.446,365.194 701.112,366.361 698.5,367C 695.537,371.822 691.204,374.655 685.5,375.5C 681.524,378.683 678.191,382.517 675.5,387C 672.455,390.19 668.788,392.357 664.5,393.5C 662.47,396.226 660.97,399.226 660,402.5C 657,404.833 654,407.167 651,409.5C 650.667,411.167 650.333,412.833 650,414.5C 647.15,418.552 643.65,421.885 639.5,424.5C 638.754,425.736 638.421,427.07 638.5,428.5C 637.178,428.33 636.011,428.663 635,429.5C 634.572,433.619 632.572,436.619 629,438.5C 628.408,441.694 628.574,444.861 629.5,448C 628.403,454.676 626.903,461.51 625,468.5C 624.311,469.357 623.478,470.023 622.5,470.5C 621.672,474.796 621.172,479.129 621,483.5C 619.462,487.5 618.295,491.667 617.5,496C 612.265,499.3 609.765,504.133 610,510.5C 606.758,513.445 605.592,516.945 606.5,521C 605.206,523.087 604.039,525.254 603,527.5C 599.563,532.049 595.897,536.382 592,540.5C 590.93,548.461 589.43,556.128 587.5,563.5C 583.558,564.636 580.558,566.969 578.5,570.5C 580.383,574.848 579.55,578.515 576,581.5C 574.274,590.146 572.607,598.813 571,607.5C 568.52,613.066 566.186,618.733 564,624.5C 562.4,625.866 560.567,626.866 558.5,627.5C 556.559,629.533 556.225,631.7 557.5,634C 557.402,636.873 556.068,638.873 553.5,640C 554.862,644.951 554.362,649.785 552,654.5C 548.305,658.05 545.471,662.216 543.5,667C 545.607,672.689 544.441,677.523 540,681.5C 539.744,684.557 539.244,687.557 538.5,690.5C 536.146,692.705 534.146,695.205 532.5,698C 534.242,702.903 533.576,707.403 530.5,711.5C 531.52,713.432 531.687,715.432 531,717.5C 526.683,719.815 523.85,723.315 522.5,728C 521.552,728.483 520.552,728.649 519.5,728.5C 519.848,734.81 517.348,739.477 512,742.5C 508.704,740.696 505.204,740.196 501.5,741C 500.333,744.167 498.167,746.333 495,747.5C 489.049,745.424 482.882,744.257 476.5,744C 474.64,741.938 472.306,740.605 469.5,740C 467.912,736.369 465.246,733.869 461.5,732.5C 460.227,730.016 460.227,727.516 461.5,725C 457.251,718.203 457.918,712.037 463.5,706.5C 462.833,705.833 462.167,705.167 461.5,704.5C 462.585,703.216 463.252,701.716 463.5,700C 462.755,697.521 462.089,695.021 461.5,692.5C 462.991,686.218 464.157,679.885 465,673.5C 465.833,672.667 466.667,671.833 467.5,671C 465.553,665.954 466.72,661.787 471,658.5C 471.562,656.134 471.396,653.801 470.5,651.5C 470.543,647.888 472.043,645.221 475,643.5C 475.465,642.069 476.299,640.903 477.5,640C 476.465,638.493 476.632,636.993 478,635.5C 479.487,634.845 480.653,633.845 481.5,632.5C 480.544,628.835 480.211,625.001 480.5,621C 481.814,617.617 482.647,614.117 483,610.5C 484.193,608.395 485.86,606.728 488,605.5C 490.84,597.778 492.173,589.778 492,581.5C 495.968,577.366 498.301,572.366 499,566.5C 500,564.167 501.667,562.5 504,561.5C 503.806,557.74 504.973,554.574 507.5,552C 506.39,549.263 506.223,546.429 507,543.5C 509.099,540.43 510.765,537.096 512,533.5C 512.501,528.655 514.168,524.322 517,520.5C 518.917,509.529 524.083,500.529 532.5,493.5C 532.069,492.707 531.735,491.873 531.5,491C 533.401,485.129 535.401,479.296 537.5,473.5C 538.665,472.416 539.998,471.583 541.5,471C 539.317,465.997 540.817,462.497 546,460.5C 546.516,454.824 547.016,449.324 547.5,444C 546.726,440.692 546.06,437.359 545.5,434C 546.617,429.683 546.617,425.35 545.5,421C 545.411,418.287 546.078,415.787 547.5,413.5C 545.759,408.609 544.425,403.609 543.5,398.5C 542.186,397.687 541.019,396.687 540,395.5C 539.222,392.816 537.889,390.483 536,388.5C 535.316,387.216 535.483,386.049 536.5,385C 532.603,381.469 528.436,378.303 524,375.5C 523.505,373.527 523.338,371.527 523.5,369.5C 520.187,368.955 516.854,368.455 513.5,368C 513,367.5 512.5,367 512,366.5C 508.128,370.446 504.294,370.446 500.5,366.5C 498.167,368.333 495.833,370.167 493.5,372C 491.5,372 489.5,372 487.5,372C 486.042,375.913 484.042,379.579 481.5,383C 478.307,382.73 475.307,383.73 472.5,386C 470.447,391.209 466.781,394.876 461.5,397C 457.044,400.912 453.044,405.245 449.5,410C 447.541,410.931 445.541,411.764 443.5,412.5C 442.86,417.466 440.193,420.466 435.5,421.5C 435.662,423.527 435.495,425.527 435,427.5C 432.667,430.5 430.333,433.5 428,436.5C 426.421,438.041 424.587,439.208 422.5,440C 422.833,440.333 423.167,440.667 423.5,441C 421.558,446.721 418.058,451.221 413,454.5C 412.64,456.608 411.973,458.608 411,460.5C 405.506,463.471 402.506,468.138 402,474.5C 399.667,476.833 397.333,479.167 395,481.5C 394.654,484.576 393.988,487.576 393,490.5C 392.311,491.357 391.478,492.023 390.5,492.5C 390.346,497.133 388.346,500.633 384.5,503C 385.115,505.468 384.282,507.634 382,509.5C 381.661,512.036 381.161,514.536 380.5,517C 377.622,518.9 376.622,521.4 377.5,524.5C 376.568,526.795 375.735,529.129 375,531.5C 370.285,535.676 368.285,541.01 369,547.5C 366.572,548.63 364.405,550.13 362.5,552C 365.972,556.914 364.972,560.581 359.5,563C 362.864,568.894 361.697,573.394 356,576.5C 356,579.833 356,583.167 356,586.5C 355.333,587.167 354.667,587.833 354,588.5C 353.254,592.363 352.087,596.029 350.5,599.5C 351.562,602.103 351.728,604.77 351,607.5C 348.033,612.12 345.866,617.12 344.5,622.5C 345.593,626.108 345.76,629.775 345,633.5C 343.333,634.833 341.667,636.167 340,637.5C 339.771,653.06 337.105,668.393 332,683.5C 327.613,689.814 325.78,696.814 326.5,704.5C 325.388,710.025 323.388,715.192 320.5,720C 323.094,723.827 323.927,727.994 323,732.5C 319.502,739.349 317.835,746.682 318,754.5C 316.59,755.787 315.09,756.954 313.5,758C 315.244,760.963 315.744,764.129 315,767.5C 313.367,770.7 311.2,773.534 308.5,776C 309.802,778.213 310.802,780.546 311.5,783C 309.242,787.529 308.075,792.363 308,797.5C 306.333,799.167 304.667,800.833 303,802.5C 302.504,804.035 302.67,805.535 303.5,807C 302.756,809.155 301.756,811.155 300.5,813C 303.061,820.031 302.061,826.531 297.5,832.5C 297.931,833.293 298.265,834.127 298.5,835C 297.307,847.747 293.974,859.914 288.5,871.5C 291.932,878.387 291.598,885.22 287.5,892C 289.015,895.56 288.682,898.894 286.5,902C 287.228,904.967 287.228,908.134 286.5,911.5C 284.99,914.255 282.99,916.588 280.5,918.5C 283.123,922.318 283.123,926.151 280.5,930C 282.263,935.838 281.763,941.672 279,947.5C 279.458,953.628 277.958,959.128 274.5,964C 276.484,966.134 277.818,968.634 278.5,971.5C 275.295,975.569 274.628,980.069 276.5,985C 275.905,988.341 274.905,991.507 273.5,994.5C 274.415,998.144 274.581,1001.81 274,1005.5C 273.097,1006.7 271.931,1007.53 270.5,1008C 274.688,1012.55 274.355,1016.72 269.5,1020.5C 272.955,1025.18 273.122,1029.85 270,1034.5C 270.219,1039.48 270.219,1044.48 270,1049.5C 268.888,1051.39 268.054,1053.39 267.5,1055.5C 270.436,1060.9 270.103,1066.07 266.5,1071C 268.032,1074.98 268.698,1079.14 268.5,1083.5C 269.049,1088.02 268.049,1092.02 265.5,1095.5C 268.339,1100.21 268.006,1104.55 264.5,1108.5C 265.851,1110.45 266.518,1112.62 266.5,1115C 265.553,1117.87 265.553,1120.53 266.5,1123C 265.833,1124 265.167,1125 264.5,1126C 265.61,1128.74 265.777,1131.57 265,1134.5C 264.5,1135.67 263.667,1136.5 262.5,1137C 263.126,1137.75 263.626,1138.58 264,1139.5C 264.667,1144.83 264.667,1150.17 264,1155.5C 263.173,1156.66 262.34,1157.83 261.5,1159C 265.019,1164.26 264.019,1168.26 258.5,1171C 263.428,1176.53 263.761,1182.36 259.5,1188.5C 260.297,1193.13 260.964,1197.8 261.5,1202.5C 258.748,1207.58 256.415,1212.91 254.5,1218.5C 257.196,1223.06 259.196,1227.89 260.5,1233C 259.86,1238.22 258.86,1243.38 257.5,1248.5C 259.387,1253.46 258.72,1257.96 255.5,1262C 260.122,1268.07 259.122,1273.07 252.5,1277C 255.07,1283.6 255.904,1290.43 255,1297.5C 253.536,1298.46 252.703,1299.79 252.5,1301.5C 254.191,1304.41 255.191,1307.57 255.5,1311C 254.4,1313.55 254.4,1316.05 255.5,1318.5C 255.514,1320.61 254.848,1322.44 253.5,1324C 254.502,1325.77 254.168,1327.43 252.5,1329C 255.602,1331.97 256.935,1335.63 256.5,1340C 255.936,1343.1 255.936,1346.1 256.5,1349C 255.33,1351.67 253.663,1354 251.5,1356C 253.049,1357.21 254.215,1358.71 255,1360.5C 257.481,1368.79 256.981,1376.79 253.5,1384.5C 256.917,1388.31 257.251,1392.31 254.5,1396.5C 255.582,1398.88 256.249,1401.05 256.5,1403C 254.968,1405.62 253.968,1408.45 253.5,1411.5C 253.858,1417.59 255.191,1423.42 257.5,1429C 257.042,1433.68 256.708,1438.35 256.5,1443C 257.875,1445.32 258.875,1447.82 259.5,1450.5C 258.08,1452.71 256.413,1454.71 254.5,1456.5C 255.531,1457.7 256.365,1459.03 257,1460.5C 258.278,1468.83 259.444,1477.16 260.5,1485.5C 259.389,1486.61 258.722,1487.94 258.5,1489.5C 259.548,1491.41 259.548,1493.24 258.5,1495C 259.358,1496.57 260.025,1498.24 260.5,1500C 259.049,1502.95 257.382,1505.79 255.5,1508.5C 258.581,1510.9 260.248,1514.07 260.5,1518C 257.926,1521.44 255.926,1525.27 254.5,1529.5C 255.174,1531.52 256.341,1533.18 258,1534.5C 258.109,1538.84 258.943,1543 260.5,1547C 259.833,1548.33 259.167,1549.67 258.5,1551C 259.409,1552.79 259.576,1554.62 259,1556.5C 255.315,1560.71 254.815,1565.21 257.5,1570C 257.167,1570.33 256.833,1570.67 256.5,1571C 261.455,1575.11 262.789,1580.28 260.5,1586.5C 262.04,1592.45 263.373,1598.45 264.5,1604.5C 262.003,1607.74 262.003,1611.08 264.5,1614.5C 263.695,1616.92 262.695,1619.25 261.5,1621.5C 263.798,1624.26 265.132,1627.43 265.5,1631C 264.562,1633.97 263.562,1636.97 262.5,1640C 264.784,1643.08 266.117,1646.58 266.5,1650.5C 265.918,1652.83 265.918,1654.99 266.5,1657C 266.05,1658.29 265.383,1659.45 264.5,1660.5C 265.137,1665.56 266.137,1670.56 267.5,1675.5C 265.304,1678.42 263.971,1681.76 263.5,1685.5C 265.468,1687.6 266.468,1690.1 266.5,1693C 266.214,1699.23 265.048,1705.4 263,1711.5C 262.365,1712.97 261.531,1714.3 260.5,1715.5C 264.367,1722.96 262.701,1728.79 255.5,1733C 253.101,1733.71 250.768,1733.54 248.5,1732.5C 243.812,1734.86 240.478,1738.53 238.5,1743.5C 236.684,1744.81 235.017,1746.31 233.5,1748C 229.936,1747.98 226.436,1748.14 223,1748.5C 220.534,1751.8 217.367,1754.13 213.5,1755.5C 210.278,1752.95 206.945,1750.45 203.5,1748C 195.386,1746.88 191.053,1742.22 190.5,1734C 192.73,1729.83 194.064,1725.33 194.5,1720.5C 193.214,1718.71 191.714,1717.04 190,1715.5C 189.28,1713.89 189.446,1712.39 190.5,1711C 185.637,1706.97 185.304,1702.64 189.5,1698C 185.522,1693.93 185.522,1689.93 189.5,1686C 186.119,1683.77 184.119,1680.6 183.5,1676.5C 183.662,1674.16 184.662,1672.33 186.5,1671C 184.73,1669.03 183.73,1666.7 183.5,1664C 184.5,1661.67 185.5,1659.33 186.5,1657C 185.275,1653.01 185.275,1649.01 186.5,1645C 185.658,1641.47 184.658,1637.97 183.5,1634.5C 184.012,1632.12 184.679,1629.78 185.5,1627.5C 184.273,1624.6 183.939,1621.77 184.5,1619C 181.984,1612.08 180.317,1604.91 179.5,1597.5C 179.598,1595.06 180.598,1593.06 182.5,1591.5C 180.917,1587.75 179.584,1583.92 178.5,1580C 178.167,1577.33 179.167,1575.33 181.5,1574C 178.59,1569.88 178.256,1565.71 180.5,1561.5C 178.175,1557.4 178.508,1553.4 181.5,1549.5C 178.73,1539.74 179.396,1530.24 183.5,1521C 180.609,1517.58 180.275,1514.08 182.5,1510.5C 177.9,1502.85 177.234,1495.02 180.5,1487C 178.95,1480.61 177.95,1474.11 177.5,1467.5C 178.04,1466.25 178.707,1465.09 179.5,1464C 178.785,1459.47 177.785,1454.97 176.5,1450.5C 177.006,1447.61 178.006,1444.94 179.5,1442.5C 177.279,1440.31 175.946,1437.64 175.5,1434.5C 175.494,1425.8 176.16,1417.3 177.5,1409C 173.785,1402.92 173.785,1397.25 177.5,1392C 176.203,1389.27 175.203,1386.44 174.5,1383.5C 175.603,1381.72 175.603,1379.89 174.5,1378C 175.178,1375.48 176.512,1373.31 178.5,1371.5C 176.949,1369.12 175.615,1366.62 174.5,1364C 175.777,1360.61 177.444,1357.45 179.5,1354.5C 177.56,1347.32 175.226,1340.16 172.5,1333C 173.101,1331.39 174.101,1330.06 175.5,1329C 173.73,1327.03 172.73,1324.7 172.5,1322C 173.416,1317.65 175.083,1313.65 177.5,1310C 174.465,1305.78 174.131,1301.45 176.5,1297C 172.749,1288.17 173.416,1279.67 178.5,1271.5C 176.411,1269.56 175.744,1267.39 176.5,1265C 174.027,1259.63 174.694,1254.13 178.5,1248.5C 174.639,1242.53 173.972,1236.2 176.5,1229.5C 175.48,1227.57 175.313,1225.57 176,1223.5C 177.076,1221.93 177.909,1220.27 178.5,1218.5C 177.392,1214.18 176.392,1209.84 175.5,1205.5C 176.5,1204.17 177.5,1202.83 178.5,1201.5C 176.614,1195.04 175.948,1188.54 176.5,1182C 177.178,1179.48 178.512,1177.31 180.5,1175.5C 179.833,1174.17 179.167,1172.83 178.5,1171.5C 179.167,1170.17 179.833,1168.83 180.5,1167.5C 179.167,1163.83 179.167,1160.17 180.5,1156.5C 177.723,1150.95 178.723,1146.28 183.5,1142.5C 177.689,1135.18 178.355,1128.51 185.5,1122.5C 179.776,1115.74 179.109,1108.57 183.5,1101C 180.7,1096.57 181.033,1092.41 184.5,1088.5C 182.871,1082.98 183.538,1077.82 186.5,1073C 184.73,1071.03 183.73,1068.7 183.5,1066C 186.106,1054.1 187.44,1042.1 187.5,1030C 189.086,1026.38 190.753,1022.71 192.5,1019C 191.978,1016.79 191.312,1014.62 190.5,1012.5C 190.708,1006.44 190.708,1000.44 190.5,994.5C 191.157,991.025 192.49,987.859 194.5,985C 192.703,981.102 193.37,977.769 196.5,975C 194.607,972.083 194.107,968.916 195,965.5C 197.85,961.301 200.017,956.801 201.5,952C 200.167,948.333 198.833,944.667 197.5,941C 198.672,936.473 200.338,932.14 202.5,928C 202.043,927.586 201.709,927.086 201.5,926.5C 201.958,922.162 202.958,917.996 204.5,914C 203.601,905.963 203.601,897.963 204.5,890C 205.625,888.037 206.959,886.204 208.5,884.5C 205.982,880.647 205.982,876.813 208.5,873C 208.355,872.228 208.022,871.561 207.5,871C 208.264,868.931 208.764,866.764 209,864.5C 215.797,858.474 217.297,851.307 213.5,843C 214.001,835.784 216.001,829.117 219.5,823C 220.49,818.69 220.49,814.19 219.5,809.5C 220.1,806.053 221.434,802.886 223.5,800C 222.51,795.539 222.676,791.039 224,786.5C 226.816,784.683 229.316,782.517 231.5,780C 229.899,774.589 229.399,769.089 230,763.5C 233.12,761.458 234.62,758.458 234.5,754.5C 233.732,751.846 233.566,749.179 234,746.5C 236.203,743.142 238.037,739.642 239.5,736C 238.884,734.6 238.551,733.1 238.5,731.5C 239.11,726.178 239.61,720.844 240,715.5C 242.914,714.252 244.747,712.086 245.5,709C 243.073,701.581 242.907,694.081 245,686.5C 247.295,683.165 248.128,679.665 247.5,676C 248.512,672.804 249.678,669.637 251,666.5C 252.918,665.458 254.751,664.292 256.5,663C 255.74,661.559 255.074,660.059 254.5,658.5C 255.047,655.206 255.213,651.54 255,647.5C 255.333,646.5 255.667,645.5 256,644.5C 260.765,642.807 261.598,639.973 258.5,636C 259.006,633.468 260.173,631.302 262,629.5C 263.273,621.929 264.606,614.262 266,606.5C 267.667,604.833 269.333,603.167 271,601.5C 270.582,596.535 270.582,591.535 271,586.5C 273.305,582.236 275.305,577.903 277,573.5C 276.345,565.119 278.345,557.452 283,550.5C 283.333,548.5 283.667,546.5 284,544.5C 285.512,543.743 286.846,542.743 288,541.5C 288.745,536.935 290.078,532.602 292,528.5C 292.615,526.884 293.615,525.551 295,524.5C 295.286,522.001 295.119,519.835 294.5,518C 296.081,515.002 297.247,511.835 298,508.5C 301.348,504.802 303.348,500.469 304,495.5C 306.432,492.312 309.099,489.312 312,486.5C 311.68,483.54 311.68,480.54 312,477.5C 315.355,473.761 318.522,469.927 321.5,466C 320.17,462.632 320.67,459.465 323,456.5C 324.011,455.663 325.178,455.33 326.5,455.5C 326.648,451.186 328.815,448.519 333,447.5C 333.483,446.552 333.649,445.552 333.5,444.5C 334.822,444.67 335.989,444.337 337,443.5C 337.297,440.086 337.964,436.753 339,433.5C 341.513,432.152 343.347,430.152 344.5,427.5C 345.736,426.754 347.07,426.421 348.5,426.5C 348.662,423.331 350.328,421.331 353.5,420.5C 354.196,417.444 355.03,414.444 356,411.5C 360.772,409.977 363.106,406.644 363,401.5C 369.818,397.556 374.818,391.889 378,384.5C 387.356,376.002 396.856,367.502 406.5,359C 407.793,358.51 409.127,358.343 410.5,358.5C 411.11,352.385 414.444,348.551 420.5,347C 422.547,343.473 424.88,340.14 427.5,337C 429.167,336.667 430.833,336.333 432.5,336C 434.167,333.667 435.833,331.333 437.5,329C 443.652,328.935 449.152,326.768 454,322.5C 454.561,323.022 455.228,323.355 456,323.5C 457.478,322.022 458.978,320.522 460.5,319C 466.379,318.156 471.712,316.656 476.5,314.5C 478.915,315.369 481.082,314.702 483,312.5C 485.333,313.167 487.667,313.833 490,314.5C 491.765,312.226 493.932,310.559 496.5,309.5C 498.987,310.73 501.487,310.73 504,309.5C 505.984,309.741 507.817,310.408 509.5,311.5C 512.906,310.183 516.239,308.683 519.5,307C 523.042,306.149 526.375,306.649 529.5,308.5C 532.936,307.566 536.436,306.899 540,306.5C 544.332,307.665 548.832,308.498 553.5,309C 554.047,309.925 554.713,310.758 555.5,311.5C 561.002,309.814 564.502,312.148 566,318.5C 567.771,319.304 569.271,320.471 570.5,322C 575.112,320.785 579.445,321.452 583.5,324C 584.071,325.205 584.738,326.372 585.5,327.5C 590.663,328.389 593.329,331.389 593.5,336.5C 595.582,336.472 597.416,337.139 599,338.5C 600.754,342.361 602.088,346.361 603,350.5C 605.251,352.377 607.751,353.877 610.5,355C 612,357.167 613.5,359.333 615,361.5C 615.29,359.048 615.956,356.715 617,354.5C 620.414,352.098 624.08,350.098 628,348.5C 631.604,329.949 642.771,319.449 661.5,317C 664.686,312.98 668.353,309.48 672.5,306.5C 673.768,307.428 675.101,307.595 676.5,307C 679.989,304.556 683.656,302.39 687.5,300.5C 698.776,298.581 709.943,296.248 721,293.5C 724.283,294.776 727.117,294.11 729.5,291.5 Z M 788.5,528.5 C 791.358,529.535 791.858,531.202 790,533.5C 788.192,531.967 787.692,530.3 788.5,528.5 Z M 1579.5,743.5 C 1581.59,744.551 1583.75,744.551 1586,743.5C 1587.71,743.439 1589.04,744.106 1590,745.5C 1593.63,742.738 1596.96,743.072 1600,746.5C 1603.49,746.357 1606.99,746.023 1610.5,745.5C 1615.73,747.817 1621.06,748.817 1626.5,748.5C 1633.77,749.703 1640.43,752.203 1646.5,756C 1648.83,756.333 1651.17,756.667 1653.5,757C 1661.1,760.634 1668.43,764.634 1675.5,769C 1676.17,770.333 1676.83,771.667 1677.5,773C 1681.16,775.497 1685.16,777.497 1689.5,779C 1691.64,782.477 1694.64,784.811 1698.5,786C 1699.34,787.011 1699.67,788.178 1699.5,789.5C 1700.55,789.351 1701.55,789.517 1702.5,790C 1707.78,794.735 1712.95,799.568 1718,804.5C 1718.73,807.288 1720.56,808.788 1723.5,809C 1724.86,810.584 1725.53,812.418 1725.5,814.5C 1729.11,814.379 1731.27,816.045 1732,819.5C 1733.15,820.743 1734.49,821.743 1736,822.5C 1743.51,836.013 1751.84,849.013 1761,861.5C 1762.96,870.018 1766.12,878.018 1770.5,885.5C 1769.71,887.329 1770.21,888.996 1772,890.5C 1774.22,900.002 1776.72,909.169 1779.5,918C 1778.13,921.452 1778.47,924.952 1780.5,928.5C 1780.29,934.307 1780.29,940.307 1780.5,946.5C 1781.12,948.711 1782.12,950.711 1783.5,952.5C 1782.43,955.438 1782.26,958.438 1783,961.5C 1784.84,970.863 1786.68,980.196 1788.5,989.5C 1787.85,993.684 1787.51,997.85 1787.5,1002C 1788.95,1004.95 1790.62,1007.79 1792.5,1010.5C 1791.89,1012.71 1791.23,1014.88 1790.5,1017C 1790.77,1020.14 1791.1,1023.3 1791.5,1026.5C 1787.77,1030.34 1787.77,1034.34 1791.5,1038.5C 1790.1,1039.85 1789.44,1041.52 1789.5,1043.5C 1790.48,1049.52 1790.15,1055.52 1788.5,1061.5C 1788.89,1063.27 1789.55,1064.94 1790.5,1066.5C 1789.17,1074.83 1787.83,1083.17 1786.5,1091.5C 1787.04,1094.18 1788.04,1096.68 1789.5,1099C 1788.36,1101.14 1786.86,1102.97 1785,1104.5C 1783.17,1110.8 1782.67,1117.13 1783.5,1123.5C 1779.98,1128.9 1778.15,1134.9 1778,1141.5C 1774.14,1145.66 1773.31,1150.16 1775.5,1155C 1770.1,1157.64 1768.43,1161.81 1770.5,1167.5C 1768.85,1169.65 1767.02,1171.65 1765,1173.5C 1762.58,1180.03 1760.58,1186.7 1759,1193.5C 1751.84,1200.25 1747,1208.25 1744.5,1217.5C 1742.42,1217.47 1740.58,1218.14 1739,1219.5C 1737.27,1222.62 1736.44,1225.95 1736.5,1229.5C 1734.74,1229.36 1733.07,1229.69 1731.5,1230.5C 1726.82,1234.02 1722.32,1237.68 1718,1241.5C 1717.2,1244.87 1716.03,1248.03 1714.5,1251C 1710.23,1249.96 1706.89,1251.46 1704.5,1255.5C 1702.92,1256.3 1701.26,1256.8 1699.5,1257C 1693.5,1263.33 1687.5,1269.67 1681.5,1276C 1675.78,1275.89 1671.28,1278.06 1668,1282.5C 1667,1282.17 1666,1281.83 1665,1281.5C 1662.41,1283.27 1659.58,1284.27 1656.5,1284.5C 1656.68,1287.32 1655.35,1288.99 1652.5,1289.5C 1647.97,1288.26 1644.31,1289.59 1641.5,1293.5C 1635.39,1294.27 1631.39,1297.6 1629.5,1303.5C 1627.37,1301.88 1625.04,1301.38 1622.5,1302C 1619.53,1305.15 1616.2,1307.81 1612.5,1310C 1608.89,1309.37 1605.22,1309.04 1601.5,1309C 1599.31,1310.36 1597.64,1312.19 1596.5,1314.5C 1593.51,1315.13 1590.67,1316.13 1588,1317.5C 1585.58,1316.65 1583.08,1315.98 1580.5,1315.5C 1575.76,1316.96 1571.1,1318.62 1566.5,1320.5C 1563.9,1319.44 1561.23,1319.27 1558.5,1320C 1554.29,1322.41 1549.79,1324.24 1545,1325.5C 1544.44,1324.98 1543.77,1324.64 1543,1324.5C 1540.18,1325.23 1537.35,1325.9 1534.5,1326.5C 1532.02,1325.76 1529.69,1324.76 1527.5,1323.5C 1525.94,1324.61 1524.44,1324.61 1523,1323.5C 1521.53,1323.9 1520.19,1324.57 1519,1325.5C 1517.91,1324.71 1516.75,1324.04 1515.5,1323.5C 1514,1324.11 1512.34,1324.11 1510.5,1323.5C 1508.39,1323.49 1506.56,1324.15 1505,1325.5C 1503.57,1325.07 1502.4,1324.24 1501.5,1323C 1497.19,1323.01 1493.19,1322.01 1489.5,1320C 1486.29,1319.3 1483.12,1319.46 1480,1320.5C 1475.33,1317.47 1470.33,1316.8 1465,1318.5C 1462.4,1316.11 1459.73,1316.11 1457,1318.5C 1453.66,1318.35 1451.66,1316.68 1451,1313.5C 1448.32,1310.54 1445.15,1309.87 1441.5,1311.5C 1435.83,1309.76 1430,1308.42 1424,1307.5C 1423.13,1307.74 1422.29,1308.07 1421.5,1308.5C 1420.13,1306.51 1419.13,1304.34 1418.5,1302C 1414.77,1299.36 1410.77,1298.52 1406.5,1299.5C 1404.78,1298.07 1402.78,1297.23 1400.5,1297C 1398.8,1294.76 1397.8,1292.26 1397.5,1289.5C 1395.15,1289.16 1392.81,1288.66 1390.5,1288C 1387.28,1285.53 1384.28,1282.87 1381.5,1280C 1378.27,1278.8 1374.94,1278.3 1371.5,1278.5C 1371.83,1275.5 1370.5,1274.17 1367.5,1274.5C 1367.4,1268.3 1364.4,1264.3 1358.5,1262.5C 1355.61,1258.42 1351.61,1256.42 1346.5,1256.5C 1347.57,1249.86 1344.57,1245.86 1337.5,1244.5C 1336.18,1238.66 1332.51,1235.33 1326.5,1234.5C 1326.66,1233.13 1326.49,1231.79 1326,1230.5C 1320.47,1228.05 1318.14,1224.05 1319,1218.5C 1317.36,1215.69 1315.19,1213.36 1312.5,1211.5C 1310.79,1207.25 1308.46,1203.42 1305.5,1200C 1306.55,1198.61 1306.72,1197.11 1306,1195.5C 1303.11,1193.72 1301.94,1191.39 1302.5,1188.5C 1299.69,1179.38 1296.86,1170.05 1294,1160.5C 1292.72,1148.81 1290.89,1137.48 1288.5,1126.5C 1290.7,1122.81 1290.7,1118.97 1288.5,1115C 1291.26,1110.73 1290.93,1106.73 1287.5,1103C 1288.56,1099.16 1287.73,1095.66 1285,1092.5C 1284.5,1090.53 1284.34,1088.53 1284.5,1086.5C 1288.99,1085.83 1291.16,1083.17 1291,1078.5C 1291.21,1073.11 1291.71,1067.78 1292.5,1062.5C 1288.09,1053.76 1288.59,1045.43 1294,1037.5C 1295.34,1030.16 1296.67,1022.82 1298,1015.5C 1300.43,1008.29 1302.93,1001.13 1305.5,994C 1305.09,992.07 1304.42,990.236 1303.5,988.5C 1305.1,985.399 1307.27,982.732 1310,980.5C 1310.97,977.556 1311.8,974.556 1312.5,971.5C 1316.93,966.756 1317.59,961.422 1314.5,955.5C 1317.12,955.024 1319.12,953.691 1320.5,951.5C 1321.33,946.868 1321.83,942.202 1322,937.5C 1324.07,934.457 1326.73,932.124 1330,930.5C 1331.31,928.314 1331.48,926.147 1330.5,924C 1332.41,920.845 1334.24,917.678 1336,914.5C 1336.33,912.833 1336.67,911.167 1337,909.5C 1342.59,903.543 1345.76,896.543 1346.5,888.5C 1347.5,888.5 1348.5,888.5 1349.5,888.5C 1351.37,884.746 1352.7,880.746 1353.5,876.5C 1355.55,873.757 1357.89,871.257 1360.5,869C 1360.13,866.873 1360.63,864.707 1362,862.5C 1364.75,860.963 1367.08,858.963 1369,856.5C 1370.95,852.268 1372.62,847.934 1374,843.5C 1376.4,841.695 1378.07,839.362 1379,836.5C 1382.55,835.071 1384.39,832.405 1384.5,828.5C 1388.89,828.615 1391.22,826.449 1391.5,822C 1393.88,820.234 1396.55,819.068 1399.5,818.5C 1401.01,815.051 1402.01,811.384 1402.5,807.5C 1403.97,806.564 1404.97,805.23 1405.5,803.5C 1408,802.036 1410.67,800.869 1413.5,800C 1414.17,799 1414.83,798 1415.5,797C 1421.99,795.198 1427.49,791.698 1432,786.5C 1432.31,784.444 1432.81,782.444 1433.5,780.5C 1437.41,780.308 1441.41,780.141 1445.5,780C 1447.87,777.294 1450.54,774.961 1453.5,773C 1466.22,766.626 1478.88,760.959 1491.5,756C 1494.83,755.667 1498.17,755.333 1501.5,755C 1509.87,752.944 1518.54,750.777 1527.5,748.5C 1532.4,749.52 1537.07,748.853 1541.5,746.5C 1542.55,746.68 1543.55,747.013 1544.5,747.5C 1550.28,745.154 1556.28,744.487 1562.5,745.5C 1568.34,745.031 1574.01,744.365 1579.5,743.5 Z"/></g>
<g><path style="opacity:0.999" fill="#0d0b0a" d="M 1571.5,824.5 C 1578.15,825.451 1584.81,825.617 1591.5,825C 1594.84,825.453 1598.17,825.953 1601.5,826.5C 1602.99,826.709 1604.16,827.376 1605,828.5C 1607.4,827.398 1609.9,827.231 1612.5,828C 1614.68,830.012 1617.35,831.012 1620.5,831C 1630.7,837.266 1641.04,843.266 1651.5,849C 1652.77,850.307 1653.77,851.807 1654.5,853.5C 1659.43,855.573 1664.1,858.073 1668.5,861C 1670.56,862.532 1671.9,864.532 1672.5,867C 1677.39,869.186 1681.89,872.019 1686,875.5C 1686.15,878.119 1686.98,880.453 1688.5,882.5C 1692.45,884.545 1696.12,887.045 1699.5,890C 1700.89,891.171 1701.73,892.671 1702,894.5C 1704,895.833 1706,897.167 1708,898.5C 1708.31,900.556 1708.81,902.556 1709.5,904.5C 1715.84,908.511 1719.84,914.177 1721.5,921.5C 1725.41,922.739 1727.41,925.406 1727.5,929.5C 1726.98,931.524 1726.81,933.524 1727,935.5C 1730.12,940.425 1733.62,945.092 1737.5,949.5C 1737.17,950.167 1736.83,950.833 1736.5,951.5C 1737.87,958.002 1739.87,964.335 1742.5,970.5C 1741.96,971.748 1741.29,972.915 1740.5,974C 1742.51,976.854 1743.84,980.021 1744.5,983.5C 1744.31,985.58 1743.31,987.08 1741.5,988C 1746.19,992.907 1746.85,998.074 1743.5,1003.5C 1744.25,1006.9 1745.25,1010.24 1746.5,1013.5C 1742.63,1017.15 1741.96,1021.15 1744.5,1025.5C 1743.88,1028.84 1742.88,1032.01 1741.5,1035C 1742.73,1037.4 1743.73,1039.9 1744.5,1042.5C 1743.38,1045.87 1743.38,1049.2 1744.5,1052.5C 1742.6,1054.88 1742.27,1057.38 1743.5,1060C 1742.83,1060.67 1742.17,1061.33 1741.5,1062C 1742.6,1064.48 1742.1,1066.65 1740,1068.5C 1738.47,1073.72 1736.3,1078.55 1733.5,1083C 1734.55,1084.39 1734.72,1085.89 1734,1087.5C 1732.98,1089.9 1731.82,1092.23 1730.5,1094.5C 1732.3,1099.08 1731.47,1103.08 1728,1106.5C 1727.67,1108.17 1727.33,1109.83 1727,1111.5C 1725.44,1112.52 1724.28,1113.85 1723.5,1115.5C 1722.75,1120.99 1721.42,1126.33 1719.5,1131.5C 1717.67,1132.05 1716,1132.89 1714.5,1134C 1715.55,1135.39 1715.72,1136.89 1715,1138.5C 1711.59,1147.91 1707.09,1156.74 1701.5,1165C 1700.55,1165.48 1699.55,1165.65 1698.5,1165.5C 1698.78,1168.85 1697.61,1171.52 1695,1173.5C 1694.43,1178.55 1691.6,1181.55 1686.5,1182.5C 1683.74,1188.82 1679.74,1194.15 1674.5,1198.5C 1672.89,1199.32 1671.23,1199.99 1669.5,1200.5C 1667.9,1207.56 1663.57,1212.06 1656.5,1214C 1653.14,1219.59 1648.14,1222.09 1641.5,1221.5C 1641.5,1222.5 1641.5,1223.5 1641.5,1224.5C 1640.13,1224.34 1638.79,1224.51 1637.5,1225C 1634.35,1227.57 1631.68,1230.57 1629.5,1234C 1624.12,1238.68 1617.79,1241.02 1610.5,1241C 1606.92,1243.57 1603.09,1245.73 1599,1247.5C 1598.31,1246.64 1597.48,1245.98 1596.5,1245.5C 1594.84,1248.91 1592.34,1250.24 1589,1249.5C 1578.87,1253.32 1568.37,1255.49 1557.5,1256C 1555.87,1257.21 1554.04,1258.05 1552,1258.5C 1549.67,1258.65 1547.34,1257.99 1545,1256.5C 1541.99,1257.5 1538.99,1258.5 1536,1259.5C 1533.99,1256.46 1531.49,1255.46 1528.5,1256.5C 1525.7,1255.69 1522.87,1255.02 1520,1254.5C 1516.5,1255.88 1512.84,1256.88 1509,1257.5C 1506.31,1257.8 1504.31,1256.8 1503,1254.5C 1501.54,1254.99 1500.04,1255.33 1498.5,1255.5C 1492.91,1253.98 1487.25,1252.65 1481.5,1251.5C 1481.67,1250.18 1481.34,1249.01 1480.5,1248C 1476.19,1246.92 1472.86,1244.59 1470.5,1241C 1467.35,1239.4 1464.02,1238.4 1460.5,1238C 1456.05,1233.51 1450.72,1230.18 1444.5,1228C 1443.15,1225.49 1441.15,1223.65 1438.5,1222.5C 1437.75,1217.99 1434.75,1215.16 1429.5,1214C 1427.61,1212.9 1426.94,1211.57 1427.5,1210C 1426.87,1209.25 1426.37,1208.42 1426,1207.5C 1423.54,1206.35 1421.2,1205.02 1419,1203.5C 1416.22,1198.28 1412.55,1193.61 1408,1189.5C 1406.26,1183.16 1403.43,1177.33 1399.5,1172C 1399.96,1171.59 1400.29,1171.09 1400.5,1170.5C 1398.46,1168.26 1396.79,1165.76 1395.5,1163C 1395.96,1162.59 1396.29,1162.09 1396.5,1161.5C 1392.73,1153.71 1389.39,1145.71 1386.5,1137.5C 1383.53,1134.85 1382.86,1131.68 1384.5,1128C 1383.67,1127.17 1382.83,1126.33 1382,1125.5C 1381.13,1119.55 1379.46,1113.89 1377,1108.5C 1377.2,1101.37 1375.7,1094.71 1372.5,1088.5C 1373.31,1087.19 1374.31,1086.02 1375.5,1085C 1374.43,1079.94 1372.77,1074.77 1370.5,1069.5C 1371.72,1065.88 1371.39,1062.38 1369.5,1059C 1369.44,1057.29 1370.11,1055.96 1371.5,1055C 1369.34,1044.01 1369.17,1033.18 1371,1022.5C 1371.75,1021.87 1372.58,1021.37 1373.5,1021C 1372.87,1020.25 1372.37,1019.42 1372,1018.5C 1371.33,1013.5 1371.33,1008.5 1372,1003.5C 1372.75,1002.87 1373.58,1002.37 1374.5,1002C 1372.99,999.084 1373.32,996.418 1375.5,994C 1375.82,987.917 1376.99,981.75 1379,975.5C 1380.17,974.333 1381.33,973.167 1382.5,972C 1382.17,971.667 1381.83,971.333 1381.5,971C 1382.55,968.113 1384.21,965.613 1386.5,963.5C 1386.17,962.833 1385.83,962.167 1385.5,961.5C 1387.76,956.575 1389.92,951.575 1392,946.5C 1393.38,944.787 1395.04,943.453 1397,942.5C 1398.39,937.396 1400.05,932.396 1402,927.5C 1404.89,926.158 1406.22,923.825 1406,920.5C 1408.47,918.702 1410.14,916.368 1411,913.5C 1412.92,910.952 1415.26,908.952 1418,907.5C 1417.94,903.558 1419.6,900.558 1423,898.5C 1423.3,893.22 1425.63,889.22 1430,886.5C 1430.41,886.957 1430.91,887.291 1431.5,887.5C 1432.8,879.366 1437.46,874.2 1445.5,872C 1448.12,868.53 1450.45,864.863 1452.5,861C 1454.73,860.439 1456.73,859.439 1458.5,858C 1461.36,852.56 1465.36,850.56 1470.5,852C 1474.85,846.986 1479.85,842.652 1485.5,839C 1491.66,839.192 1497.33,837.692 1502.5,834.5C 1503.09,834.709 1503.59,835.043 1504,835.5C 1508.22,831.617 1513.06,830.617 1518.5,832.5C 1519.84,831.653 1520.84,830.487 1521.5,829C 1526.47,826.304 1531.13,826.47 1535.5,829.5C 1538.23,827.224 1541.23,826.89 1544.5,828.5C 1549.73,826.804 1554.9,826.471 1560,827.5C 1562.87,825.107 1565.87,825.107 1569,827.5C 1570.31,826.87 1571.14,825.87 1571.5,824.5 Z"/></g>
<g><path style="opacity:0.999" fill="#0d0b0a" d="M 991.5,828.5 C 995.255,830.516 999.255,830.849 1003.5,829.5C 1007.58,829.139 1011.25,830.139 1014.5,832.5C 1016.93,832.773 1019.09,832.44 1021,831.5C 1023.74,832.282 1026.57,832.782 1029.5,833C 1031.02,834.848 1032.85,836.348 1035,837.5C 1037.74,836.39 1040.57,836.223 1043.5,837C 1045.92,838.826 1048.26,840.826 1050.5,843C 1059.33,846.461 1067.16,851.628 1074,858.5C 1074.5,860.473 1074.66,862.473 1074.5,864.5C 1077.07,864.344 1079.57,864.678 1082,865.5C 1084.28,867.874 1086.44,870.374 1088.5,873C 1092.73,873.702 1094.9,876.202 1095,880.5C 1096.83,882.081 1098.83,883.415 1101,884.5C 1104.64,889.142 1108.3,893.809 1112,898.5C 1112.21,904.282 1114.88,908.282 1120,910.5C 1121.65,912.055 1121.98,913.721 1121,915.5C 1125.08,917.984 1127.41,921.65 1128,926.5C 1129.64,929.41 1131.64,932.077 1134,934.5C 1134.29,937.655 1134.96,940.988 1136,944.5C 1141,947.833 1143.33,952.5 1143,958.5C 1147.94,963.844 1150.11,970.01 1149.5,977C 1152.63,979.08 1154.29,982.08 1154.5,986C 1153.95,987.958 1153.62,989.958 1153.5,992C 1154.86,997.366 1155.86,1002.87 1156.5,1008.5C 1156.15,1031.6 1154.65,1054.27 1152,1076.5C 1151.36,1081.37 1149.86,1086.2 1147.5,1091C 1147.48,1092.96 1147.81,1095.13 1148.5,1097.5C 1148.56,1099.48 1147.9,1101.15 1146.5,1102.5C 1148.42,1106.84 1147.42,1110.34 1143.5,1113C 1144.78,1115.47 1144.78,1117.97 1143.5,1120.5C 1140.89,1126.66 1137.89,1132.66 1134.5,1138.5C 1136.42,1142.42 1135.42,1145.25 1131.5,1147C 1132.91,1151.1 1131.74,1154.27 1128,1156.5C 1127.59,1161.97 1126.59,1167.3 1125,1172.5C 1122.45,1178.72 1119.45,1184.72 1116,1190.5C 1114.33,1191.17 1112.67,1191.83 1111,1192.5C 1110.7,1195.91 1110.04,1199.25 1109,1202.5C 1105.82,1204.51 1103.32,1207.18 1101.5,1210.5C 1096.31,1211.17 1092.98,1214.34 1091.5,1220C 1089.17,1220.33 1086.83,1220.67 1084.5,1221C 1082.27,1223.56 1080.44,1226.4 1079,1229.5C 1077.32,1231.7 1075.32,1232.37 1073,1231.5C 1071.88,1233.62 1070.38,1235.46 1068.5,1237C 1066.43,1236.77 1064.43,1236.94 1062.5,1237.5C 1059.45,1240.71 1055.95,1243.38 1052,1245.5C 1050.56,1244.74 1049.06,1244.07 1047.5,1243.5C 1046.17,1245.5 1044.83,1247.5 1043.5,1249.5C 1040.63,1250.12 1037.8,1250.79 1035,1251.5C 1034.44,1250.98 1033.77,1250.64 1033,1250.5C 1031.73,1251.54 1030.56,1252.7 1029.5,1254C 1026.05,1255.03 1022.72,1256.36 1019.5,1258C 1010.35,1259.87 1001.18,1261.7 992,1263.5C 989.783,1262.95 987.783,1261.95 986,1260.5C 982.33,1262.21 978.496,1263.55 974.5,1264.5C 971.484,1263.22 968.317,1262.22 965,1261.5C 959.885,1265.02 954.551,1265.35 949,1262.5C 946.956,1263.77 945.122,1263.44 943.5,1261.5C 941.546,1262.85 939.379,1263.52 937,1263.5C 933.36,1261.43 929.36,1260.09 925,1259.5C 922.197,1260.76 920.03,1259.93 918.5,1257C 910.961,1255.55 903.628,1253.55 896.5,1251C 894.5,1250.33 893.167,1249 892.5,1247C 886.326,1246.12 880.993,1243.62 876.5,1239.5C 867.718,1237.86 859.385,1235.03 851.5,1231C 850.853,1229.39 850.02,1227.89 849,1226.5C 848.667,1226.83 848.333,1227.17 848,1227.5C 846.581,1226.54 845.081,1225.71 843.5,1225C 842.594,1223.3 842.261,1221.47 842.5,1219.5C 840.345,1219.63 838.345,1219.13 836.5,1218C 833.963,1215.13 831.13,1212.63 828,1210.5C 826.054,1207.86 825.054,1204.86 825,1201.5C 822.755,1196.88 819.589,1193.05 815.5,1190C 815.833,1189.67 816.167,1189.33 816.5,1189C 813.666,1186.22 812.5,1183.05 813,1179.5C 809.69,1175.59 805.857,1172.26 801.5,1169.5C 798.23,1166 797.063,1162 798,1157.5C 793.821,1152.79 791.987,1147.46 792.5,1141.5C 792.046,1138.78 791.38,1136.11 790.5,1133.5C 785.288,1131.41 783.621,1127.74 785.5,1122.5C 781.924,1119.35 779.924,1115.35 779.5,1110.5C 780.174,1108.48 781.341,1106.82 783,1105.5C 782.773,1103.43 782.939,1101.43 783.5,1099.5C 782.469,1098.3 781.635,1096.97 781,1095.5C 780.675,1091.38 779.841,1087.38 778.5,1083.5C 779.415,1074.2 780.249,1064.87 781,1055.5C 781.692,1054.97 782.192,1054.31 782.5,1053.5C 781.425,1050.56 781.259,1047.56 782,1044.5C 783.83,1041.02 785.664,1037.52 787.5,1034C 786.833,1032.67 786.167,1031.33 785.5,1030C 787.064,1025.97 788.23,1021.8 789,1017.5C 793.52,1015.61 794.686,1012.44 792.5,1008C 794.393,1003.37 795.56,998.534 796,993.5C 798.613,990.676 800.279,987.342 801,983.5C 802.085,982.707 803.252,982.04 804.5,981.5C 806.289,975.255 809.123,969.588 813,964.5C 814.799,961.368 817.299,958.868 820.5,957C 819.465,955.493 819.632,953.993 821,952.5C 824.333,947.833 827.667,943.167 831,938.5C 835.768,934.349 840.101,929.683 844,924.5C 844.882,919.187 846.549,914.187 849,909.5C 850.444,907.845 852.278,907.178 854.5,907.5C 854.662,904.331 856.328,902.331 859.5,901.5C 860.67,895.988 864.003,893.655 869.5,894.5C 869.238,893.022 869.571,891.689 870.5,890.5C 874.403,887.053 878.07,883.386 881.5,879.5C 885.802,878.585 889.135,876.251 891.5,872.5C 894.107,871.682 896.774,871.182 899.5,871C 900.67,869.245 902.337,868.245 904.5,868C 905.861,866.416 906.528,864.582 906.5,862.5C 909.89,861.977 913.223,861.143 916.5,860C 922.482,855.681 928.149,851.014 933.5,846C 935.769,846.374 938.102,846.374 940.5,846C 944.236,844.106 947.569,841.606 950.5,838.5C 951.167,838.833 951.833,839.167 952.5,839.5C 954.776,838.787 957.109,838.287 959.5,838C 962.047,837.448 964.047,836.114 965.5,834C 967.441,833.257 969.274,833.424 971,834.5C 972.154,833.257 973.488,832.257 975,831.5C 977.456,831.377 979.956,831.377 982.5,831.5C 985.732,830.867 988.732,829.867 991.5,828.5 Z"/></g>
<g><path style="opacity:1" fill="#fefefe" d="M 994.5,1064.5 C 1000.52,1064.45 1005.85,1066.28 1010.5,1070C 1015.68,1069.37 1018.68,1071.53 1019.5,1076.5C 1028.33,1078.83 1033.49,1084.49 1035,1093.5C 1036.96,1094.45 1038.62,1095.79 1040,1097.5C 1040.61,1100.71 1041.77,1103.71 1043.5,1106.5C 1042.92,1108.11 1042.59,1109.77 1042.5,1111.5C 1044.48,1117.44 1045.15,1123.44 1044.5,1129.5C 1044.71,1132.01 1044.05,1134.18 1042.5,1136C 1043.68,1139.61 1043.68,1143.27 1042.5,1147C 1044.14,1150.35 1044.64,1153.85 1044,1157.5C 1041.92,1161.15 1040.92,1165.15 1041,1169.5C 1040.53,1170.93 1039.7,1172.1 1038.5,1173C 1038.83,1173.33 1039.17,1173.67 1039.5,1174C 1038.53,1178.44 1036.86,1182.61 1034.5,1186.5C 1031.43,1187.91 1029.43,1190.24 1028.5,1193.5C 1027.17,1194.17 1025.83,1194.83 1024.5,1195.5C 1024.27,1200.97 1021.77,1204.97 1017,1207.5C 1015.23,1211.84 1012.07,1214.68 1007.5,1216C 1005.07,1219.65 1001.57,1221.48 997,1221.5C 992.682,1226.88 987.182,1229.21 980.5,1228.5C 976.352,1230.29 972.019,1230.45 967.5,1229C 963.36,1228.43 960.027,1226.43 957.5,1223C 952.579,1221.56 947.579,1220.23 942.5,1219C 941.232,1215.85 938.898,1213.85 935.5,1213C 934.107,1211.83 933.273,1210.33 933,1208.5C 931.414,1207.62 929.914,1206.62 928.5,1205.5C 928.054,1202.36 926.721,1199.69 924.5,1197.5C 920.029,1196.2 917.029,1193.36 915.5,1189C 917.182,1187.1 917.682,1184.94 917,1182.5C 911.865,1179.2 909.032,1174.54 908.5,1168.5C 908.686,1166.42 909.686,1164.92 911.5,1164C 908.901,1159.93 908.901,1155.93 911.5,1152C 910.299,1151.1 909.465,1149.93 909,1148.5C 908.79,1144.22 908.623,1140.05 908.5,1136C 910.699,1129.3 912.533,1122.47 914,1115.5C 914.71,1114.03 915.876,1113.36 917.5,1113.5C 918.362,1107.07 920.862,1101.4 925,1096.5C 927.322,1094.89 929.822,1093.55 932.5,1092.5C 933.123,1089.83 934.123,1087.33 935.5,1085C 937.473,1084.5 939.473,1084.34 941.5,1084.5C 941.281,1083.32 941.614,1082.32 942.5,1081.5C 946.644,1081.05 950.311,1079.55 953.5,1077C 956.146,1076.5 958.813,1076.34 961.5,1076.5C 961.774,1069.6 965.274,1067.27 972,1069.5C 979.49,1066.58 986.99,1064.91 994.5,1064.5 Z"/></g>
<g><path style="opacity:1" fill="#fefefe" d="M 1571.5,1075.5 C 1575.08,1076.81 1578.75,1077.98 1582.5,1079C 1583.07,1080.21 1583.74,1081.37 1584.5,1082.5C 1588.9,1082.27 1592.74,1083.94 1596,1087.5C 1597.93,1091.43 1600.6,1094.76 1604,1097.5C 1603.79,1100.81 1603.79,1104.14 1604,1107.5C 1605.67,1110.5 1608,1112.83 1611,1114.5C 1612.1,1118.18 1613.27,1121.84 1614.5,1125.5C 1614.01,1126.45 1613.68,1127.45 1613.5,1128.5C 1614.88,1130.98 1615.88,1133.64 1616.5,1136.5C 1615.46,1138.79 1615.46,1141.12 1616.5,1143.5C 1616.85,1145.92 1615.85,1147.42 1613.5,1148C 1616.52,1151.21 1617.02,1154.71 1615,1158.5C 1613.27,1160.61 1611.43,1162.61 1609.5,1164.5C 1610.57,1167.44 1610.74,1170.44 1610,1173.5C 1606.97,1177.57 1605.31,1182.23 1605,1187.5C 1603.56,1189.16 1601.72,1189.82 1599.5,1189.5C 1601.17,1199.31 1598.17,1207.48 1590.5,1214C 1584.89,1214.28 1580.89,1216.95 1578.5,1222C 1576.83,1222.83 1575.17,1223.67 1573.5,1224.5C 1570.3,1223.08 1566.97,1222.08 1563.5,1221.5C 1562.35,1222.14 1561.35,1222.98 1560.5,1224C 1556.75,1224.46 1553.25,1225.63 1550,1227.5C 1546.41,1226.08 1542.91,1224.42 1539.5,1222.5C 1538.55,1222.99 1537.55,1223.32 1536.5,1223.5C 1533.73,1221.83 1530.73,1220.66 1527.5,1220C 1524.79,1219.13 1523.45,1217.29 1523.5,1214.5C 1516.92,1214.42 1514.09,1211.09 1515,1204.5C 1507.73,1198.97 1503.23,1191.63 1501.5,1182.5C 1502.42,1177.63 1502.08,1172.8 1500.5,1168C 1500.35,1165.97 1501.02,1164.3 1502.5,1163C 1501.44,1161.15 1500.77,1159.15 1500.5,1157C 1502.08,1152.72 1502.92,1148.22 1503,1143.5C 1503.67,1142.83 1504.33,1142.17 1505,1141.5C 1506.39,1135.25 1508.39,1129.25 1511,1123.5C 1510.12,1114.57 1513.79,1108.57 1522,1105.5C 1521.05,1099.91 1523.22,1096.58 1528.5,1095.5C 1529.51,1090.3 1532.51,1088.14 1537.5,1089C 1540.93,1086.49 1544.26,1083.82 1547.5,1081C 1552.04,1080.93 1556.2,1079.76 1560,1077.5C 1564.34,1079.2 1568.17,1078.53 1571.5,1075.5 Z"/></g>
</svg>
