<?xml version="1.0" encoding="UTF-8"?>
<!DOCTYPE svg PUBLIC "-//W3C//DTD SVG 1.1//EN" "http://www.w3.org/Graphics/SVG/1.1/DTD/svg11.dtd">
<svg xmlns="http://www.w3.org/2000/svg" version="1.1" width="2048px" height="2048px" style="shape-rendering:geometricPrecision; text-rendering:geometricPrecision; image-rendering:optimizeQuality; fill-rule:evenodd; clip-rule:evenodd" xmlns:xlink="http://www.w3.org/1999/xlink">
<g><path style="opacity:0.997" fill="#0c0a09" d="M 1016.5,171.5 C 1021.83,170.979 1026.83,171.979 1031.5,174.5C 1033.42,173.331 1035.42,172.331 1037.5,171.5C 1044.99,174.246 1052.49,176.913 1060,179.5C 1063.69,178.014 1067.35,177.347 1071,177.5C 1073.37,178.717 1075.87,179.551 1078.5,180C 1083.66,183.177 1088.99,186.177 1094.5,189C 1095.55,191.382 1096.22,193.882 1096.5,196.5C 1108.9,198.485 1117.9,204.985 1123.5,216C 1127.12,217.156 1130.79,218.156 1134.5,219C 1138.15,222.34 1141.98,225.506 1146,228.5C 1146.48,229.448 1146.65,230.448 1146.5,231.5C 1155.23,233.893 1161.57,239.226 1165.5,247.5C 1173.5,250.338 1179,255.672 1182,263.5C 1183.82,264.329 1185.65,265.163 1187.5,266C 1190.05,269.39 1193.05,272.223 1196.5,274.5C 1198.02,278.297 1199.69,281.964 1201.5,285.5C 1204.42,286.442 1207.09,287.776 1209.5,289.5C 1212.06,293.609 1214.39,297.942 1216.5,302.5C 1224.67,307.264 1231.67,313.431 1237.5,321C 1248.43,325.01 1254.43,332.844 1255.5,344.5C 1261.88,347.384 1267.21,351.551 1271.5,357C 1277.14,358.139 1281.14,361.305 1283.5,366.5C 1287.47,368.804 1290.47,371.971 1292.5,376C 1291.41,378.064 1291.24,380.231 1292,382.5C 1295.87,383.787 1299.54,385.453 1303,387.5C 1307.93,393.686 1312.09,400.352 1315.5,407.5C 1321.38,408.463 1326.71,410.629 1331.5,414C 1333.56,416.511 1335.06,419.344 1336,422.5C 1340.33,426.167 1344.67,429.833 1349,433.5C 1349.77,428.638 1349.6,423.638 1348.5,418.5C 1348.29,415.989 1348.95,413.822 1350.5,412C 1348.69,409.209 1348.69,406.209 1350.5,403C 1347.52,399.581 1346.85,395.748 1348.5,391.5C 1349.5,391.5 1350.5,391.5 1351.5,391.5C 1350.51,387.512 1349.51,383.512 1348.5,379.5C 1349.23,377.124 1350.56,375.124 1352.5,373.5C 1349.45,370.073 1348.12,366.073 1348.5,361.5C 1350.94,361.881 1351.61,361.214 1350.5,359.5C 1352.32,355.644 1352.32,351.644 1350.5,347.5C 1351.18,342.215 1351.18,337.048 1350.5,332C 1352.06,327.359 1353.73,322.692 1355.5,318C 1354.76,316.215 1354.09,314.382 1353.5,312.5C 1354.47,309.566 1355.8,306.9 1357.5,304.5C 1357.18,298.303 1359.34,293.303 1364,289.5C 1364.33,288.167 1364.67,286.833 1365,285.5C 1368.72,282.307 1372.89,279.64 1377.5,277.5C 1381.51,278.516 1385.17,277.683 1388.5,275C 1395.64,273.076 1402.64,273.576 1409.5,276.5C 1414.35,276.444 1419.02,275.11 1423.5,272.5C 1426.08,273.732 1428.58,274.399 1431,274.5C 1432.92,272.791 1435.08,271.457 1437.5,270.5C 1440.9,271.411 1444.06,271.411 1447,270.5C 1450.42,271.182 1453.75,272.182 1457,273.5C 1466.61,273.231 1476.61,272.565 1487,271.5C 1489.5,272.383 1492,272.05 1494.5,270.5C 1495.69,270.756 1496.86,271.089 1498,271.5C 1500.17,270.25 1502.5,269.584 1505,269.5C 1508.13,270.315 1511.3,270.982 1514.5,271.5C 1518.08,270.531 1521.58,270.531 1525,271.5C 1529.21,269.148 1533.71,267.482 1538.5,266.5C 1541.79,266.279 1544.29,267.613 1546,270.5C 1547.59,268.192 1549.59,267.525 1552,268.5C 1553.74,267.106 1555.74,266.439 1558,266.5C 1564.34,268.173 1570.68,269.84 1577,271.5C 1585.68,269.255 1594.35,269.588 1603,272.5C 1609.65,269.873 1614.65,271.54 1618,277.5C 1632.67,276.221 1645.84,280.387 1657.5,290C 1659.47,290.495 1661.47,290.662 1663.5,290.5C 1663.93,293.285 1665.27,295.619 1667.5,297.5C 1673.4,298.255 1676.56,301.922 1677,308.5C 1682.6,314.666 1685.6,321.666 1686,329.5C 1688.69,330.822 1689.19,332.655 1687.5,335C 1689.79,339.614 1690.46,344.447 1689.5,349.5C 1689.72,351.055 1690.39,352.389 1691.5,353.5C 1691.11,362.982 1691.11,372.649 1691.5,382.5C 1691.05,385.889 1690.38,389.223 1689.5,392.5C 1690.92,398.451 1691.92,404.284 1692.5,410C 1692.63,411.942 1692.29,413.942 1691.5,416C 1692.39,418.562 1693.72,420.896 1695.5,423C 1693.35,427.626 1694.02,431.96 1697.5,436C 1696.87,441.627 1696.87,447.127 1697.5,452.5C 1696.12,455.859 1694.78,459.193 1693.5,462.5C 1693.79,464.486 1694.45,466.32 1695.5,468C 1693.97,470.899 1692.3,473.733 1690.5,476.5C 1691.64,482.062 1693.64,487.229 1696.5,492C 1693.94,495.928 1692.27,500.261 1691.5,505C 1692.79,507.801 1692.79,510.634 1691.5,513.5C 1692.12,515.754 1693.46,517.421 1695.5,518.5C 1696.08,520.106 1696.41,521.772 1696.5,523.5C 1695.28,526.485 1693.95,529.485 1692.5,532.5C 1694.07,537.834 1693.4,542.834 1690.5,547.5C 1691.83,549.167 1691.83,550.833 1690.5,552.5C 1694.65,556.232 1696.99,560.899 1697.5,566.5C 1697.04,570.264 1695.04,572.764 1691.5,574C 1693,576.167 1694.83,578 1697,579.5C 1697.98,581.366 1698.48,583.366 1698.5,585.5C 1698.2,590.421 1698.04,595.421 1698,600.5C 1697.31,601.025 1696.81,601.692 1696.5,602.5C 1697.59,605.773 1697.75,609.106 1697,612.5C 1696.08,613.047 1695.24,613.713 1694.5,614.5C 1697.09,616.761 1697.09,618.928 1694.5,621C 1697.93,625.556 1699.1,630.723 1698,636.5C 1694.96,639.037 1692.46,642.037 1690.5,645.5C 1692.37,650.308 1694.53,654.975 1697,659.5C 1696.87,668.037 1697.87,676.37 1700,684.5C 1702.38,686.385 1704.22,688.718 1705.5,691.5C 1710.98,694.114 1714.32,698.447 1715.5,704.5C 1717.86,706.402 1720.53,707.735 1723.5,708.5C 1726.56,712.904 1729.22,717.571 1731.5,722.5C 1734.33,724.633 1737.49,725.966 1741,726.5C 1741.43,733.205 1744.43,738.205 1750,741.5C 1750.92,748.443 1754.58,750.776 1761,748.5C 1761.48,749.448 1761.65,750.448 1761.5,751.5C 1765.85,753.969 1770.85,756.303 1776.5,758.5C 1776.46,760.359 1777.29,761.692 1779,762.5C 1779.5,764.473 1779.66,766.473 1779.5,768.5C 1782.57,768.873 1785.57,769.539 1788.5,770.5C 1789.17,774.5 1789.83,778.5 1790.5,782.5C 1792.81,782.986 1794.97,782.986 1797,782.5C 1798.57,786.4 1801.4,788.9 1805.5,790C 1806.82,792.897 1808.65,795.397 1811,797.5C 1811.33,801.167 1811.67,804.833 1812,808.5C 1812.69,809.025 1813.19,809.692 1813.5,810.5C 1815.47,811.331 1817.47,811.498 1819.5,811C 1821.5,812.423 1823,814.256 1824,816.5C 1825.39,815.446 1826.89,815.28 1828.5,816C 1831.32,818.141 1832.65,820.975 1832.5,824.5C 1834.2,824.966 1835.7,824.966 1837,824.5C 1840.09,825.923 1842.09,828.257 1843,831.5C 1845.09,830.5 1846.76,831.167 1848,833.5C 1848.33,834.833 1848.67,836.167 1849,837.5C 1852.53,840.002 1856.03,842.502 1859.5,845C 1862.36,847.229 1864.36,850.063 1865.5,853.5C 1867.92,854.457 1870.08,855.791 1872,857.5C 1873.19,863.937 1876.52,868.937 1882,872.5C 1881.79,876.791 1883.13,880.458 1886,883.5C 1887.73,887.597 1888.73,891.931 1889,896.5C 1889.91,897.328 1890.58,898.328 1891,899.5C 1891.74,904.614 1892.91,909.614 1894.5,914.5C 1893.96,915.748 1893.29,916.915 1892.5,918C 1896.09,922.197 1896.09,926.197 1892.5,930C 1893.59,932.064 1893.76,934.231 1893,936.5C 1890.87,941.207 1888.53,945.874 1886,950.5C 1884.25,951.627 1882.41,952.627 1880.5,953.5C 1880.01,959.818 1877.01,964.485 1871.5,967.5C 1872.03,968.192 1872.69,968.692 1873.5,969C 1871.28,972.721 1868.28,975.554 1864.5,977.5C 1863.08,980.009 1861.41,982.343 1859.5,984.5C 1854.42,986.772 1849.75,989.606 1845.5,993C 1836.42,995.807 1827.75,999.473 1819.5,1004C 1812.38,1005.07 1805.38,1006.57 1798.5,1008.5C 1794.8,1011.02 1790.8,1013.02 1786.5,1014.5C 1785.55,1014.01 1784.55,1013.68 1783.5,1013.5C 1774.04,1015.88 1764.54,1018.21 1755,1020.5C 1750.85,1019.97 1747.01,1018.64 1743.5,1016.5C 1741.7,1018.59 1739.36,1019.76 1736.5,1020C 1731.13,1020.74 1725.8,1020.57 1720.5,1019.5C 1716.83,1020.33 1713.83,1022.16 1711.5,1025C 1706.17,1025.67 1700.83,1025.67 1695.5,1025C 1694.07,1024.53 1692.9,1023.7 1692,1022.5C 1684.26,1027.56 1676.09,1028.56 1667.5,1025.5C 1662.82,1027.67 1657.98,1028 1653,1026.5C 1649.1,1029.4 1644.77,1029.73 1640,1027.5C 1639.23,1027.64 1638.56,1027.98 1638,1028.5C 1638.12,1031.92 1636.79,1034.59 1634,1036.5C 1633.67,1036.17 1633.33,1035.83 1633,1035.5C 1633.29,1039.77 1631.45,1042.6 1627.5,1044C 1627.96,1047.34 1628.96,1050.51 1630.5,1053.5C 1629.4,1055.39 1628.06,1057.06 1626.5,1058.5C 1623.99,1062.8 1623.99,1067.14 1626.5,1071.5C 1625.87,1073.26 1624.87,1074.76 1623.5,1076C 1628.3,1083.59 1627.3,1090.26 1620.5,1096C 1622.69,1098.54 1624.53,1101.37 1626,1104.5C 1626.23,1107.09 1626.73,1109.59 1627.5,1112C 1627.36,1116.42 1627.36,1120.76 1627.5,1125C 1626.83,1126.33 1625.83,1127.33 1624.5,1128C 1625.64,1128.74 1625.64,1129.57 1624.5,1130.5C 1627.41,1134.15 1629.08,1138.32 1629.5,1143C 1628.64,1145.05 1627.31,1146.72 1625.5,1148C 1630.38,1154.89 1631.55,1162.39 1629,1170.5C 1626.9,1171.92 1624.73,1173.26 1622.5,1174.5C 1625.59,1176.81 1627.76,1179.81 1629,1183.5C 1628.46,1186.67 1628.63,1189.67 1629.5,1192.5C 1627.81,1195.19 1625.47,1197.19 1622.5,1198.5C 1623.1,1199.79 1623.6,1201.13 1624,1202.5C 1629.61,1205.89 1632.11,1210.89 1631.5,1217.5C 1631.8,1228.13 1631.8,1238.8 1631.5,1249.5C 1629.23,1250.44 1627.23,1251.77 1625.5,1253.5C 1629.6,1258.08 1632.6,1263.25 1634.5,1269C 1634.29,1270.37 1633.96,1271.7 1633.5,1273C 1632,1274.33 1630.67,1275.83 1629.5,1277.5C 1632.61,1283.76 1632.94,1290.09 1630.5,1296.5C 1635.03,1303.23 1635.7,1310.4 1632.5,1318C 1632.63,1319.98 1633.3,1321.65 1634.5,1323C 1633.38,1323.84 1632.71,1325.01 1632.5,1326.5C 1634.32,1332.38 1634.82,1338.38 1634,1344.5C 1632.21,1345.78 1631.05,1347.44 1630.5,1349.5C 1631.89,1354.61 1633.56,1359.61 1635.5,1364.5C 1635.26,1367.57 1633.93,1370.07 1631.5,1372C 1636.25,1376.58 1638.91,1382.25 1639.5,1389C 1638.27,1395.53 1638.27,1402.03 1639.5,1408.5C 1636.89,1413.51 1637.22,1418.34 1640.5,1423C 1639.98,1426.81 1638.98,1430.47 1637.5,1434C 1638.53,1438.16 1637.53,1441.83 1634.5,1445C 1634.35,1452.29 1635.01,1459.63 1636.5,1467C 1635.97,1468.56 1635.3,1470.06 1634.5,1471.5C 1636.6,1478.54 1638.27,1485.71 1639.5,1493C 1638.29,1499.34 1637.29,1505.67 1636.5,1512C 1637.98,1519.71 1637.31,1527.21 1634.5,1534.5C 1637.13,1540.33 1637.13,1546.17 1634.5,1552C 1634.83,1553.67 1635.17,1555.33 1635.5,1557C 1633.66,1563.67 1631.33,1570.17 1628.5,1576.5C 1629.14,1579.11 1630.3,1581.44 1632,1583.5C 1632.67,1587.17 1632.67,1590.83 1632,1594.5C 1629.57,1597.39 1626.9,1600.05 1624,1602.5C 1620.28,1607.41 1621.12,1611.41 1626.5,1614.5C 1632.77,1625.39 1631.77,1635.39 1623.5,1644.5C 1624.25,1644.74 1625.08,1645.07 1626,1645.5C 1626.67,1646.83 1627.33,1648.17 1628,1649.5C 1629.43,1657.12 1629.76,1664.79 1629,1672.5C 1627.5,1674.67 1626,1676.83 1624.5,1679C 1625.56,1680.85 1626.23,1682.85 1626.5,1685C 1625.84,1689.14 1625.34,1693.31 1625,1697.5C 1621.21,1705.61 1617.38,1713.78 1613.5,1722C 1615.59,1726.04 1616.25,1730.21 1615.5,1734.5C 1618.3,1739.61 1618.13,1744.61 1615,1749.5C 1612.52,1751.15 1610.68,1753.31 1609.5,1756C 1613.92,1763.2 1615.42,1771.03 1614,1779.5C 1612.35,1781.66 1610.19,1783 1607.5,1783.5C 1607.16,1789.68 1605.16,1795.18 1601.5,1800C 1595.45,1799.75 1591.95,1802.59 1591,1808.5C 1586.22,1813.13 1581.39,1817.63 1576.5,1822C 1571.88,1821.73 1567.88,1823.06 1564.5,1826C 1557.49,1826.51 1551.49,1829.17 1546.5,1834C 1543.77,1834.73 1541.1,1834.56 1538.5,1833.5C 1534.9,1836.59 1530.9,1839.09 1526.5,1841C 1522.83,1841.33 1519.17,1841.67 1515.5,1842C 1511.63,1845.4 1507.96,1845.06 1504.5,1841C 1499.43,1840.25 1494.43,1840.58 1489.5,1842C 1484.79,1844.6 1479.79,1846.43 1474.5,1847.5C 1473.11,1847.38 1471.77,1847.05 1470.5,1846.5C 1464.61,1848.97 1458.77,1848.97 1453,1846.5C 1447.96,1848.03 1442.79,1848.53 1437.5,1848C 1436.26,1845.76 1434.43,1844.26 1432,1843.5C 1429.82,1844.76 1427.65,1844.76 1425.5,1843.5C 1420.54,1845.64 1415.54,1847.81 1410.5,1850C 1402.39,1848.9 1394.22,1848.4 1386,1848.5C 1380.7,1850.32 1375.2,1851.65 1369.5,1852.5C 1364.66,1851.83 1361.49,1849.16 1360,1844.5C 1357.14,1847.02 1353.97,1849.18 1350.5,1851C 1344.85,1851.96 1339.18,1852.8 1333.5,1853.5C 1329.58,1854.04 1325.74,1853.38 1322,1851.5C 1318.7,1852.33 1315.36,1852.99 1312,1853.5C 1309.1,1853.47 1306.6,1852.47 1304.5,1850.5C 1299.25,1851.65 1294.41,1850.65 1290,1847.5C 1283.19,1851.87 1275.86,1853.2 1268,1851.5C 1263.17,1853.29 1258.34,1853.46 1253.5,1852C 1250.92,1851.22 1248.92,1849.72 1247.5,1847.5C 1242.04,1850.99 1236.2,1852.33 1230,1851.5C 1226.09,1852.19 1222.26,1853.19 1218.5,1854.5C 1213.82,1852.84 1209.32,1853.18 1205,1855.5C 1202.6,1853.83 1200.27,1852.16 1198,1850.5C 1197,1851.83 1196,1851.83 1195,1850.5C 1184.85,1852.01 1174.51,1853.67 1164,1855.5C 1160.64,1854.15 1157.81,1851.99 1155.5,1849C 1154,1848.83 1152.5,1848.67 1151,1848.5C 1142.78,1849.01 1134.61,1849.01 1126.5,1848.5C 1124.34,1849.5 1122.17,1850.5 1120,1851.5C 1117.55,1850.36 1115.05,1849.36 1112.5,1848.5C 1108.16,1850.24 1103.66,1851.58 1099,1852.5C 1097.83,1852.33 1096.67,1852.17 1095.5,1852C 1093.49,1850.29 1091.49,1848.62 1089.5,1847C 1086.51,1846.67 1083.68,1845.84 1081,1844.5C 1075.15,1850.1 1068.48,1851.43 1061,1848.5C 1058.23,1850.76 1055.06,1852.26 1051.5,1853C 1044.83,1852.43 1038.16,1852.6 1031.5,1853.5C 1024.55,1850.17 1017.55,1846.83 1010.5,1843.5C 1008.19,1844.9 1006.19,1846.73 1004.5,1849C 1000.41,1849.95 996.577,1849.45 993,1847.5C 987.414,1849.69 981.914,1849.69 976.5,1847.5C 972.855,1848.76 969.189,1848.76 965.5,1847.5C 954.531,1852.65 943.198,1853.98 931.5,1851.5C 924.259,1854.23 917.425,1853.56 911,1849.5C 909.108,1849.78 907.775,1850.78 907,1852.5C 906.586,1852.04 906.086,1851.71 905.5,1851.5C 904.059,1852.3 902.559,1852.97 901,1853.5C 898.163,1853.01 895.163,1853.01 892,1853.5C 887.146,1853.21 882.312,1852.71 877.5,1852C 874.703,1850.77 872.037,1849.27 869.5,1847.5C 867.783,1848.72 865.95,1849.72 864,1850.5C 860.775,1850.66 857.442,1850.33 854,1849.5C 851.886,1851.01 849.719,1851.35 847.5,1850.5C 843.534,1851.09 839.867,1852.42 836.5,1854.5C 833.859,1853.29 831.193,1853.29 828.5,1854.5C 824.685,1853.68 821.685,1851.68 819.5,1848.5C 815.117,1852.54 810.117,1854.54 804.5,1854.5C 802.813,1854.24 801.313,1853.57 800,1852.5C 799.586,1852.96 799.086,1853.29 798.5,1853.5C 795.35,1851.71 792.017,1850.37 788.5,1849.5C 785.946,1851.49 783.279,1852.16 780.5,1851.5C 773.839,1853.17 767.172,1854.83 760.5,1856.5C 755.025,1856.01 750.191,1854.01 746,1850.5C 743.749,1852.36 741.082,1853.36 738,1853.5C 733.918,1853.27 729.751,1853.1 725.5,1853C 723.957,1851.29 722.29,1849.79 720.5,1848.5C 718.5,1849.83 716.5,1851.17 714.5,1852.5C 712.36,1851.89 710.193,1852.23 708,1853.5C 705.316,1853.73 702.649,1853.07 700,1851.5C 696.313,1853.06 692.813,1852.73 689.5,1850.5C 684.232,1852.98 679.565,1851.98 675.5,1847.5C 674.914,1847.71 674.414,1848.04 674,1848.5C 671.208,1846.61 668.041,1845.61 664.5,1845.5C 664.719,1844.32 664.386,1843.32 663.5,1842.5C 660.423,1844.79 657.09,1845.12 653.5,1843.5C 649.291,1844.96 644.958,1845.96 640.5,1846.5C 632.275,1843.86 623.942,1841.69 615.5,1840C 614.671,1838.18 613.837,1836.35 613,1834.5C 609.509,1837.69 605.343,1839.36 600.5,1839.5C 596.892,1836.94 593.726,1833.94 591,1830.5C 588,1831.83 585,1831.83 582,1830.5C 577.135,1832.84 571.968,1833.84 566.5,1833.5C 566.5,1832.5 566.5,1831.5 566.5,1830.5C 560.075,1831.08 556.741,1828.08 556.5,1821.5C 553.159,1821.34 550.326,1820.01 548,1817.5C 538.542,1820.89 529.375,1819.72 520.5,1814C 520.833,1813.67 521.167,1813.33 521.5,1813C 519.984,1811.1 519.317,1808.94 519.5,1806.5C 509.892,1806.84 501.558,1803.68 494.5,1797C 488.553,1797.03 483.886,1794.7 480.5,1790C 474.898,1789.38 471.064,1786.55 469,1781.5C 468.535,1777.15 468.035,1772.82 467.5,1768.5C 464.234,1768.37 461.234,1767.37 458.5,1765.5C 456.947,1760.99 456.114,1756.32 456,1751.5C 453.429,1750.6 451.096,1749.27 449,1747.5C 446.058,1741.43 444.391,1735.1 444,1728.5C 445.255,1727.79 446.421,1726.96 447.5,1726C 447.072,1723.37 446.072,1721.04 444.5,1719C 444.957,1718.59 445.291,1718.09 445.5,1717.5C 443.819,1714.07 441.319,1711.41 438,1709.5C 437.362,1708.39 436.862,1707.22 436.5,1706C 437.723,1702.5 437.723,1699 436.5,1695.5C 434.663,1694.16 432.997,1692.66 431.5,1691C 428.704,1686.69 426.704,1682.36 425.5,1678C 427.068,1673.58 428.735,1669.25 430.5,1665C 430.104,1663.1 429.104,1661.6 427.5,1660.5C 428.959,1654.81 431.292,1649.47 434.5,1644.5C 433.289,1643.28 433.289,1642.11 434.5,1641C 430.549,1636.29 428.715,1630.79 429,1624.5C 424.857,1621.08 423.524,1616.75 425,1611.5C 426.37,1608.95 427.537,1606.28 428.5,1603.5C 426.661,1600.25 424.328,1597.42 421.5,1595C 421.833,1594.67 422.167,1594.33 422.5,1594C 418.898,1587.88 418.065,1581.38 420,1574.5C 423.134,1571.4 425.634,1567.9 427.5,1564C 424.019,1559.9 422.519,1555.06 423,1549.5C 421.383,1548.46 421.216,1547.3 422.5,1546C 420.557,1543.35 418.891,1540.52 417.5,1537.5C 417.986,1532.08 418.153,1526.41 418,1520.5C 419.512,1519.74 420.846,1518.74 422,1517.5C 422.771,1512.45 424.271,1507.62 426.5,1503C 424.162,1500.78 422.328,1498.28 421,1495.5C 420.171,1490.47 420.338,1485.47 421.5,1480.5C 422.881,1480 423.547,1479 423.5,1477.5C 422.238,1474.73 420.738,1472.06 419,1469.5C 418.667,1466.17 418.333,1462.83 418,1459.5C 411.991,1450.54 413.491,1443.37 422.5,1438C 419.099,1432.68 416.599,1426.85 415,1420.5C 414.356,1416.86 414.856,1413.36 416.5,1410C 413.541,1404.65 413.041,1399.15 415,1393.5C 416.685,1391.98 418.185,1390.32 419.5,1388.5C 418.098,1387.16 418.431,1386.32 420.5,1386C 418.185,1384.89 416.685,1383.06 416,1380.5C 411.776,1371.67 413.443,1364.34 421,1358.5C 421.422,1356.64 421.922,1354.81 422.5,1353C 420.704,1350.37 418.704,1347.87 416.5,1345.5C 414.135,1341.79 413.302,1337.79 414,1333.5C 418.145,1330.78 418.311,1327.61 414.5,1324C 418.514,1318.53 419.181,1312.53 416.5,1306C 417.456,1303.12 418.789,1300.46 420.5,1298C 419.066,1289.95 417.4,1281.61 415.5,1273C 415.906,1268.72 417.24,1264.38 419.5,1260C 417.486,1256.46 416.152,1252.63 415.5,1248.5C 416.067,1245.65 417.734,1243.81 420.5,1243C 418.987,1239.57 419.653,1236.57 422.5,1234C 420.855,1229.95 419.522,1225.79 418.5,1221.5C 420.062,1218.59 421.062,1215.76 421.5,1213C 418.611,1208.5 419.277,1204.5 423.5,1201C 421.867,1194.9 420.2,1188.73 418.5,1182.5C 419.167,1180.5 419.833,1178.5 420.5,1176.5C 419.48,1169.84 418.813,1163.34 418.5,1157C 418.354,1154.97 419.02,1153.3 420.5,1152C 418.966,1148.4 417.633,1144.73 416.5,1141C 418.278,1138.78 418.445,1136.61 417,1134.5C 416.786,1129.11 416.286,1123.78 415.5,1118.5C 416.818,1114.41 416.484,1110.41 414.5,1106.5C 415.191,1103.65 416.525,1101.15 418.5,1099C 415.208,1095.39 414.874,1091.55 417.5,1087.5C 414.325,1080.17 414.159,1072.83 417,1065.5C 419.087,1064.21 421.254,1063.04 423.5,1062C 419.233,1055.63 415.899,1048.8 413.5,1041.5C 415.039,1038.51 416.039,1035.34 416.5,1032C 412.506,1027.29 411.506,1022.29 413.5,1017C 409.739,1011.81 408.739,1006.14 410.5,1000C 405.822,998.48 401.489,996.314 397.5,993.5C 389.637,996.587 381.637,997.087 373.5,995C 371.263,992.97 369.763,990.47 369,987.5C 365.337,991.264 361.004,992.264 356,990.5C 352.71,992.032 349.376,992.365 346,991.5C 342.478,992.923 338.811,993.923 335,994.5C 331.153,993.201 327.32,993.201 323.5,994.5C 313.78,991.454 303.946,991.454 294,994.5C 290.255,993.703 286.421,993.203 282.5,993C 281.601,991.764 280.434,990.93 279,990.5C 273.228,992.14 267.395,991.806 261.5,989.5C 258.033,979.631 251.533,976.631 242,980.5C 233.545,982.147 229.045,978.813 228.5,970.5C 226.319,970.716 224.653,969.883 223.5,968C 212.851,968.352 205.518,963.685 201.5,954C 196.069,950.243 190.902,946.076 186,941.5C 184.25,938.754 183.25,935.754 183,932.5C 181.277,930.208 179.444,928.042 177.5,926C 176.167,923.333 176.167,920.667 177.5,918C 175.133,913.764 173.466,909.264 172.5,904.5C 173.942,899.561 175.108,894.561 176,889.5C 178.952,886.905 179.285,884.572 177,882.5C 174.795,875.645 175.129,868.979 178,862.5C 179.798,860.028 182.132,858.361 185,857.5C 187.827,852.685 189.66,847.518 190.5,842C 191.653,840.346 192.987,838.846 194.5,837.5C 199.319,836.133 203.985,834.466 208.5,832.5C 209.23,829.891 209.73,827.224 210,824.5C 213.213,820.567 215.88,816.234 218,811.5C 221.117,807.674 224.95,806.34 229.5,807.5C 229.351,806.448 229.517,805.448 230,804.5C 232.087,803.206 234.254,802.039 236.5,801C 237.167,799.667 237.833,798.333 238.5,797C 241.77,796.005 245.103,795.172 248.5,794.5C 249.333,792.833 250.167,791.167 251,789.5C 255.801,788.272 258.801,785.272 260,780.5C 263.156,778.343 265.989,775.843 268.5,773C 272.662,772.474 276.662,771.474 280.5,770C 282.637,765.549 285.137,761.382 288,757.5C 291.282,756.223 294.449,754.723 297.5,753C 300.373,749.423 302.873,745.589 305,741.5C 306.734,739.549 308.901,738.549 311.5,738.5C 310.736,732.346 313.236,728.346 319,726.5C 320.665,719.999 324.831,716.666 331.5,716.5C 331.379,709.453 334.879,705.787 342,705.5C 342.384,701.347 343.384,697.347 345,693.5C 349.31,688.992 353.81,684.826 358.5,681C 360.376,679.625 362.376,678.458 364.5,677.5C 365.43,674.603 367.097,672.27 369.5,670.5C 371.9,669.982 373.9,668.815 375.5,667C 379.416,665.898 383.416,665.231 387.5,665C 389.116,664.385 390.449,663.385 391.5,662C 392.793,661.51 394.127,661.343 395.5,661.5C 394.583,648.779 400.25,641.446 412.5,639.5C 412.434,634.899 414.767,632.566 419.5,632.5C 420.537,629.297 422.203,626.463 424.5,624C 426.747,622.345 429.08,622.012 431.5,623C 436.319,620.254 439.153,616.087 440,610.5C 442.795,608.707 445.295,606.54 447.5,604C 450.377,602.873 453.377,602.206 456.5,602C 457.257,600.488 458.257,599.154 459.5,598C 469.106,595.755 477.272,590.921 484,583.5C 485.268,578.572 487.768,574.405 491.5,571C 496.117,567.214 501.117,564.047 506.5,561.5C 510.971,552.871 517.971,547.371 527.5,545C 529.855,538.122 534.022,532.622 540,528.5C 540.856,524.456 542.522,520.789 545,517.5C 549.309,513.541 553.976,509.875 559,506.5C 560.533,498.802 565.033,493.802 572.5,491.5C 573.034,489.386 574.034,487.552 575.5,486C 578.772,484.392 581.772,482.392 584.5,480C 585.793,476.781 587.46,473.781 589.5,471C 592.063,469.921 594.729,469.421 597.5,469.5C 597.758,465.56 598.924,461.893 601,458.5C 604.42,456.754 607.587,454.587 610.5,452C 612.134,451.506 613.801,451.34 615.5,451.5C 615.5,450.5 615.5,449.5 615.5,448.5C 619.309,447.251 623.143,445.918 627,444.5C 627.022,440.561 628.189,437.061 630.5,434C 630.167,433.667 629.833,433.333 629.5,433C 632.046,429.63 634.712,426.464 637.5,423.5C 640.177,422.926 642.843,422.259 645.5,421.5C 647.014,415.31 651.014,412.31 657.5,412.5C 657.338,410.473 657.505,408.473 658,406.5C 659.368,403.814 660.701,401.147 662,398.5C 663.885,396.98 666.051,395.98 668.5,395.5C 669.399,392.606 670.732,389.939 672.5,387.5C 675.177,386.926 677.843,386.259 680.5,385.5C 682.491,377.658 687.158,372.158 694.5,369C 696.831,362.996 701.164,359.663 707.5,359C 708.634,353.734 711.3,349.401 715.5,346C 716.833,345.667 718.167,345.333 719.5,345C 721.372,342.094 723.372,339.26 725.5,336.5C 728.109,335.77 730.776,335.27 733.5,335C 735.116,334.385 736.449,333.385 737.5,332C 747.047,333.377 751.88,329.544 752,320.5C 755.058,316.017 758.892,312.351 763.5,309.5C 767.239,312.218 770.239,311.718 772.5,308C 779.205,307.815 784.205,304.815 787.5,299C 791.416,298.356 795.416,297.856 799.5,297.5C 801.053,295.735 801.386,293.902 800.5,292C 802.049,290.786 803.215,289.286 804,287.5C 806.228,285.887 808.728,285.22 811.5,285.5C 814.791,273.853 822.458,267.353 834.5,266C 834.958,263.602 836.292,261.936 838.5,261C 841.224,260.73 843.891,260.23 846.5,259.5C 846.899,256.029 848.233,253.029 850.5,250.5C 852.173,248.914 854.173,248.247 856.5,248.5C 857.325,243.821 859.325,239.654 862.5,236C 866.486,235.501 870.486,235.334 874.5,235.5C 876.452,231.595 878.452,227.595 880.5,223.5C 882.904,222.65 885.237,221.65 887.5,220.5C 890.901,214.955 895.901,212.955 902.5,214.5C 903.692,206.416 908.192,203.083 916,204.5C 918.121,200.712 920.954,197.545 924.5,195C 932.91,196.295 939.577,193.462 944.5,186.5C 947.41,186.914 950.077,187.914 952.5,189.5C 952.736,188.753 953.07,187.92 953.5,187C 961.748,185.85 969.415,183.017 976.5,178.5C 983.207,181.486 989.54,180.986 995.5,177C 995.167,176.667 994.833,176.333 994.5,176C 998.271,175.525 1001.77,174.359 1005,172.5C 1007.74,172.872 1010.41,173.539 1013,174.5C 1015.27,174.722 1016.44,173.722 1016.5,171.5 Z M 990.5,263.5 C 995.524,266.463 1000.86,268.963 1006.5,271C 1006.8,272.32 1006.97,273.82 1007,275.5C 1008.88,277.043 1010.38,278.876 1011.5,281C 1013.89,281.287 1016.22,281.787 1018.5,282.5C 1022.29,287.431 1027.29,290.097 1033.5,290.5C 1033.64,294.111 1035.31,296.777 1038.5,298.5C 1047.42,304.452 1056.75,309.452 1066.5,313.5C 1067.28,314.729 1067.78,316.062 1068,317.5C 1070.5,318.667 1072.33,320.5 1073.5,323C 1076.49,323.429 1079.15,324.595 1081.5,326.5C 1082.25,328.753 1083.59,330.587 1085.5,332C 1091.75,335.295 1098.09,338.295 1104.5,341C 1107.02,344.378 1109.02,348.045 1110.5,352C 1114.83,354.818 1119.5,356.984 1124.5,358.5C 1127.45,360.782 1129.11,363.782 1129.5,367.5C 1133.19,370.012 1137.19,372.012 1141.5,373.5C 1142.39,374.325 1142.72,375.325 1142.5,376.5C 1147.63,377.31 1149.63,380.31 1148.5,385.5C 1149.68,385.281 1150.68,385.614 1151.5,386.5C 1153.32,390.996 1156.66,393.329 1161.5,393.5C 1161.52,395.06 1161.85,396.56 1162.5,398C 1167.25,403.404 1172.92,407.737 1179.5,411C 1181.61,413.895 1183.94,416.561 1186.5,419C 1188.5,419.667 1190.5,420.333 1192.5,421C 1195.66,424.571 1198.66,428.238 1201.5,432C 1206.77,432.766 1210.43,435.599 1212.5,440.5C 1214.66,442.02 1217,443.02 1219.5,443.5C 1218.58,450.748 1221.58,455.582 1228.5,458C 1231.65,462.81 1235.98,466.144 1241.5,468C 1240.55,468.718 1240.38,469.551 1241,470.5C 1246.31,474.306 1251.14,478.64 1255.5,483.5C 1262.9,486.687 1268.9,491.52 1273.5,498C 1274.45,498.483 1275.45,498.649 1276.5,498.5C 1276.35,499.552 1276.52,500.552 1277,501.5C 1280.31,504.468 1282.81,507.968 1284.5,512C 1292.97,514.315 1300.97,517.482 1308.5,521.5C 1308.78,523.963 1309.78,526.13 1311.5,528C 1311.51,530.182 1310.51,532.182 1308.5,534C 1309.46,535.419 1310.29,536.919 1311,538.5C 1315.75,540.907 1320.25,543.74 1324.5,547C 1324.17,547.333 1323.83,547.667 1323.5,548C 1326.26,551.082 1328.59,554.415 1330.5,558C 1335.79,559.011 1341.12,559.844 1346.5,560.5C 1346.71,561.086 1347.04,561.586 1347.5,562C 1355.71,562.49 1363.54,560.99 1371,557.5C 1374.52,558.63 1378.02,558.63 1381.5,557.5C 1384.89,555.315 1388.56,553.815 1392.5,553C 1394.41,551.587 1395.75,549.753 1396.5,547.5C 1401.62,545.538 1406.62,543.371 1411.5,541C 1416.64,536.95 1417.64,532.45 1414.5,527.5C 1418.35,524.074 1419.35,519.907 1417.5,515C 1420.34,508.072 1420.01,501.239 1416.5,494.5C 1417.4,492.761 1418.07,490.928 1418.5,489C 1418.3,486.379 1417.97,483.712 1417.5,481C 1418.5,480 1419.5,479 1420.5,478C 1419.32,473.356 1419.32,468.69 1420.5,464C 1418.31,460.179 1417.98,456.179 1419.5,452C 1419.26,450.016 1418.59,448.183 1417.5,446.5C 1418.3,445.059 1418.97,443.559 1419.5,442C 1418.42,438.961 1417.42,435.961 1416.5,433C 1418.17,424.693 1418.5,416.36 1417.5,408C 1418.06,404.812 1418.73,401.645 1419.5,398.5C 1419.51,396.407 1418.85,394.574 1417.5,393C 1421.08,389.977 1421.41,386.477 1418.5,382.5C 1420.74,380.42 1421.41,378.087 1420.5,375.5C 1421.09,373.734 1421.92,372.067 1423,370.5C 1426.87,366.915 1430.87,363.582 1435,360.5C 1438.66,361.194 1442.16,360.528 1445.5,358.5C 1447.1,359.485 1448.76,359.651 1450.5,359C 1452.89,357.139 1455.55,355.806 1458.5,355C 1459.5,353.333 1460.5,351.667 1461.5,350C 1465.69,349.664 1469.86,349.164 1474,348.5C 1481.11,350.448 1488.28,351.115 1495.5,350.5C 1497.69,349.242 1500.02,348.242 1502.5,347.5C 1505.01,347.833 1507.18,348.833 1509,350.5C 1512.74,349.867 1516.41,348.867 1520,347.5C 1522.3,348.629 1524.64,348.629 1527,347.5C 1529.58,347.96 1531.92,348.96 1534,350.5C 1537.84,348.995 1541.84,347.995 1546,347.5C 1546.67,348.167 1547.33,348.833 1548,349.5C 1549.85,347.408 1552.19,346.408 1555,346.5C 1558.42,347.207 1561.75,348.207 1565,349.5C 1569.02,349.014 1573.02,348.68 1577,348.5C 1579.41,348.703 1581.41,349.703 1583,351.5C 1585.8,350.789 1588.63,350.122 1591.5,349.5C 1594.48,353.978 1598.48,357.145 1603.5,359C 1606.38,362.437 1607.05,366.27 1605.5,370.5C 1607.01,372.655 1608.01,374.988 1608.5,377.5C 1607.87,382.523 1607.54,387.19 1607.5,391.5C 1608.55,394.43 1610.21,396.93 1612.5,399C 1607.79,403.486 1607.63,407.986 1612,412.5C 1611.93,414.966 1612.1,417.3 1612.5,419.5C 1612.13,421.459 1611.46,423.293 1610.5,425C 1610.88,430.473 1611.22,435.973 1611.5,441.5C 1608.51,444.719 1608.18,448.053 1610.5,451.5C 1610.49,456.821 1610.49,462.155 1610.5,467.5C 1609.79,473.001 1608.46,478.335 1606.5,483.5C 1605.88,490.17 1606.55,497.003 1608.5,504C 1604.55,508.128 1604.55,512.295 1608.5,516.5C 1605,519.344 1604.66,522.511 1607.5,526C 1605.51,532.283 1605.51,538.45 1607.5,544.5C 1606.73,546.295 1606.07,548.128 1605.5,550C 1606.79,553.492 1606.79,556.992 1605.5,560.5C 1607.33,565.311 1608,570.144 1607.5,575C 1602.72,580.792 1602.38,586.792 1606.5,593C 1606.02,594.763 1605.36,596.43 1604.5,598C 1606.04,601.342 1605.37,604.342 1602.5,607C 1603.59,610.481 1604.92,613.815 1606.5,617C 1604.7,619.114 1603.37,621.448 1602.5,624C 1602.51,629.686 1602.51,635.353 1602.5,641C 1602.48,643.379 1603.15,645.546 1604.5,647.5C 1603.25,649.001 1602.25,650.668 1601.5,652.5C 1601.2,655.953 1601.2,659.453 1601.5,663C 1601.05,665.568 1600.05,667.902 1598.5,670C 1601.17,673.667 1601.17,677.333 1598.5,681C 1599.98,682.299 1600.65,683.966 1600.5,686C 1598.5,696.041 1599.5,705.708 1603.5,715C 1603.17,715.333 1602.83,715.667 1602.5,716C 1606.02,723.572 1608.85,731.406 1611,739.5C 1612.58,743.81 1614.75,747.81 1617.5,751.5C 1616.02,754.546 1616.85,756.879 1620,758.5C 1621.18,764.07 1623.85,768.737 1628,772.5C 1629.74,775.397 1631.24,778.397 1632.5,781.5C 1639.15,788.398 1645.65,795.398 1652,802.5C 1652.65,807.191 1655.15,810.191 1659.5,811.5C 1661.5,818.171 1665.84,822.504 1672.5,824.5C 1674.66,827.148 1675.99,830.148 1676.5,833.5C 1681.08,833.107 1683.41,835.274 1683.5,840C 1686.98,842.14 1688.81,845.306 1689,849.5C 1692.17,852.667 1695.33,855.833 1698.5,859C 1701.83,861.277 1705.5,862.443 1709.5,862.5C 1708.74,868.325 1711.08,872.325 1716.5,874.5C 1717.6,876.632 1718.6,878.798 1719.5,881C 1721.25,881.471 1722.91,882.138 1724.5,883C 1728.24,889.539 1733.9,893.039 1741.5,893.5C 1742.35,894.845 1743.51,895.845 1745,896.5C 1745.12,899.008 1746.12,901.008 1748,902.5C 1755.45,903.748 1762.62,905.915 1769.5,909C 1767.72,910.067 1767.22,911.567 1768,913.5C 1769.96,915.911 1771.79,918.411 1773.5,921C 1771.23,921.758 1769.06,921.591 1767,920.5C 1760.45,922.407 1753.95,924.407 1747.5,926.5C 1739.28,924.369 1731.61,925.536 1724.5,930C 1719.86,930.817 1715.36,930.317 1711,928.5C 1706.95,930.195 1703.78,932.862 1701.5,936.5C 1697.99,934.246 1694.33,932.246 1690.5,930.5C 1687.13,930.797 1684.29,932.13 1682,934.5C 1676.04,931.32 1670.21,931.32 1664.5,934.5C 1659.31,933.47 1654.31,931.97 1649.5,930C 1645.45,929.293 1641.62,929.793 1638,931.5C 1632.75,929.749 1627.42,928.415 1622,927.5C 1620.04,929.589 1617.88,930.423 1615.5,930C 1614.95,930.925 1614.29,931.758 1613.5,932.5C 1610.58,931.622 1607.91,931.622 1605.5,932.5C 1603.18,931.068 1600.68,930.068 1598,929.5C 1594.62,930.955 1591.62,932.955 1589,935.5C 1582.73,931.591 1578.07,932.925 1575,939.5C 1572.18,937.916 1570.01,938.582 1568.5,941.5C 1565.55,940.346 1562.55,939.346 1559.5,938.5C 1554.03,942.702 1551.53,948.369 1552,955.5C 1550.25,954.826 1548.58,954.493 1547,954.5C 1545.79,955.071 1544.63,955.738 1543.5,956.5C 1543.71,957.086 1544.04,957.586 1544.5,958C 1542.74,963.744 1542.24,969.578 1543,975.5C 1542.69,976.308 1542.19,976.975 1541.5,977.5C 1538.59,977.914 1535.92,978.914 1533.5,980.5C 1533.17,981.167 1532.83,981.833 1532.5,982.5C 1533.34,985.53 1533.84,988.53 1534,991.5C 1531.62,994.507 1529.29,997.507 1527,1000.5C 1526.67,1000.17 1526.33,999.833 1526,999.5C 1524.33,1000.17 1522.67,1000.83 1521,1001.5C 1520.67,1005.5 1520.33,1009.5 1520,1013.5C 1518.82,1015.34 1517.65,1017.18 1516.5,1019C 1517.23,1021.82 1517.9,1024.65 1518.5,1027.5C 1516.6,1028.71 1515.27,1030.71 1514.5,1033.5C 1515.65,1036.7 1516.98,1039.87 1518.5,1043C 1516.35,1045.15 1513.68,1047.48 1510.5,1050C 1510.34,1052.77 1511.01,1055.6 1512.5,1058.5C 1511.39,1060.5 1511.72,1062.33 1513.5,1064C 1512.5,1064.5 1511.5,1065 1510.5,1065.5C 1509.59,1067.65 1508.42,1069.65 1507,1071.5C 1506.67,1071.17 1506.33,1070.83 1506,1070.5C 1505.13,1071.87 1504.63,1073.37 1504.5,1075C 1505.93,1081.93 1508.93,1088.1 1513.5,1093.5C 1510.13,1098.34 1509.79,1103.34 1512.5,1108.5C 1510.11,1109.27 1508.44,1111.27 1507.5,1114.5C 1507.31,1119.2 1508.14,1123.87 1510,1128.5C 1511.7,1129.36 1512.86,1130.7 1513.5,1132.5C 1510.01,1133.91 1507.35,1136.24 1505.5,1139.5C 1506.67,1144.71 1508.67,1149.55 1511.5,1154C 1510.2,1157.51 1510.2,1161.01 1511.5,1164.5C 1510.64,1168.39 1508.64,1171.56 1505.5,1174C 1505.48,1179.85 1507.31,1185.02 1511,1189.5C 1511.24,1191.76 1511.74,1193.93 1512.5,1196C 1509.4,1201.64 1508.74,1207.64 1510.5,1214C 1509,1217.97 1508.66,1221.97 1509.5,1226C 1505.54,1231.92 1505.54,1237.75 1509.5,1243.5C 1504.86,1249.39 1504.36,1255.73 1508,1262.5C 1510.16,1266.16 1512.33,1269.82 1514.5,1273.5C 1513.73,1278.41 1512.73,1283.24 1511.5,1288C 1511.67,1289.5 1511.83,1291 1512,1292.5C 1515.07,1295.67 1515.07,1299.01 1512,1302.5C 1507.38,1304.29 1505.55,1307.62 1506.5,1312.5C 1506.14,1316.54 1507.14,1320.21 1509.5,1323.5C 1507.93,1326.39 1507.26,1329.56 1507.5,1333C 1507.35,1338.58 1508.35,1343.92 1510.5,1349C 1508.7,1350.59 1507.7,1352.59 1507.5,1355C 1508.52,1358.13 1508.52,1361.3 1507.5,1364.5C 1507.36,1368.93 1509.03,1372.43 1512.5,1375C 1511.55,1375.48 1510.55,1375.65 1509.5,1375.5C 1509.28,1377.34 1508.94,1379.18 1508.5,1381C 1509.69,1385.21 1511.02,1389.38 1512.5,1393.5C 1510.88,1398.86 1511.22,1404.02 1513.5,1409C 1511.59,1412.08 1510.92,1415.24 1511.5,1418.5C 1512.16,1421.96 1513.49,1425.12 1515.5,1428C 1515.17,1428.33 1514.83,1428.67 1514.5,1429C 1516.35,1430.68 1518.02,1432.52 1519.5,1434.5C 1517.01,1438.15 1514.34,1441.65 1511.5,1445C 1511.26,1449 1511.92,1453 1513.5,1457C 1512.2,1460.3 1512.54,1463.46 1514.5,1466.5C 1511.73,1468.2 1510.4,1470.7 1510.5,1474C 1512.06,1481.63 1514.06,1489.13 1516.5,1496.5C 1515.17,1498.17 1515.17,1499.83 1516.5,1501.5C 1515,1504.49 1513.5,1507.49 1512,1510.5C 1511.56,1515.87 1511.56,1521.2 1512,1526.5C 1508.4,1528.74 1506.57,1531.91 1506.5,1536C 1506.92,1543.78 1509.59,1550.61 1514.5,1556.5C 1509.08,1563.41 1504.75,1570.91 1501.5,1579C 1502.68,1584.23 1504.35,1589.23 1506.5,1594C 1504.73,1597.65 1503.56,1601.48 1503,1605.5C 1502.33,1606.83 1501.33,1607.83 1500,1608.5C 1499.83,1611 1499.67,1613.5 1499.5,1616C 1499.61,1619.04 1500.28,1621.87 1501.5,1624.5C 1498.88,1626.07 1497.55,1628.4 1497.5,1631.5C 1497.97,1639.28 1501.14,1645.61 1507,1650.5C 1507.19,1655.71 1508.02,1661.04 1509.5,1666.5C 1503.9,1666.46 1500.23,1669.13 1498.5,1674.5C 1496.79,1680.32 1497.46,1685.82 1500.5,1691C 1499.02,1693.45 1497.19,1695.62 1495,1697.5C 1494.24,1699.77 1494.41,1701.94 1495.5,1704C 1494.09,1709.38 1493.09,1714.88 1492.5,1720.5C 1485.64,1723.86 1480.64,1729.03 1477.5,1736C 1473.84,1735.67 1470.84,1734 1468.5,1731C 1463.08,1728.37 1458.41,1729.2 1454.5,1733.5C 1450.31,1730.45 1445.64,1729.29 1440.5,1730C 1439.03,1730.71 1438.36,1731.88 1438.5,1733.5C 1428.28,1735.37 1417.95,1736.2 1407.5,1736C 1406.26,1733.09 1404.59,1730.42 1402.5,1728C 1395.65,1726.97 1388.98,1727.63 1382.5,1730C 1380.41,1731.04 1378.75,1732.54 1377.5,1734.5C 1375.26,1731.57 1374.26,1731.9 1374.5,1735.5C 1373.17,1735.5 1371.83,1735.5 1370.5,1735.5C 1370.34,1733.18 1369.17,1731.51 1367,1730.5C 1360.31,1730.45 1353.48,1730.61 1346.5,1731C 1344.02,1733.18 1342.02,1732.85 1340.5,1730C 1337.63,1729.69 1334.8,1729.19 1332,1728.5C 1329.02,1729.71 1326.02,1729.71 1323,1728.5C 1316.9,1728.95 1312.23,1731.62 1309,1736.5C 1307.89,1734.96 1306.39,1734.3 1304.5,1734.5C 1303.63,1729.16 1300.46,1727.16 1295,1728.5C 1286.95,1728.53 1280.28,1731.53 1275,1737.5C 1271.54,1734.89 1267.7,1732.89 1263.5,1731.5C 1260.22,1734.37 1257.56,1733.87 1255.5,1730C 1249.07,1728.14 1242.73,1728.31 1236.5,1730.5C 1228.39,1728.56 1221.05,1729.56 1214.5,1733.5C 1213.5,1733 1212.5,1732.5 1211.5,1732C 1205.83,1731.33 1200.17,1731.33 1194.5,1732C 1189.67,1733.3 1184.84,1734.46 1180,1735.5C 1169.09,1732.81 1158.09,1730.48 1147,1728.5C 1140.76,1728.63 1135.26,1730.63 1130.5,1734.5C 1121.76,1727.92 1112.93,1727.92 1104,1734.5C 1102.14,1729.4 1098.47,1727.4 1093,1728.5C 1090.83,1728.67 1088.67,1728.83 1086.5,1729C 1082.17,1731 1077.67,1732.5 1073,1733.5C 1066.35,1730.35 1060.18,1731.02 1054.5,1735.5C 1049.27,1735.16 1044.27,1734 1039.5,1732C 1032.45,1731.8 1025.45,1731.3 1018.5,1730.5C 1016.94,1731.07 1015.44,1731.74 1014,1732.5C 1007.26,1731.59 1000.59,1730.25 994,1728.5C 989.77,1728.77 985.604,1729.43 981.5,1730.5C 978.261,1729.17 975.761,1730.17 974,1733.5C 973.654,1731.15 972.487,1729.32 970.5,1728C 966.579,1727.8 962.745,1727.3 959,1726.5C 951.557,1729.47 944.391,1732.81 937.5,1736.5C 936.5,1736.33 935.5,1736.17 934.5,1736C 932.695,1733.6 930.362,1731.93 927.5,1731C 920.712,1729.58 913.878,1728.41 907,1727.5C 903.358,1729.78 899.358,1731.11 895,1731.5C 894.228,1731.36 893.561,1731.02 893,1730.5C 890.99,1731.85 888.99,1733.18 887,1734.5C 881.754,1734.98 876.587,1734.32 871.5,1732.5C 866.773,1733.4 862.106,1732.73 857.5,1730.5C 853.578,1731.24 849.744,1732.24 846,1733.5C 843.707,1731.13 840.874,1729.8 837.5,1729.5C 831.381,1730.08 825.381,1731.24 819.5,1733C 817.622,1734.54 816.122,1736.38 815,1738.5C 809.342,1735.06 803.342,1732.39 797,1730.5C 794.594,1731.62 792.094,1732.62 789.5,1733.5C 784.537,1731.93 779.704,1732.26 775,1734.5C 767.129,1733.7 758.962,1733.87 750.5,1735C 749.845,1736.49 748.845,1737.65 747.5,1738.5C 744.586,1736.4 741.586,1734.56 738.5,1733C 733.075,1732.67 727.575,1732.84 722,1733.5C 716.476,1730.8 711.642,1731.3 707.5,1735C 703.163,1735.75 698.829,1736.09 694.5,1736C 693.639,1733.13 691.972,1730.8 689.5,1729C 679.943,1726.63 670.277,1726.46 660.5,1728.5C 651.874,1725.12 643.041,1722.46 634,1720.5C 631.707,1720.91 629.373,1721.24 627,1721.5C 621.557,1719.53 615.89,1718.2 610,1717.5C 607.201,1717.82 604.701,1718.82 602.5,1720.5C 597.037,1715.95 590.703,1713.45 583.5,1713C 579.941,1711.02 576.274,1709.19 572.5,1707.5C 571.211,1704.42 569.545,1701.59 567.5,1699C 563.536,1697.74 559.536,1696.4 555.5,1695C 556.424,1694.15 556.424,1693.15 555.5,1692C 552.323,1687.48 549.823,1682.65 548,1677.5C 546.846,1676.26 545.512,1675.26 544,1674.5C 543.604,1671.3 542.438,1668.47 540.5,1666C 541.967,1664.9 542.801,1663.4 543,1661.5C 543.07,1658.23 543.237,1655.06 543.5,1652C 542.686,1649.37 541.353,1647.04 539.5,1645C 541.443,1643.06 542.443,1640.73 542.5,1638C 541.927,1635.99 541.927,1634.16 542.5,1632.5C 541.642,1629.38 540.642,1626.38 539.5,1623.5C 537.654,1623.78 536.32,1623.11 535.5,1621.5C 538.188,1619.45 539.855,1616.79 540.5,1613.5C 537.971,1607.36 536.304,1601.2 535.5,1595C 536.848,1593.43 537.514,1591.59 537.5,1589.5C 537.598,1583.34 537.265,1577.17 536.5,1571C 537.211,1568.2 537.878,1565.37 538.5,1562.5C 536.818,1556.48 535.151,1550.48 533.5,1544.5C 533.846,1543.3 534.346,1543.3 535,1544.5C 535.167,1543.5 535.333,1542.5 535.5,1541.5C 534.487,1538.88 533.653,1536.22 533,1533.5C 532.097,1532.3 530.931,1531.47 529.5,1531C 531.483,1529.11 533.816,1527.78 536.5,1527C 538.066,1525.32 539.066,1523.32 539.5,1521C 538.507,1515.53 536.674,1510.36 534,1505.5C 533.333,1500.17 533.333,1494.83 534,1489.5C 535.181,1487.32 536.348,1485.16 537.5,1483C 536.314,1472.53 535.481,1462.03 535,1451.5C 534.227,1448.79 533.06,1446.29 531.5,1444C 532.673,1434.95 534.339,1425.78 536.5,1416.5C 535.812,1412.57 534.812,1408.4 533.5,1404C 534.32,1401.85 535.82,1400.35 538,1399.5C 538.458,1396.44 538.124,1393.44 537,1390.5C 535.111,1387.89 533.611,1385.06 532.5,1382C 533.3,1378.74 534.633,1375.74 536.5,1373C 536.245,1371.67 535.578,1370.67 534.5,1370C 535.624,1369.16 536.291,1367.99 536.5,1366.5C 537.433,1357.48 537.1,1348.48 535.5,1339.5C 536.306,1333.08 535.639,1326.75 533.5,1320.5C 534.736,1318.69 534.736,1316.86 533.5,1315C 534.897,1313.04 535.897,1310.87 536.5,1308.5C 535.582,1305.54 535.582,1302.54 536.5,1299.5C 536.211,1295.8 535.211,1292.3 533.5,1289C 533.954,1287.38 534.954,1286.21 536.5,1285.5C 539.624,1277.03 538.624,1269.03 533.5,1261.5C 534.684,1259.95 535.684,1258.29 536.5,1256.5C 538.258,1255.87 539.758,1254.87 541,1253.5C 540.406,1251.49 540.573,1249.49 541.5,1247.5C 539.581,1241.7 538.414,1235.7 538,1229.5C 537,1228.17 536,1226.83 535,1225.5C 533.563,1219.07 533.063,1212.74 533.5,1206.5C 539.845,1206.15 542.511,1202.82 541.5,1196.5C 541.333,1194.5 541.167,1192.5 541,1190.5C 537.017,1186.4 536.517,1181.9 539.5,1177C 539.203,1170.55 537.537,1164.55 534.5,1159C 536.425,1155.92 538.091,1152.76 539.5,1149.5C 536.939,1139.31 535.106,1128.98 534,1118.5C 532.697,1116.06 531.53,1113.56 530.5,1111C 531.996,1109.67 533.329,1108.17 534.5,1106.5C 534.291,1105.91 533.957,1105.41 533.5,1105C 535.444,1103.28 536.444,1101.11 536.5,1098.5C 536.437,1090.2 533.103,1083.7 526.5,1079C 529.512,1076.78 530.179,1073.95 528.5,1070.5C 529.5,1068.83 530.833,1067.5 532.5,1066.5C 534.55,1058.11 532.217,1051.28 525.5,1046C 526.658,1044.99 527.325,1043.66 527.5,1042C 526.507,1038.85 525.174,1035.85 523.5,1033C 530.665,1029.02 532.499,1023.18 529,1015.5C 527.671,1012.75 525.837,1010.42 523.5,1008.5C 524.565,1006.15 524.398,1003.81 523,1001.5C 521.357,999.023 519.524,996.69 517.5,994.5C 519.58,991.097 520.913,987.43 521.5,983.5C 518.422,978.437 516.422,972.937 515.5,967C 517.293,963.163 518.627,959.163 519.5,955C 516.76,943.371 511.093,933.205 502.5,924.5C 499.353,922.84 496.02,921.673 492.5,921C 488.803,916.317 484.47,912.317 479.5,909C 476.167,909 472.833,909 469.5,909C 467.129,901.897 462.296,899.397 455,901.5C 452.896,898.377 450.729,895.211 448.5,892C 443.61,891.94 438.943,890.94 434.5,889C 433.833,887.667 433.167,886.333 432.5,885C 426.398,882.981 420.398,883.148 414.5,885.5C 412.724,883.462 411.057,881.296 409.5,879C 403.813,878.026 398.313,878.526 393,880.5C 389.928,879.57 386.761,878.903 383.5,878.5C 379.856,879.415 376.19,879.581 372.5,879C 371.214,876.978 370.214,874.811 369.5,872.5C 360.462,869.173 352.129,870.507 344.5,876.5C 341.348,874.925 338.014,873.925 334.5,873.5C 329.901,874.914 325.234,875.414 320.5,875C 321.833,873 323.167,871 324.5,869C 329.003,868.038 333.336,866.705 337.5,865C 340.598,859.607 343.765,854.44 347,849.5C 349.5,847.667 352,845.833 354.5,844C 356.972,842.202 358.639,839.868 359.5,837C 362.167,835.667 364.833,834.333 367.5,833C 368.87,831.559 369.87,829.892 370.5,828C 373.5,827.667 376.5,827.333 379.5,827C 383.902,821.659 388.402,816.492 393,811.5C 394.009,809.975 394.509,808.308 394.5,806.5C 396.262,806.357 397.929,806.691 399.5,807.5C 401.115,806.846 402.782,806.346 404.5,806C 406.757,802.321 409.59,799.155 413,796.5C 414.411,794.35 415.245,792.016 415.5,789.5C 419.884,791.479 423.217,790.313 425.5,786C 426.833,785.667 428.167,785.333 429.5,785C 432.118,782.261 434.618,779.427 437,776.5C 437.483,775.552 437.649,774.552 437.5,773.5C 442.038,774.128 445.705,772.628 448.5,769C 451.784,764.271 454.784,759.437 457.5,754.5C 459.915,753.695 462.249,752.695 464.5,751.5C 465.994,748.758 467.66,746.091 469.5,743.5C 472.2,744.667 474.867,744.5 477.5,743C 481.099,739.278 484.599,735.444 488,731.5C 488.977,729.26 489.477,726.927 489.5,724.5C 494.028,724.909 496.694,722.909 497.5,718.5C 505.795,717.622 510.295,712.956 511,704.5C 513.148,703.195 514.648,701.362 515.5,699C 517.833,698.667 520.167,698.333 522.5,698C 524.77,695.525 527.437,693.525 530.5,692C 535.008,686.815 538.341,680.981 540.5,674.5C 542.2,674.626 543.7,675.293 545,676.5C 553.334,671.992 557.167,664.992 556.5,655.5C 567.078,656.449 575.911,653.116 583,645.5C 584.791,642.007 586.124,638.341 587,634.5C 589.304,631.377 592.471,629.877 596.5,630C 597.579,629.044 598.745,628.211 600,627.5C 600.701,624.673 601.701,622.006 603,619.5C 604.942,619.373 606.942,619.706 609,620.5C 610.627,620.375 612.127,619.875 613.5,619C 618.614,612.379 623.948,605.879 629.5,599.5C 630.23,597.659 630.897,595.825 631.5,594C 634.637,593.399 637.637,592.399 640.5,591C 644.527,585.468 648.86,580.135 653.5,575C 657.735,574.48 661.068,572.48 663.5,569C 666.308,568.402 668.808,567.235 671,565.5C 672.167,562.5 673.333,559.5 674.5,556.5C 677.278,554.354 679.444,551.687 681,548.5C 680.249,544.279 681.082,540.279 683.5,536.5C 686.088,535.806 688.421,534.64 690.5,533C 695.513,532.182 700.513,531.516 705.5,531C 712.018,522.82 718.852,514.987 726,507.5C 727.707,505.091 728.54,502.425 728.5,499.5C 730.39,499.703 731.89,499.037 733,497.5C 735.065,492.931 736.899,488.265 738.5,483.5C 745.198,484.567 749.364,481.901 751,475.5C 756.516,472.472 760.683,468.139 763.5,462.5C 767.162,462.171 769.162,460.171 769.5,456.5C 770.991,455.756 772.491,455.09 774,454.5C 778.621,457.256 783.121,457.09 787.5,454C 790.833,453.667 794.167,453.333 797.5,453C 797.969,448.028 800.802,444.528 806,442.5C 807.341,439.978 808.174,437.311 808.5,434.5C 812.199,433.996 815.365,432.33 818,429.5C 818.92,426.062 820.587,423.062 823,420.5C 824.459,417.858 824.792,415.191 824,412.5C 827.197,411.691 830.363,410.691 833.5,409.5C 835.086,407.827 835.753,405.827 835.5,403.5C 839.202,402.871 842.202,401.037 844.5,398C 843.105,390.398 846.105,385.231 853.5,382.5C 854.48,381.019 855.647,379.685 857,378.5C 860.757,380.095 864.09,379.429 867,376.5C 870.516,369.447 876.016,363.447 883.5,358.5C 885.667,356.17 887.334,353.503 888.5,350.5C 893.447,348.992 896.114,345.658 896.5,340.5C 899.518,340.665 902.518,340.498 905.5,340C 909.016,335.8 911.016,330.967 911.5,325.5C 914.613,321.777 918.613,319.944 923.5,320C 925.269,317.943 927.269,316.11 929.5,314.5C 931.927,308.762 935.927,304.428 941.5,301.5C 942.386,300.675 942.719,299.675 942.5,298.5C 950.339,296.149 954.839,290.816 956,282.5C 957.849,283.561 959.849,284.227 962,284.5C 969.492,282.678 975.492,278.678 980,272.5C 980.333,271.167 980.667,269.833 981,268.5C 983.048,270.787 985.215,270.954 987.5,269C 988.639,267.22 989.639,265.386 990.5,263.5 Z"/></g>
<g><path style="opacity:0.996" fill="#0c0a0a" d="M 834.5,680.5 C 836.824,681.077 838.99,682.077 841,683.5C 841.95,682.978 842.784,682.311 843.5,681.5C 844.842,682.902 845.676,682.569 846,680.5C 847.337,682.004 849.004,683.004 851,683.5C 851.483,684.448 851.649,685.448 851.5,686.5C 853.857,686.337 856.19,686.503 858.5,687C 861.814,691.129 864.48,695.629 866.5,700.5C 874.353,703.157 876.687,707.824 873.5,714.5C 876.133,716.942 877.8,720.442 878.5,725C 878.415,726.107 878.081,727.107 877.5,728C 880.326,728.961 881.993,730.961 882.5,734C 881.483,736.787 881.316,739.62 882,742.5C 883.522,747.564 885.355,752.564 887.5,757.5C 887.099,759.434 886.099,760.934 884.5,762C 887.548,764.409 889.548,767.576 890.5,771.5C 890.219,773.778 888.885,774.945 886.5,775C 887.5,775.333 888.5,775.667 889.5,776C 888.234,778.383 887.568,781.05 887.5,784C 887.735,787.433 888.401,790.766 889.5,794C 888.487,796.355 887.487,798.689 886.5,801C 890.449,801.807 890.449,802.307 886.5,802.5C 886.683,804.936 886.016,807.103 884.5,809C 888.153,814.01 887.153,817.676 881.5,820C 883.244,822.963 883.744,826.129 883,829.5C 880.81,832.024 879.476,835.024 879,838.5C 878,839.167 877,839.833 876,840.5C 874.938,846.298 872.105,850.965 867.5,854.5C 866.868,858.595 865.868,862.595 864.5,866.5C 861.24,869.623 858.24,872.956 855.5,876.5C 851.246,876.919 848.246,879.086 846.5,883C 844.337,883.245 842.67,884.245 841.5,886C 837.812,886.19 834.312,887.024 831,888.5C 828.271,887.475 825.271,887.475 822,888.5C 818.102,886.942 814.102,885.609 810,884.5C 806.74,880.633 802.573,878.466 797.5,878C 795.537,873.237 793.704,868.403 792,863.5C 788.401,861.897 785.401,859.564 783,856.5C 782.257,854.559 782.424,852.726 783.5,851C 780.907,849.412 779.241,847.578 778.5,845.5C 780.005,844.158 780.672,842.492 780.5,840.5C 779.5,840.5 778.5,840.5 777.5,840.5C 776.833,838.181 776.666,835.847 777,833.5C 777.333,833.833 777.667,834.167 778,834.5C 778.667,832.833 778.667,831.167 778,829.5C 775.87,827.413 774.37,824.913 773.5,822C 774.658,820.991 775.325,819.658 775.5,818C 774.501,812.187 774.335,806.354 775,800.5C 776.587,798.368 778.087,796.202 779.5,794C 775.999,791.665 774.333,788.332 774.5,784C 774.809,780.693 775.642,777.526 777,774.5C 777.799,769.913 777.632,765.413 776.5,761C 777.454,753.843 779.287,747.01 782,740.5C 785.385,737.223 786.552,733.39 785.5,729C 787.042,725.622 788.209,722.122 789,718.5C 791.93,717.976 794.43,716.642 796.5,714.5C 796.036,710.505 796.536,706.505 798,702.5C 799.011,701.663 800.178,701.33 801.5,701.5C 801.433,698.234 803.099,696.734 806.5,697C 807.293,695.915 807.96,694.748 808.5,693.5C 809.776,692.355 811.109,692.355 812.5,693.5C 814.903,691.291 816.569,688.624 817.5,685.5C 820.105,683.942 822.438,684.275 824.5,686.5C 827.404,683.63 830.737,681.63 834.5,680.5 Z"/></g>
<g><path style="opacity:0.997" fill="#0d0a0a" d="M 1218.5,686.5 C 1221.25,687.191 1223.92,688.191 1226.5,689.5C 1227.52,688.313 1228.69,687.313 1230,686.5C 1233.92,689.08 1238.09,691.246 1242.5,693C 1245.89,697.509 1248.72,702.342 1251,707.5C 1255.79,708.135 1258.63,710.801 1259.5,715.5C 1258.8,716.863 1258.8,718.029 1259.5,719C 1258.83,719.333 1258.17,719.667 1257.5,720C 1259.05,721.214 1260.22,722.714 1261,724.5C 1261.85,730.369 1263.68,735.869 1266.5,741C 1266.01,742.462 1265.67,743.962 1265.5,745.5C 1267.72,749.85 1268.72,754.516 1268.5,759.5C 1269.5,759.5 1270.5,759.5 1271.5,759.5C 1271.42,760.93 1271.75,762.264 1272.5,763.5C 1271.83,764.833 1271.17,766.167 1270.5,767.5C 1272.21,770.807 1273.54,774.307 1274.5,778C 1274.24,779.261 1273.57,780.261 1272.5,781C 1272.5,790.364 1272.84,799.697 1273.5,809C 1272.93,811.903 1271.26,813.903 1268.5,815C 1273.37,820.269 1272.37,823.935 1265.5,826C 1266.66,827.994 1267.33,830.161 1267.5,832.5C 1266.16,836.876 1264.66,841.209 1263,845.5C 1259.59,847.982 1257.42,851.315 1256.5,855.5C 1251.46,860.784 1248.62,867.118 1248,874.5C 1245.14,877.36 1242.31,880.194 1239.5,883C 1237.83,883.333 1236.17,883.667 1234.5,884C 1232.55,887.814 1229.55,890.48 1225.5,892C 1222.1,892.1 1218.93,892.934 1216,894.5C 1212.87,893.566 1209.54,893.566 1206,894.5C 1201.76,892.277 1197.26,890.611 1192.5,889.5C 1189.84,885.324 1186.01,883.324 1181,883.5C 1179.33,878.833 1177.67,874.167 1176,869.5C 1172.72,867.883 1170.05,865.55 1168,862.5C 1167.31,860.432 1167.48,858.432 1168.5,856.5C 1166.46,855.246 1164.8,853.579 1163.5,851.5C 1163.93,850.707 1164.26,849.873 1164.5,849C 1162.72,847.001 1161.72,844.667 1161.5,842C 1162.33,839.522 1162.5,837.022 1162,834.5C 1160.17,832.698 1159.01,830.532 1158.5,828C 1159.24,823.251 1159.24,818.418 1158.5,813.5C 1158.83,811.167 1159.17,808.833 1159.5,806.5C 1160.81,805.088 1161.64,803.421 1162,801.5C 1162.75,800.874 1163.58,800.374 1164.5,800C 1160.25,798.179 1158.25,794.846 1158.5,790C 1160.38,785.703 1161.38,781.036 1161.5,776C 1161.48,772.914 1161.14,769.914 1160.5,767C 1162.04,761.149 1163.37,755.316 1164.5,749.5C 1165.5,749.5 1166.5,749.5 1167.5,749.5C 1167.84,745.644 1169.18,742.144 1171.5,739C 1171.09,738.055 1170.43,737.388 1169.5,737C 1170.75,733.43 1171.75,729.764 1172.5,726C 1174.72,724.136 1177.22,722.636 1180,721.5C 1180.5,720.5 1181,719.5 1181.5,718.5C 1180.17,715.833 1180.17,713.167 1181.5,710.5C 1184,709.422 1185.66,707.589 1186.5,705C 1189.99,704.835 1191.83,703.002 1192,699.5C 1192.33,699.833 1192.67,700.167 1193,700.5C 1194.44,698.954 1196.27,698.121 1198.5,698C 1199.86,695.966 1200.86,693.799 1201.5,691.5C 1204.45,689.944 1207.12,690.278 1209.5,692.5C 1210.38,691.24 1211.38,690.074 1212.5,689C 1214.85,688.76 1216.85,687.927 1218.5,686.5 Z"/></g>
</svg>
