<?xml version="1.0" encoding="UTF-8"?>
<!DOCTYPE svg PUBLIC "-//W3C//DTD SVG 1.1//EN" "http://www.w3.org/Graphics/SVG/1.1/DTD/svg11.dtd">
<svg xmlns="http://www.w3.org/2000/svg" version="1.1" width="2048px" height="2048px" style="shape-rendering:geometricPrecision; text-rendering:geometricPrecision; image-rendering:optimizeQuality; fill-rule:evenodd; clip-rule:evenodd" xmlns:xlink="http://www.w3.org/1999/xlink">
<g><path style="opacity:0.999" fill="#0d0a09" d="M 886.5,456.5 C 888.01,457.728 889.51,457.728 891,456.5C 893.537,459.046 896.537,460.712 900,461.5C 902.516,459.19 905.182,459.19 908,461.5C 913.51,457.33 919.677,455.83 926.5,457C 929.92,458.906 933.42,460.739 937,462.5C 940.743,459.759 944.909,458.925 949.5,460C 952.205,462.351 955.205,464.184 958.5,465.5C 961.938,462.732 965.605,460.232 969.5,458C 975.016,456.899 980.183,457.733 985,460.5C 988.283,457.683 992.117,456.35 996.5,456.5C 1001.04,457.43 1005.54,458.764 1010,460.5C 1013.9,458.757 1017.9,457.424 1022,456.5C 1026.97,456.91 1031.97,458.244 1037,460.5C 1043.75,456.407 1050.92,455.574 1058.5,458C 1059.93,458.465 1061.1,459.299 1062,460.5C 1066.82,457.733 1071.98,456.899 1077.5,458C 1081.4,460.232 1085.06,462.732 1088.5,465.5C 1091.8,464.184 1094.8,462.351 1097.5,460C 1102.09,458.925 1106.26,459.759 1110,462.5C 1113.58,460.739 1117.08,458.906 1120.5,457C 1127.32,455.83 1133.49,457.33 1139,461.5C 1141.82,459.19 1144.48,459.19 1147,461.5C 1150.46,460.712 1153.46,459.046 1156,456.5C 1162.32,457.675 1168.82,459.175 1175.5,461C 1182.77,466.959 1190.1,467.292 1197.5,462C 1201.4,460.628 1205.4,459.462 1209.5,458.5C 1215.67,459.907 1221.5,461.907 1227,464.5C 1230.13,464.087 1232.63,462.587 1234.5,460C 1237.5,459.333 1240.5,459.333 1243.5,460C 1247.88,461.863 1252.22,463.696 1256.5,465.5C 1263.19,464.566 1269.52,462.9 1275.5,460.5C 1278.38,460.386 1281.04,461.052 1283.5,462.5C 1290.63,460.631 1297.3,461.631 1303.5,465.5C 1309.89,463.37 1316.22,463.37 1322.5,465.5C 1324.41,463.114 1326.91,462.114 1330,462.5C 1334.16,462.887 1338.16,463.887 1342,465.5C 1345.91,464.313 1349.58,463.313 1353,462.5C 1358.72,465.038 1364.55,467.371 1370.5,469.5C 1375.97,466.598 1381.14,466.931 1386,470.5C 1393.73,465.94 1401.39,466.607 1409,472.5C 1410.41,471.213 1411.91,470.046 1413.5,469C 1421.11,467.932 1428.44,465.932 1435.5,463C 1438.5,462.333 1441.5,462.333 1444.5,463C 1447.09,464.128 1449.75,464.961 1452.5,465.5C 1455.87,463.732 1459.37,462.065 1463,460.5C 1468.68,460.842 1475.18,461.342 1482.5,462C 1488,464.173 1493,467.173 1497.5,471C 1500.68,471.407 1503.85,471.907 1507,472.5C 1512.39,469.553 1517.89,466.719 1523.5,464C 1527.24,463.071 1530.74,463.571 1534,465.5C 1540.26,462.793 1546.76,460.793 1553.5,459.5C 1558.98,460.095 1564.31,461.262 1569.5,463C 1572.89,465.263 1575.72,468.097 1578,471.5C 1578.5,471 1579,470.5 1579.5,470C 1584.06,468.863 1588.56,468.696 1593,469.5C 1597.54,466.567 1602.2,463.9 1607,461.5C 1610.8,461.204 1614.47,462.204 1618,464.5C 1622.53,461.776 1627.03,461.443 1631.5,463.5C 1638.73,461.357 1645.9,460.023 1653,459.5C 1662.02,463.213 1671.35,465.88 1681,467.5C 1684.63,466.772 1688.13,465.606 1691.5,464C 1695.17,463.333 1698.83,463.333 1702.5,464C 1705.03,466.588 1707.87,468.755 1711,470.5C 1716.98,469.444 1722.82,467.944 1728.5,466C 1731.17,465.333 1733.83,465.333 1736.5,466C 1740.52,469.021 1744.18,472.354 1747.5,476C 1752.2,477.005 1756.86,478.172 1761.5,479.5C 1763.49,482.649 1765.82,485.483 1768.5,488C 1774.88,488.899 1781.21,489.899 1787.5,491C 1792.63,497.185 1794.3,504.185 1792.5,512C 1795.43,521.405 1793.76,530.405 1787.5,539C 1789.1,543.372 1788.44,547.372 1785.5,551C 1786.51,558.162 1784.01,563.996 1778,568.5C 1781.57,580.524 1777.41,588.357 1765.5,592C 1759.7,593.38 1753.86,594.546 1748,595.5C 1743.16,595.073 1738.33,594.573 1733.5,594C 1731.83,592.833 1730.17,591.667 1728.5,590.5C 1725.33,591.719 1722.33,593.219 1719.5,595C 1716.27,603.536 1710.77,606.703 1703,604.5C 1701.22,605.24 1699.38,605.907 1697.5,606.5C 1693.06,605.76 1688.73,604.593 1684.5,603C 1681.32,600.486 1678.16,597.986 1675,595.5C 1672.91,597.126 1670.75,598.626 1668.5,600C 1658.11,603.389 1647.44,604.722 1636.5,604C 1633.8,603.235 1631.3,602.068 1629,600.5C 1627.46,602.378 1625.62,603.878 1623.5,605C 1614.06,605.251 1604.72,605.418 1595.5,605.5C 1586.3,604.401 1578.63,600.401 1572.5,593.5C 1567.47,597.231 1561.81,599.064 1555.5,599C 1553.28,603.086 1549.78,604.92 1545,604.5C 1542.1,604.363 1539.27,603.863 1536.5,603C 1532.68,601.008 1528.85,599.174 1525,597.5C 1522.22,598.472 1519.39,599.305 1516.5,600C 1508.77,599.07 1501.1,599.403 1493.5,601C 1487.59,599.963 1482.43,597.463 1478,593.5C 1475.5,596 1473,598.5 1470.5,601C 1462.74,602.882 1455.4,601.716 1448.5,597.5C 1446.2,598.03 1443.86,598.364 1441.5,598.5C 1433.39,597.344 1425.39,596.011 1417.5,594.5C 1416.17,594.833 1414.83,595.167 1413.5,595.5C 1412.64,597.197 1411.3,598.363 1409.5,599C 1403.7,599.878 1398.04,599.378 1392.5,597.5C 1385.55,599.444 1378.22,599.444 1370.5,597.5C 1368.12,598.012 1365.78,598.679 1363.5,599.5C 1356.03,597.447 1348.86,595.447 1342,593.5C 1339.09,596.394 1335.59,597.227 1331.5,596C 1328.06,594.224 1324.89,592.057 1322,589.5C 1312.73,598.456 1303.06,598.789 1293,590.5C 1291.22,591.479 1289.55,591.146 1288,589.5C 1285.31,590.783 1282.64,591.116 1280,590.5C 1270.16,592.877 1260.32,592.877 1250.5,590.5C 1248.03,590.795 1245.86,591.795 1244,593.5C 1240.94,592.708 1237.77,592.708 1234.5,593.5C 1229.32,593.314 1224.99,591.314 1221.5,587.5C 1219.96,588.747 1218.46,588.747 1217,587.5C 1214.16,590.609 1210.83,591.609 1207,590.5C 1206.17,591.333 1205.33,592.167 1204.5,593C 1201.47,593.361 1198.47,593.861 1195.5,594.5C 1192.89,593.366 1190.39,593.699 1188,595.5C 1186.24,595.025 1184.57,594.358 1183,593.5C 1182.2,594.804 1181.03,595.471 1179.5,595.5C 1173.62,595.057 1167.95,593.724 1162.5,591.5C 1160.9,594.614 1158.4,596.28 1155,596.5C 1149.91,595.929 1144.91,594.929 1140,593.5C 1133.83,597.127 1127.33,597.461 1120.5,594.5C 1116.34,594.937 1112.34,595.77 1108.5,597C 1103.84,597.313 1099.34,597.48 1095,597.5C 1092.86,596.764 1090.86,595.764 1089,594.5C 1084.66,596.026 1080.16,597.026 1075.5,597.5C 1073.62,596.976 1071.78,596.309 1070,595.5C 1067.67,596.5 1065.33,597.5 1063,598.5C 1057.05,596.516 1051.05,594.849 1045,593.5C 1043.44,595.91 1041.27,597.244 1038.5,597.5C 1033.58,595.87 1028.58,594.537 1023.5,593.5C 1018.42,594.537 1013.42,595.87 1008.5,597.5C 1005.73,597.244 1003.56,595.91 1002,593.5C 995.951,594.849 989.951,596.516 984,598.5C 981.667,597.5 979.333,596.5 977,595.5C 975.216,596.309 973.383,596.976 971.5,597.5C 966.843,597.026 962.343,596.026 958,594.5C 956.139,595.764 954.139,596.764 952,597.5C 947.658,597.48 943.158,597.313 938.5,597C 934.662,595.77 930.662,594.937 926.5,594.5C 919.665,597.461 913.165,597.127 907,593.5C 900.963,595.479 894.797,596.312 888.5,596C 886.981,594.649 885.648,593.149 884.5,591.5C 879.052,593.724 873.385,595.057 867.5,595.5C 865.971,595.471 864.804,594.804 864,593.5C 860.829,596.058 857.662,596.058 854.5,593.5C 853.554,593.987 852.554,594.32 851.5,594.5C 848.525,593.861 845.525,593.361 842.5,593C 840.753,590.903 838.42,590.237 835.5,591C 833.667,589.833 831.833,588.667 830,587.5C 828.542,588.747 827.042,588.747 825.5,587.5C 822.015,591.314 817.682,593.314 812.5,593.5C 809.228,592.708 806.061,592.708 803,593.5C 801.137,591.795 798.971,590.795 796.5,590.5C 786.675,592.877 776.842,592.877 767,590.5C 764.36,591.116 761.694,590.783 759,589.5C 757.445,591.146 755.779,591.479 754,590.5C 743.936,598.789 734.269,598.456 725,589.5C 720.338,594.918 714.505,597.084 707.5,596C 706.667,595.167 705.833,594.333 705,593.5C 698.141,595.447 690.974,597.447 683.5,599.5C 681.217,598.679 678.884,598.012 676.5,597.5C 668.779,599.444 661.446,599.444 654.5,597.5C 648.963,599.378 643.296,599.878 637.5,599C 635.697,598.363 634.364,597.197 633.5,595.5C 632.167,595.167 630.833,594.833 629.5,594.5C 621.606,596.011 613.606,597.344 605.5,598.5C 603.135,598.364 600.802,598.03 598.5,597.5C 591.598,601.716 584.265,602.882 576.5,601C 574,598.5 571.5,596 569,593.5C 564.573,597.463 559.406,599.963 553.5,601C 545.896,599.403 538.229,599.07 530.5,600C 527.615,599.305 524.782,598.472 522,597.5C 518.149,599.174 514.316,601.008 510.5,603C 505.151,604.929 499.818,604.929 494.5,603C 493.743,601.488 492.743,600.154 491.5,599C 485.192,599.064 479.526,597.231 474.5,593.5C 468.366,600.401 460.699,604.401 451.5,605.5C 442.277,605.418 432.944,605.251 423.5,605C 421.376,603.878 419.543,602.378 418,600.5C 411.662,604.249 404.829,605.415 397.5,604C 392.167,603 386.833,602 381.5,601C 377.84,600.005 374.674,598.171 372,595.5C 368.844,597.986 365.678,600.486 362.5,603C 358.269,604.593 353.935,605.76 349.5,606.5C 347.618,605.907 345.785,605.24 344,604.5C 336.23,606.703 330.73,603.536 327.5,595C 324.667,593.219 321.667,591.719 318.5,590.5C 316.833,591.667 315.167,592.833 313.5,594C 299.886,597.005 286.886,595.339 274.5,589C 272.291,587.127 270.458,584.96 269,582.5C 269.393,577.868 269.393,573.201 269,568.5C 262.988,563.996 260.488,558.162 261.5,551C 258.562,547.372 257.895,543.372 259.5,539C 253.239,530.405 251.572,521.405 254.5,512C 252.373,503.153 254.707,495.819 261.5,490C 267.627,489.902 273.627,489.069 279.5,487.5C 281.5,484.833 283.5,482.167 285.5,479.5C 290.137,478.172 294.804,477.005 299.5,476C 302.816,472.354 306.482,469.021 310.5,466C 313.167,465.333 315.833,465.333 318.5,466C 324.183,467.944 330.016,469.444 336,470.5C 339.132,468.755 341.965,466.588 344.5,464C 348.167,463.333 351.833,463.333 355.5,464C 358.872,465.606 362.372,466.772 366,467.5C 376.84,465.641 387.173,462.974 397,459.5C 403.211,460.692 409.377,462.026 415.5,463.5C 419.971,461.443 424.471,461.776 429,464.5C 432.531,462.204 436.198,461.204 440,461.5C 444.797,463.9 449.464,466.567 454,469.5C 458.443,468.696 462.943,468.863 467.5,470C 468,470.5 468.5,471 469,471.5C 471.281,468.097 474.114,465.263 477.5,463C 482.69,461.262 488.024,460.095 493.5,459.5C 500.243,460.793 506.743,462.793 513,465.5C 516.256,463.571 519.756,463.071 523.5,464C 529.107,466.719 534.607,469.553 540,472.5C 543.151,471.907 546.318,471.407 549.5,471C 553.996,467.173 558.996,464.173 564.5,462C 571.823,461.342 578.323,460.842 584,460.5C 587.628,462.065 591.128,463.732 594.5,465.5C 597.248,464.961 599.915,464.128 602.5,463C 605.5,462.333 608.5,462.333 611.5,463C 618.56,465.932 625.893,467.932 633.5,469C 635.09,470.046 636.59,471.213 638,472.5C 645.607,466.607 653.274,465.94 661,470.5C 665.858,466.931 671.025,466.598 676.5,469.5C 682.446,467.371 688.28,465.038 694,462.5C 697.419,463.313 701.086,464.313 705,465.5C 710.234,462.918 715.734,462.085 721.5,463C 722.354,464.022 723.354,464.855 724.5,465.5C 730.776,463.37 737.11,463.37 743.5,465.5C 749.703,461.631 756.369,460.631 763.5,462.5C 765.956,461.052 768.622,460.386 771.5,460.5C 777.477,462.9 783.81,464.566 790.5,465.5C 794.783,463.696 799.116,461.863 803.5,460C 808.215,458.621 812.215,459.621 815.5,463C 817.101,463.273 818.601,463.773 820,464.5C 825.502,461.907 831.335,459.907 837.5,458.5C 844.482,459.996 850.982,462.663 857,466.5C 862.568,466.476 867.402,464.643 871.5,461C 876.816,460.13 881.816,458.63 886.5,456.5 Z"/></g>
<g><path style="opacity:0.998" fill="#0d0a09" d="M 656.5,638.5 C 663.196,637.615 667.696,640.281 670,646.5C 673.082,645.79 675.749,646.79 678,649.5C 678.511,651.878 679.178,654.212 680,656.5C 686.636,659.242 690.136,663.909 690.5,670.5C 695.891,673.269 700.057,677.269 703,682.5C 703.152,688.539 704.319,694.372 706.5,700C 704.413,702.245 703.079,704.912 702.5,708C 706.632,711.033 708.465,715.199 708,720.5C 710.403,722.305 712.07,724.638 713,727.5C 713.324,732.754 714.158,737.921 715.5,743C 714.561,744.944 713.227,746.611 711.5,748C 716.668,753.361 717.668,759.361 714.5,766C 716.317,770.355 716.817,774.855 716,779.5C 715.097,780.701 713.931,781.535 712.5,782C 713.748,785.118 713.414,788.118 711.5,791C 713.43,794.194 715.097,797.527 716.5,801C 716.097,802.473 715.43,803.806 714.5,805C 714.386,807.811 714.719,810.478 715.5,813C 713.042,818.688 713.042,824.355 715.5,830C 715.445,834.727 713.112,837.727 708.5,839C 709.504,845.321 707.671,850.821 703,855.5C 703.438,860.797 703.438,866.13 703,871.5C 701.382,874.943 699.215,877.943 696.5,880.5C 694.153,890.181 688.487,897.181 679.5,901.5C 676.382,900.441 673.382,899.108 670.5,897.5C 665.631,906.168 658.131,910.501 648,910.5C 645.316,909.903 642.483,909.903 639.5,910.5C 635.008,909.184 630.341,908.351 625.5,908C 622.954,904.41 620.787,900.577 619,896.5C 611.351,898.743 604.518,897.243 598.5,892C 596.926,890.174 596.093,888.007 596,885.5C 595,884.5 594,883.5 593,882.5C 592.821,879.447 592.321,876.447 591.5,873.5C 587.849,870.349 584.349,867.016 581,863.5C 580.761,858.528 581.594,853.695 583.5,849C 582.015,846.844 580.515,844.677 579,842.5C 578.845,840.144 578.845,837.811 579,835.5C 576.33,832.813 574.164,829.813 572.5,826.5C 572.376,820.212 573.042,814.046 574.5,808C 569.897,804.298 567.23,799.464 566.5,793.5C 566.848,791.303 567.848,789.47 569.5,788C 564.896,780.364 566.063,774.197 573,769.5C 573.454,767.464 574.287,765.63 575.5,764C 573.154,760.135 571.488,755.968 570.5,751.5C 573.567,745.68 574.233,739.847 572.5,734C 573.958,731.54 575.791,729.373 578,727.5C 578.253,720.124 578.919,712.791 580,705.5C 582.106,703.54 584.273,701.706 586.5,700C 585.622,696.454 586.122,692.621 588,688.5C 593.746,680.083 600.246,672.25 607.5,665C 610.912,662.694 614.579,660.86 618.5,659.5C 622.812,646.38 631.812,641.213 645.5,644C 648.99,641.588 652.657,639.755 656.5,638.5 Z"/></g>
<g><path style="opacity:0.998" fill="#0d0a09" d="M 1385.5,638.5 C 1391.48,638.493 1396.81,640.327 1401.5,644C 1415.19,641.213 1424.19,646.38 1428.5,659.5C 1432.42,660.86 1436.09,662.694 1439.5,665C 1448.87,674.016 1456.21,684.349 1461.5,696C 1461.54,697.245 1461.21,698.578 1460.5,700C 1462.73,701.706 1464.89,703.54 1467,705.5C 1468.08,712.791 1468.75,720.124 1469,727.5C 1471.21,729.373 1473.04,731.54 1474.5,734C 1472.77,739.847 1473.43,745.68 1476.5,751.5C 1475.51,755.968 1473.85,760.135 1471.5,764C 1472.5,768.331 1475,771.498 1479,773.5C 1479.31,774.766 1479.81,775.933 1480.5,777C 1479.87,780.76 1478.87,784.427 1477.5,788C 1480.97,791.391 1481.47,795.224 1479,799.5C 1477.57,802.927 1475.4,805.76 1472.5,808C 1473.96,814.046 1474.62,820.212 1474.5,826.5C 1472.84,829.813 1470.67,832.813 1468,835.5C 1468.16,837.811 1468.16,840.144 1468,842.5C 1466.49,844.677 1464.99,846.844 1463.5,849C 1465.41,853.695 1466.24,858.528 1466,863.5C 1462.65,867.016 1459.15,870.349 1455.5,873.5C 1454.68,876.447 1454.18,879.447 1454,882.5C 1453,883.5 1452,884.5 1451,885.5C 1450.91,888.007 1450.07,890.174 1448.5,892C 1442.48,897.243 1435.65,898.743 1428,896.5C 1426.21,900.577 1424.05,904.41 1421.5,908C 1416.66,908.351 1411.99,909.184 1407.5,910.5C 1404.52,909.903 1401.68,909.903 1399,910.5C 1388.87,910.501 1381.37,906.168 1376.5,897.5C 1373.62,899.108 1370.62,900.441 1367.5,901.5C 1358.51,897.181 1352.85,890.181 1350.5,880.5C 1347.78,877.943 1345.62,874.943 1344,871.5C 1343.56,866.13 1343.56,860.797 1344,855.5C 1339.33,850.821 1337.5,845.321 1338.5,839C 1333.89,837.727 1331.55,834.727 1331.5,830C 1333.96,824.355 1333.96,818.688 1331.5,813C 1332.28,810.478 1332.61,807.811 1332.5,805C 1331.57,803.806 1330.9,802.473 1330.5,801C 1331.9,797.527 1333.57,794.194 1335.5,791C 1333.59,788.118 1333.25,785.118 1334.5,782C 1331.14,780.865 1329.81,778.532 1330.5,775C 1330.55,771.863 1331.21,768.863 1332.5,766C 1329.33,759.361 1330.33,753.361 1335.5,748C 1333.77,746.611 1332.44,744.944 1331.5,743C 1332.84,737.921 1333.68,732.754 1334,727.5C 1334.93,724.638 1336.6,722.305 1339,720.5C 1338.53,715.199 1340.37,711.033 1344.5,708C 1343.92,704.912 1342.59,702.245 1340.5,700C 1342.68,694.372 1343.85,688.539 1344,682.5C 1346.94,677.269 1351.11,673.269 1356.5,670.5C 1356.86,663.909 1360.36,659.242 1367,656.5C 1367.13,650.375 1370.13,646.709 1376,645.5C 1376.33,645.833 1376.67,646.167 1377,646.5C 1378.38,644.246 1379.88,642.08 1381.5,640C 1383.06,639.79 1384.39,639.29 1385.5,638.5 Z"/></g>
<g><path style="opacity:0.999" fill="#0d0a09" d="M 886.5,948.5 C 888.01,949.728 889.51,949.728 891,948.5C 893.537,951.046 896.537,952.712 900,953.5C 902.516,951.19 905.182,951.19 908,953.5C 913.51,949.33 919.677,947.83 926.5,949C 929.92,950.906 933.42,952.739 937,954.5C 940.743,951.759 944.909,950.925 949.5,952C 952.205,954.351 955.205,956.184 958.5,957.5C 961.938,954.732 965.605,952.232 969.5,950C 975.016,948.899 980.183,949.733 985,952.5C 988.283,949.683 992.117,948.35 996.5,948.5C 1001.04,949.43 1005.54,950.764 1010,952.5C 1013.9,950.757 1017.9,949.424 1022,948.5C 1026.97,948.91 1031.97,950.244 1037,952.5C 1043.75,948.407 1050.92,947.574 1058.5,950C 1059.93,950.465 1061.1,951.299 1062,952.5C 1066.82,949.733 1071.98,948.899 1077.5,950C 1081.4,952.232 1085.06,954.732 1088.5,957.5C 1091.8,956.184 1094.8,954.351 1097.5,952C 1102.09,950.925 1106.26,951.759 1110,954.5C 1113.58,952.739 1117.08,950.906 1120.5,949C 1127.32,947.83 1133.49,949.33 1139,953.5C 1141.82,951.19 1144.48,951.19 1147,953.5C 1150.46,952.712 1153.46,951.046 1156,948.5C 1162.32,949.675 1168.82,951.175 1175.5,953C 1182.77,958.959 1190.1,959.292 1197.5,954C 1201.4,952.628 1205.4,951.462 1209.5,950.5C 1215.67,951.907 1221.5,953.907 1227,956.5C 1230.13,956.087 1232.63,954.587 1234.5,952C 1237.5,951.333 1240.5,951.333 1243.5,952C 1247.88,953.863 1252.22,955.696 1256.5,957.5C 1263.19,956.566 1269.52,954.9 1275.5,952.5C 1278.38,952.386 1281.04,953.052 1283.5,954.5C 1290.63,952.631 1297.3,953.631 1303.5,957.5C 1309.89,955.37 1316.22,955.37 1322.5,957.5C 1324.41,955.114 1326.91,954.114 1330,954.5C 1334.16,954.887 1338.16,955.887 1342,957.5C 1345.91,956.313 1349.58,955.313 1353,954.5C 1358.72,957.038 1364.55,959.371 1370.5,961.5C 1375.97,958.598 1381.14,958.931 1386,962.5C 1393.73,957.94 1401.39,958.607 1409,964.5C 1410.41,963.213 1411.91,962.046 1413.5,961C 1421.11,959.932 1428.44,957.932 1435.5,955C 1438.5,954.333 1441.5,954.333 1444.5,955C 1447.09,956.128 1449.75,956.961 1452.5,957.5C 1455.87,955.732 1459.37,954.065 1463,952.5C 1468.68,952.842 1475.18,953.342 1482.5,954C 1488,956.173 1493,959.173 1497.5,963C 1500.68,963.407 1503.85,963.907 1507,964.5C 1512.39,961.553 1517.89,958.719 1523.5,956C 1527.24,955.071 1530.74,955.571 1534,957.5C 1540.26,954.793 1546.76,952.793 1553.5,951.5C 1558.98,952.095 1564.31,953.262 1569.5,955C 1572.89,957.263 1575.72,960.097 1578,963.5C 1578.5,963 1579,962.5 1579.5,962C 1584.06,960.863 1588.56,960.696 1593,961.5C 1597.54,958.567 1602.2,955.9 1607,953.5C 1610.8,953.204 1614.47,954.204 1618,956.5C 1622.53,953.776 1627.03,953.443 1631.5,955.5C 1638.73,953.357 1645.9,952.023 1653,951.5C 1662.02,955.213 1671.35,957.88 1681,959.5C 1684.63,958.772 1688.13,957.606 1691.5,956C 1695.17,955.333 1698.83,955.333 1702.5,956C 1705.03,958.588 1707.87,960.755 1711,962.5C 1716.98,961.444 1722.82,959.944 1728.5,958C 1731.17,957.333 1733.83,957.333 1736.5,958C 1740.52,961.021 1744.18,964.354 1747.5,968C 1752.2,969.005 1756.86,970.172 1761.5,971.5C 1763.49,974.649 1765.82,977.483 1768.5,980C 1774.88,980.899 1781.21,981.899 1787.5,983C 1792.63,989.185 1794.3,996.185 1792.5,1004C 1795.43,1013.4 1793.76,1022.4 1787.5,1031C 1789.1,1035.37 1788.44,1039.37 1785.5,1043C 1786.51,1050.16 1784.01,1056 1778,1060.5C 1781.57,1072.52 1777.41,1080.36 1765.5,1084C 1759.7,1085.38 1753.86,1086.55 1748,1087.5C 1743.16,1087.07 1738.33,1086.57 1733.5,1086C 1731.83,1084.83 1730.17,1083.67 1728.5,1082.5C 1725.33,1083.72 1722.33,1085.22 1719.5,1087C 1716.27,1095.54 1710.77,1098.7 1703,1096.5C 1701.22,1097.24 1699.38,1097.91 1697.5,1098.5C 1693.06,1097.76 1688.73,1096.59 1684.5,1095C 1681.32,1092.49 1678.16,1089.99 1675,1087.5C 1672.91,1089.13 1670.75,1090.63 1668.5,1092C 1658.11,1095.39 1647.44,1096.72 1636.5,1096C 1633.8,1095.24 1631.3,1094.07 1629,1092.5C 1627.46,1094.38 1625.62,1095.88 1623.5,1097C 1614.06,1097.25 1604.72,1097.42 1595.5,1097.5C 1586.3,1096.4 1578.63,1092.4 1572.5,1085.5C 1567.47,1089.23 1561.81,1091.06 1555.5,1091C 1553.28,1095.09 1549.78,1096.92 1545,1096.5C 1542.1,1096.36 1539.27,1095.86 1536.5,1095C 1532.68,1093.01 1528.85,1091.17 1525,1089.5C 1522.22,1090.47 1519.39,1091.31 1516.5,1092C 1508.77,1091.07 1501.1,1091.4 1493.5,1093C 1487.59,1091.96 1482.43,1089.46 1478,1085.5C 1475.5,1088 1473,1090.5 1470.5,1093C 1462.74,1094.88 1455.4,1093.72 1448.5,1089.5C 1446.2,1090.03 1443.86,1090.36 1441.5,1090.5C 1433.39,1089.34 1425.39,1088.01 1417.5,1086.5C 1416.17,1086.83 1414.83,1087.17 1413.5,1087.5C 1412.64,1089.2 1411.3,1090.36 1409.5,1091C 1403.7,1091.88 1398.04,1091.38 1392.5,1089.5C 1385.55,1091.44 1378.22,1091.44 1370.5,1089.5C 1368.12,1090.01 1365.78,1090.68 1363.5,1091.5C 1356.03,1089.45 1348.86,1087.45 1342,1085.5C 1339.09,1088.39 1335.59,1089.23 1331.5,1088C 1328.06,1086.22 1324.89,1084.06 1322,1081.5C 1312.73,1090.46 1303.06,1090.79 1293,1082.5C 1291.22,1083.48 1289.55,1083.15 1288,1081.5C 1285.31,1082.78 1282.64,1083.12 1280,1082.5C 1270.16,1084.88 1260.32,1084.88 1250.5,1082.5C 1248.03,1082.79 1245.86,1083.79 1244,1085.5C 1240.94,1084.71 1237.77,1084.71 1234.5,1085.5C 1229.32,1085.31 1224.99,1083.31 1221.5,1079.5C 1219.96,1080.75 1218.46,1080.75 1217,1079.5C 1214.16,1082.61 1210.83,1083.61 1207,1082.5C 1206.17,1083.33 1205.33,1084.17 1204.5,1085C 1201.47,1085.36 1198.47,1085.86 1195.5,1086.5C 1192.89,1085.37 1190.39,1085.7 1188,1087.5C 1186.24,1087.02 1184.57,1086.36 1183,1085.5C 1182.2,1086.8 1181.03,1087.47 1179.5,1087.5C 1173.62,1087.06 1167.95,1085.72 1162.5,1083.5C 1160.9,1086.61 1158.4,1088.28 1155,1088.5C 1149.91,1087.93 1144.91,1086.93 1140,1085.5C 1133.83,1089.13 1127.33,1089.46 1120.5,1086.5C 1116.34,1086.94 1112.34,1087.77 1108.5,1089C 1103.84,1089.31 1099.34,1089.48 1095,1089.5C 1092.86,1088.76 1090.86,1087.76 1089,1086.5C 1084.66,1088.03 1080.16,1089.03 1075.5,1089.5C 1073.62,1088.98 1071.78,1088.31 1070,1087.5C 1067.67,1088.5 1065.33,1089.5 1063,1090.5C 1057.05,1088.52 1051.05,1086.85 1045,1085.5C 1043.44,1087.91 1041.27,1089.24 1038.5,1089.5C 1033.58,1087.87 1028.58,1086.54 1023.5,1085.5C 1018.42,1086.54 1013.42,1087.87 1008.5,1089.5C 1005.73,1089.24 1003.56,1087.91 1002,1085.5C 995.951,1086.85 989.951,1088.52 984,1090.5C 981.667,1089.5 979.333,1088.5 977,1087.5C 975.216,1088.31 973.383,1088.98 971.5,1089.5C 966.843,1089.03 962.343,1088.03 958,1086.5C 956.139,1087.76 954.139,1088.76 952,1089.5C 947.658,1089.48 943.158,1089.31 938.5,1089C 934.662,1087.77 930.662,1086.94 926.5,1086.5C 919.665,1089.46 913.165,1089.13 907,1085.5C 900.963,1087.48 894.797,1088.31 888.5,1088C 886.981,1086.65 885.648,1085.15 884.5,1083.5C 879.052,1085.72 873.385,1087.06 867.5,1087.5C 865.971,1087.47 864.804,1086.8 864,1085.5C 860.829,1088.06 857.662,1088.06 854.5,1085.5C 853.554,1085.99 852.554,1086.32 851.5,1086.5C 848.525,1085.86 845.525,1085.36 842.5,1085C 840.753,1082.9 838.42,1082.24 835.5,1083C 833.667,1081.83 831.833,1080.67 830,1079.5C 828.542,1080.75 827.042,1080.75 825.5,1079.5C 822.015,1083.31 817.682,1085.31 812.5,1085.5C 809.228,1084.71 806.061,1084.71 803,1085.5C 801.137,1083.79 798.971,1082.79 796.5,1082.5C 786.675,1084.88 776.842,1084.88 767,1082.5C 764.36,1083.12 761.694,1082.78 759,1081.5C 757.445,1083.15 755.779,1083.48 754,1082.5C 743.936,1090.79 734.269,1090.46 725,1081.5C 720.338,1086.92 714.505,1089.08 707.5,1088C 706.667,1087.17 705.833,1086.33 705,1085.5C 698.141,1087.45 690.974,1089.45 683.5,1091.5C 681.217,1090.68 678.884,1090.01 676.5,1089.5C 668.779,1091.44 661.446,1091.44 654.5,1089.5C 648.963,1091.38 643.296,1091.88 637.5,1091C 635.697,1090.36 634.364,1089.2 633.5,1087.5C 632.167,1087.17 630.833,1086.83 629.5,1086.5C 621.606,1088.01 613.606,1089.34 605.5,1090.5C 603.135,1090.36 600.802,1090.03 598.5,1089.5C 591.598,1093.72 584.265,1094.88 576.5,1093C 574,1090.5 571.5,1088 569,1085.5C 564.573,1089.46 559.406,1091.96 553.5,1093C 545.896,1091.4 538.229,1091.07 530.5,1092C 527.615,1091.31 524.782,1090.47 522,1089.5C 518.149,1091.17 514.316,1093.01 510.5,1095C 505.151,1096.93 499.818,1096.93 494.5,1095C 493.743,1093.49 492.743,1092.15 491.5,1091C 485.192,1091.06 479.526,1089.23 474.5,1085.5C 468.366,1092.4 460.699,1096.4 451.5,1097.5C 442.277,1097.42 432.944,1097.25 423.5,1097C 421.376,1095.88 419.543,1094.38 418,1092.5C 411.662,1096.25 404.829,1097.42 397.5,1096C 392.167,1095 386.833,1094 381.5,1093C 377.84,1092 374.674,1090.17 372,1087.5C 368.844,1089.99 365.678,1092.49 362.5,1095C 358.269,1096.59 353.935,1097.76 349.5,1098.5C 347.618,1097.91 345.785,1097.24 344,1096.5C 336.23,1098.7 330.73,1095.54 327.5,1087C 324.667,1085.22 321.667,1083.72 318.5,1082.5C 316.833,1083.67 315.167,1084.83 313.5,1086C 299.886,1089.01 286.886,1087.34 274.5,1081C 272.291,1079.13 270.458,1076.96 269,1074.5C 269.393,1069.87 269.393,1065.2 269,1060.5C 262.988,1056 260.488,1050.16 261.5,1043C 258.562,1039.37 257.895,1035.37 259.5,1031C 253.239,1022.4 251.572,1013.4 254.5,1004C 252.373,995.153 254.707,987.819 261.5,982C 267.627,981.902 273.627,981.069 279.5,979.5C 281.5,976.833 283.5,974.167 285.5,971.5C 290.137,970.172 294.804,969.005 299.5,968C 302.816,964.354 306.482,961.021 310.5,958C 313.167,957.333 315.833,957.333 318.5,958C 324.183,959.944 330.016,961.444 336,962.5C 339.132,960.755 341.965,958.588 344.5,956C 348.167,955.333 351.833,955.333 355.5,956C 358.872,957.606 362.372,958.772 366,959.5C 376.84,957.641 387.173,954.974 397,951.5C 403.211,952.692 409.377,954.026 415.5,955.5C 419.971,953.443 424.471,953.776 429,956.5C 432.531,954.204 436.198,953.204 440,953.5C 444.797,955.9 449.464,958.567 454,961.5C 458.443,960.696 462.943,960.863 467.5,962C 468,962.5 468.5,963 469,963.5C 471.281,960.097 474.114,957.263 477.5,955C 482.69,953.262 488.024,952.095 493.5,951.5C 500.243,952.793 506.743,954.793 513,957.5C 516.256,955.571 519.756,955.071 523.5,956C 529.107,958.719 534.607,961.553 540,964.5C 543.151,963.907 546.318,963.407 549.5,963C 553.996,959.173 558.996,956.173 564.5,954C 571.823,953.342 578.323,952.842 584,952.5C 587.628,954.065 591.128,955.732 594.5,957.5C 597.248,956.961 599.915,956.128 602.5,955C 605.5,954.333 608.5,954.333 611.5,955C 618.56,957.932 625.893,959.932 633.5,961C 635.09,962.046 636.59,963.213 638,964.5C 645.607,958.607 653.274,957.94 661,962.5C 665.858,958.931 671.025,958.598 676.5,961.5C 682.446,959.371 688.28,957.038 694,954.5C 697.419,955.313 701.086,956.313 705,957.5C 710.234,954.918 715.734,954.085 721.5,955C 722.354,956.022 723.354,956.855 724.5,957.5C 730.776,955.37 737.11,955.37 743.5,957.5C 749.703,953.631 756.369,952.631 763.5,954.5C 765.956,953.052 768.622,952.386 771.5,952.5C 777.477,954.9 783.81,956.566 790.5,957.5C 794.783,955.696 799.116,953.863 803.5,952C 808.215,950.621 812.215,951.621 815.5,955C 817.101,955.273 818.601,955.773 820,956.5C 825.502,953.907 831.335,951.907 837.5,950.5C 844.482,951.996 850.982,954.663 857,958.5C 862.568,958.476 867.402,956.643 871.5,953C 876.816,952.13 881.816,950.63 886.5,948.5 Z"/></g>
<g><path style="opacity:0.997" fill="#0c0a0a" d="M 1019.5,1113.5 C 1023.96,1112.88 1027.96,1113.88 1031.5,1116.5C 1035.35,1116.34 1039.18,1116 1043,1115.5C 1046.51,1118.68 1050.68,1120.51 1055.5,1121C 1059.41,1125.16 1060.41,1130 1058.5,1135.5C 1059.73,1137.89 1060.73,1140.39 1061.5,1143C 1060.17,1144.67 1060.17,1146.33 1061.5,1148C 1060.99,1150.53 1059.83,1152.7 1058,1154.5C 1057.76,1160.43 1055.26,1165.27 1050.5,1169C 1043.21,1172.22 1036.38,1176.06 1030,1180.5C 1027.8,1179.91 1025.64,1179.24 1023.5,1178.5C 1017.11,1181.48 1011.78,1180.15 1007.5,1174.5C 1000.11,1172.23 994.275,1167.89 990,1161.5C 989.667,1159.17 989.333,1156.83 989,1154.5C 987.173,1152.7 986.006,1150.53 985.5,1148C 986.833,1146.33 986.833,1144.67 985.5,1143C 986.275,1140.39 987.275,1137.89 988.5,1135.5C 985.367,1125.36 989.033,1119.86 999.5,1119C 1000.73,1117.47 1002.23,1116.3 1004,1115.5C 1007.82,1116 1011.65,1116.34 1015.5,1116.5C 1016.9,1115.48 1018.23,1114.48 1019.5,1113.5 Z"/></g>
<g><path style="opacity:0.999" fill="#0d0a09" d="M 886.5,1415.5 C 888.01,1416.73 889.51,1416.73 891,1415.5C 893.537,1418.05 896.537,1419.71 900,1420.5C 902.516,1418.19 905.182,1418.19 908,1420.5C 913.51,1416.33 919.677,1414.83 926.5,1416C 929.92,1417.91 933.42,1419.74 937,1421.5C 940.743,1418.76 944.909,1417.93 949.5,1419C 952.205,1421.35 955.205,1423.18 958.5,1424.5C 961.938,1421.73 965.605,1419.23 969.5,1417C 975.016,1415.9 980.183,1416.73 985,1419.5C 988.283,1416.68 992.117,1415.35 996.5,1415.5C 1001.04,1416.43 1005.54,1417.76 1010,1419.5C 1013.9,1417.76 1017.9,1416.42 1022,1415.5C 1026.97,1415.91 1031.97,1417.24 1037,1419.5C 1043.75,1415.41 1050.92,1414.57 1058.5,1417C 1059.93,1417.47 1061.1,1418.3 1062,1419.5C 1066.82,1416.73 1071.98,1415.9 1077.5,1417C 1081.4,1419.23 1085.06,1421.73 1088.5,1424.5C 1091.8,1423.18 1094.8,1421.35 1097.5,1419C 1102.09,1417.93 1106.26,1418.76 1110,1421.5C 1113.58,1419.74 1117.08,1417.91 1120.5,1416C 1127.32,1414.83 1133.49,1416.33 1139,1420.5C 1141.82,1418.19 1144.48,1418.19 1147,1420.5C 1150.46,1419.71 1153.46,1418.05 1156,1415.5C 1162.32,1416.68 1168.82,1418.18 1175.5,1420C 1182.77,1425.96 1190.1,1426.29 1197.5,1421C 1201.4,1419.63 1205.4,1418.46 1209.5,1417.5C 1215.67,1418.91 1221.5,1420.91 1227,1423.5C 1230.13,1423.09 1232.63,1421.59 1234.5,1419C 1237.5,1418.33 1240.5,1418.33 1243.5,1419C 1247.88,1420.86 1252.22,1422.7 1256.5,1424.5C 1263.19,1423.57 1269.52,1421.9 1275.5,1419.5C 1278.38,1419.39 1281.04,1420.05 1283.5,1421.5C 1290.63,1419.63 1297.3,1420.63 1303.5,1424.5C 1309.89,1422.37 1316.22,1422.37 1322.5,1424.5C 1324.41,1422.11 1326.91,1421.11 1330,1421.5C 1334.16,1421.89 1338.16,1422.89 1342,1424.5C 1345.91,1423.31 1349.58,1422.31 1353,1421.5C 1358.72,1424.04 1364.55,1426.37 1370.5,1428.5C 1375.97,1425.6 1381.14,1425.93 1386,1429.5C 1393.73,1424.94 1401.39,1425.61 1409,1431.5C 1410.41,1430.21 1411.91,1429.05 1413.5,1428C 1421.11,1426.93 1428.44,1424.93 1435.5,1422C 1438.5,1421.33 1441.5,1421.33 1444.5,1422C 1447.09,1423.13 1449.75,1423.96 1452.5,1424.5C 1455.87,1422.73 1459.37,1421.07 1463,1419.5C 1468.68,1419.84 1475.18,1420.34 1482.5,1421C 1488,1423.17 1493,1426.17 1497.5,1430C 1500.68,1430.41 1503.85,1430.91 1507,1431.5C 1512.39,1428.55 1517.89,1425.72 1523.5,1423C 1527.24,1422.07 1530.74,1422.57 1534,1424.5C 1540.26,1421.79 1546.76,1419.79 1553.5,1418.5C 1558.98,1419.09 1564.31,1420.26 1569.5,1422C 1572.89,1424.26 1575.72,1427.1 1578,1430.5C 1578.5,1430 1579,1429.5 1579.5,1429C 1584.06,1427.86 1588.56,1427.7 1593,1428.5C 1597.54,1425.57 1602.2,1422.9 1607,1420.5C 1610.8,1420.2 1614.47,1421.2 1618,1423.5C 1622.53,1420.78 1627.03,1420.44 1631.5,1422.5C 1638.73,1420.36 1645.9,1419.02 1653,1418.5C 1662.02,1422.21 1671.35,1424.88 1681,1426.5C 1684.63,1425.77 1688.13,1424.61 1691.5,1423C 1695.17,1422.33 1698.83,1422.33 1702.5,1423C 1705.03,1425.59 1707.87,1427.75 1711,1429.5C 1716.98,1428.44 1722.82,1426.94 1728.5,1425C 1731.17,1424.33 1733.83,1424.33 1736.5,1425C 1740.52,1428.02 1744.18,1431.35 1747.5,1435C 1752.2,1436 1756.86,1437.17 1761.5,1438.5C 1763.49,1441.65 1765.82,1444.48 1768.5,1447C 1774.88,1447.9 1781.21,1448.9 1787.5,1450C 1792.63,1456.19 1794.3,1463.19 1792.5,1471C 1795.43,1480.4 1793.76,1489.4 1787.5,1498C 1789.1,1502.37 1788.44,1506.37 1785.5,1510C 1786.51,1517.16 1784.01,1523 1778,1527.5C 1781.57,1539.52 1777.41,1547.36 1765.5,1551C 1759.7,1552.38 1753.86,1553.55 1748,1554.5C 1743.16,1554.07 1738.33,1553.57 1733.5,1553C 1731.83,1551.83 1730.17,1550.67 1728.5,1549.5C 1725.33,1550.72 1722.33,1552.22 1719.5,1554C 1716.27,1562.54 1710.77,1565.7 1703,1563.5C 1701.22,1564.24 1699.38,1564.91 1697.5,1565.5C 1693.06,1564.76 1688.73,1563.59 1684.5,1562C 1681.32,1559.49 1678.16,1556.99 1675,1554.5C 1672.91,1556.13 1670.75,1557.63 1668.5,1559C 1658.11,1562.39 1647.44,1563.72 1636.5,1563C 1633.8,1562.24 1631.3,1561.07 1629,1559.5C 1627.46,1561.38 1625.62,1562.88 1623.5,1564C 1614.06,1564.25 1604.72,1564.42 1595.5,1564.5C 1586.3,1563.4 1578.63,1559.4 1572.5,1552.5C 1567.47,1556.23 1561.81,1558.06 1555.5,1558C 1553.28,1562.09 1549.78,1563.92 1545,1563.5C 1542.1,1563.36 1539.27,1562.86 1536.5,1562C 1532.68,1560.01 1528.85,1558.17 1525,1556.5C 1522.22,1557.47 1519.39,1558.31 1516.5,1559C 1508.77,1558.07 1501.1,1558.4 1493.5,1560C 1487.59,1558.96 1482.43,1556.46 1478,1552.5C 1475.5,1555 1473,1557.5 1470.5,1560C 1462.74,1561.88 1455.4,1560.72 1448.5,1556.5C 1446.2,1557.03 1443.86,1557.36 1441.5,1557.5C 1433.39,1556.34 1425.39,1555.01 1417.5,1553.5C 1416.17,1553.83 1414.83,1554.17 1413.5,1554.5C 1412.64,1556.2 1411.3,1557.36 1409.5,1558C 1403.7,1558.88 1398.04,1558.38 1392.5,1556.5C 1385.55,1558.44 1378.22,1558.44 1370.5,1556.5C 1368.12,1557.01 1365.78,1557.68 1363.5,1558.5C 1356.03,1556.45 1348.86,1554.45 1342,1552.5C 1339.09,1555.39 1335.59,1556.23 1331.5,1555C 1328.06,1553.22 1324.89,1551.06 1322,1548.5C 1312.73,1557.46 1303.06,1557.79 1293,1549.5C 1291.22,1550.48 1289.55,1550.15 1288,1548.5C 1285.31,1549.78 1282.64,1550.12 1280,1549.5C 1270.16,1551.88 1260.32,1551.88 1250.5,1549.5C 1248.03,1549.79 1245.86,1550.79 1244,1552.5C 1240.94,1551.71 1237.77,1551.71 1234.5,1552.5C 1229.32,1552.31 1224.99,1550.31 1221.5,1546.5C 1219.96,1547.75 1218.46,1547.75 1217,1546.5C 1214.16,1549.61 1210.83,1550.61 1207,1549.5C 1206.17,1550.33 1205.33,1551.17 1204.5,1552C 1201.47,1552.36 1198.47,1552.86 1195.5,1553.5C 1192.89,1552.37 1190.39,1552.7 1188,1554.5C 1186.24,1554.02 1184.57,1553.36 1183,1552.5C 1182.2,1553.8 1181.03,1554.47 1179.5,1554.5C 1173.62,1554.06 1167.95,1552.72 1162.5,1550.5C 1160.9,1553.61 1158.4,1555.28 1155,1555.5C 1149.91,1554.93 1144.91,1553.93 1140,1552.5C 1133.83,1556.13 1127.33,1556.46 1120.5,1553.5C 1116.34,1553.94 1112.34,1554.77 1108.5,1556C 1103.84,1556.31 1099.34,1556.48 1095,1556.5C 1092.86,1555.76 1090.86,1554.76 1089,1553.5C 1084.66,1555.03 1080.16,1556.03 1075.5,1556.5C 1073.62,1555.98 1071.78,1555.31 1070,1554.5C 1067.67,1555.5 1065.33,1556.5 1063,1557.5C 1057.05,1555.52 1051.05,1553.85 1045,1552.5C 1043.44,1554.91 1041.27,1556.24 1038.5,1556.5C 1033.58,1554.87 1028.58,1553.54 1023.5,1552.5C 1018.42,1553.54 1013.42,1554.87 1008.5,1556.5C 1005.73,1556.24 1003.56,1554.91 1002,1552.5C 995.951,1553.85 989.951,1555.52 984,1557.5C 981.667,1556.5 979.333,1555.5 977,1554.5C 975.216,1555.31 973.383,1555.98 971.5,1556.5C 966.843,1556.03 962.343,1555.03 958,1553.5C 956.139,1554.76 954.139,1555.76 952,1556.5C 947.658,1556.48 943.158,1556.31 938.5,1556C 934.662,1554.77 930.662,1553.94 926.5,1553.5C 919.665,1556.46 913.165,1556.13 907,1552.5C 900.963,1554.48 894.797,1555.31 888.5,1555C 886.981,1553.65 885.648,1552.15 884.5,1550.5C 879.052,1552.72 873.385,1554.06 867.5,1554.5C 865.971,1554.47 864.804,1553.8 864,1552.5C 860.829,1555.06 857.662,1555.06 854.5,1552.5C 853.554,1552.99 852.554,1553.32 851.5,1553.5C 848.525,1552.86 845.525,1552.36 842.5,1552C 840.753,1549.9 838.42,1549.24 835.5,1550C 833.667,1548.83 831.833,1547.67 830,1546.5C 828.542,1547.75 827.042,1547.75 825.5,1546.5C 822.015,1550.31 817.682,1552.31 812.5,1552.5C 809.228,1551.71 806.061,1551.71 803,1552.5C 801.137,1550.79 798.971,1549.79 796.5,1549.5C 786.675,1551.88 776.842,1551.88 767,1549.5C 764.36,1550.12 761.694,1549.78 759,1548.5C 757.445,1550.15 755.779,1550.48 754,1549.5C 743.936,1557.79 734.269,1557.46 725,1548.5C 720.338,1553.92 714.505,1556.08 707.5,1555C 706.667,1554.17 705.833,1553.33 705,1552.5C 698.141,1554.45 690.974,1556.45 683.5,1558.5C 681.217,1557.68 678.884,1557.01 676.5,1556.5C 668.779,1558.44 661.446,1558.44 654.5,1556.5C 648.963,1558.38 643.296,1558.88 637.5,1558C 635.697,1557.36 634.364,1556.2 633.5,1554.5C 632.167,1554.17 630.833,1553.83 629.5,1553.5C 621.606,1555.01 613.606,1556.34 605.5,1557.5C 603.135,1557.36 600.802,1557.03 598.5,1556.5C 591.598,1560.72 584.265,1561.88 576.5,1560C 574,1557.5 571.5,1555 569,1552.5C 564.573,1556.46 559.406,1558.96 553.5,1560C 545.896,1558.4 538.229,1558.07 530.5,1559C 527.615,1558.31 524.782,1557.47 522,1556.5C 518.149,1558.17 514.316,1560.01 510.5,1562C 505.151,1563.93 499.818,1563.93 494.5,1562C 493.743,1560.49 492.743,1559.15 491.5,1558C 485.192,1558.06 479.526,1556.23 474.5,1552.5C 468.366,1559.4 460.699,1563.4 451.5,1564.5C 442.277,1564.42 432.944,1564.25 423.5,1564C 421.376,1562.88 419.543,1561.38 418,1559.5C 411.662,1563.25 404.829,1564.42 397.5,1563C 392.167,1562 386.833,1561 381.5,1560C 377.84,1559 374.674,1557.17 372,1554.5C 368.844,1556.99 365.678,1559.49 362.5,1562C 358.269,1563.59 353.935,1564.76 349.5,1565.5C 347.618,1564.91 345.785,1564.24 344,1563.5C 336.23,1565.7 330.73,1562.54 327.5,1554C 324.667,1552.22 321.667,1550.72 318.5,1549.5C 316.833,1550.67 315.167,1551.83 313.5,1553C 299.886,1556.01 286.886,1554.34 274.5,1548C 272.291,1546.13 270.458,1543.96 269,1541.5C 269.393,1536.87 269.393,1532.2 269,1527.5C 262.988,1523 260.488,1517.16 261.5,1510C 258.562,1506.37 257.895,1502.37 259.5,1498C 253.239,1489.4 251.572,1480.4 254.5,1471C 252.373,1462.15 254.707,1454.82 261.5,1449C 267.627,1448.9 273.627,1448.07 279.5,1446.5C 281.5,1443.83 283.5,1441.17 285.5,1438.5C 290.137,1437.17 294.804,1436 299.5,1435C 302.816,1431.35 306.482,1428.02 310.5,1425C 313.167,1424.33 315.833,1424.33 318.5,1425C 324.183,1426.94 330.016,1428.44 336,1429.5C 339.132,1427.75 341.965,1425.59 344.5,1423C 348.167,1422.33 351.833,1422.33 355.5,1423C 358.872,1424.61 362.372,1425.77 366,1426.5C 376.84,1424.64 387.173,1421.97 397,1418.5C 403.211,1419.69 409.377,1421.03 415.5,1422.5C 419.971,1420.44 424.471,1420.78 429,1423.5C 432.531,1421.2 436.198,1420.2 440,1420.5C 444.797,1422.9 449.464,1425.57 454,1428.5C 458.443,1427.7 462.943,1427.86 467.5,1429C 468,1429.5 468.5,1430 469,1430.5C 471.281,1427.1 474.114,1424.26 477.5,1422C 482.69,1420.26 488.024,1419.09 493.5,1418.5C 500.243,1419.79 506.743,1421.79 513,1424.5C 516.256,1422.57 519.756,1422.07 523.5,1423C 529.107,1425.72 534.607,1428.55 540,1431.5C 543.151,1430.91 546.318,1430.41 549.5,1430C 553.996,1426.17 558.996,1423.17 564.5,1421C 571.823,1420.34 578.323,1419.84 584,1419.5C 587.628,1421.07 591.128,1422.73 594.5,1424.5C 597.248,1423.96 599.915,1423.13 602.5,1422C 605.5,1421.33 608.5,1421.33 611.5,1422C 618.56,1424.93 625.893,1426.93 633.5,1428C 635.09,1429.05 636.59,1430.21 638,1431.5C 645.607,1425.61 653.274,1424.94 661,1429.5C 665.858,1425.93 671.025,1425.6 676.5,1428.5C 682.446,1426.37 688.28,1424.04 694,1421.5C 697.419,1422.31 701.086,1423.31 705,1424.5C 710.234,1421.92 715.734,1421.09 721.5,1422C 722.354,1423.02 723.354,1423.86 724.5,1424.5C 730.776,1422.37 737.11,1422.37 743.5,1424.5C 749.703,1420.63 756.369,1419.63 763.5,1421.5C 765.956,1420.05 768.622,1419.39 771.5,1419.5C 777.477,1421.9 783.81,1423.57 790.5,1424.5C 794.783,1422.7 799.116,1420.86 803.5,1419C 808.215,1417.62 812.215,1418.62 815.5,1422C 817.101,1422.27 818.601,1422.77 820,1423.5C 825.502,1420.91 831.335,1418.91 837.5,1417.5C 844.482,1419 850.982,1421.66 857,1425.5C 862.568,1425.48 867.402,1423.64 871.5,1420C 876.816,1419.13 881.816,1417.63 886.5,1415.5 Z"/></g>
</svg>
