<?xml version="1.0" encoding="UTF-8"?>
<!DOCTYPE svg PUBLIC "-//W3C//DTD SVG 1.1//EN" "http://www.w3.org/Graphics/SVG/1.1/DTD/svg11.dtd">
<svg xmlns="http://www.w3.org/2000/svg" version="1.1" width="2048px" height="2048px" style="shape-rendering:geometricPrecision; text-rendering:geometricPrecision; image-rendering:optimizeQuality; fill-rule:evenodd; clip-rule:evenodd" xmlns:xlink="http://www.w3.org/1999/xlink">
<g><path style="opacity:0.998" fill="#0c0a09" d="M 665.5,356.5 C 668.431,357.594 671.431,357.594 674.5,356.5C 676.916,356.875 679.25,357.541 681.5,358.5C 686.427,356.618 691.427,356.285 696.5,357.5C 697.167,358.833 698.167,359.833 699.5,360.5C 701.063,358.598 703.063,357.598 705.5,357.5C 708.689,358.675 711.855,360.008 715,361.5C 719.364,356.9 723.864,356.4 728.5,360C 731.167,360.333 733.833,360.667 736.5,361C 737.973,361.71 738.64,362.876 738.5,364.5C 740.199,364.38 741.865,364.046 743.5,363.5C 749.479,365.302 755.146,365.968 760.5,365.5C 760.5,366.5 760.5,367.5 760.5,368.5C 767.721,370.132 775.055,371.632 782.5,373C 784.439,373.908 785.439,375.408 785.5,377.5C 788.709,377.589 791.875,377.256 795,376.5C 800.046,377.505 805.213,379.005 810.5,381C 812.5,383.333 814.5,385.667 816.5,388C 819.12,387.528 821.62,387.361 824,387.5C 830.141,390.958 836.308,394.458 842.5,398C 844.351,399.684 846.018,401.517 847.5,403.5C 850.836,404.24 854.17,404.906 857.5,405.5C 858.95,406.85 859.617,408.516 859.5,410.5C 865.659,410.245 870.659,412.745 874.5,418C 875.833,418.333 877.167,418.667 878.5,419C 881.882,422.918 885.882,425.918 890.5,428C 891.743,429.154 892.743,430.488 893.5,432C 898.383,435.545 903.716,438.211 909.5,440C 912.564,442.207 914.564,445.041 915.5,448.5C 917.861,448.674 920.194,449.007 922.5,449.5C 922.5,450.5 922.5,451.5 922.5,452.5C 925.14,452.954 927.473,454.121 929.5,456C 930.704,459.122 932.371,461.956 934.5,464.5C 941.293,467.881 947.293,472.215 952.5,477.5C 957.098,478.684 961.264,480.684 965,483.5C 968.171,486.006 971.338,488.506 974.5,491C 975.086,493.28 975.92,495.447 977,497.5C 978.049,496.483 979.216,496.316 980.5,497C 982.576,499.584 985.243,501.251 988.5,502C 991.209,504.675 993.876,507.342 996.5,510C 996.043,510.414 995.709,510.914 995.5,511.5C 998.28,512.457 1000.95,513.624 1003.5,515C 1004.94,516.763 1005.94,518.763 1006.5,521C 1007.83,521.333 1009.17,521.667 1010.5,522C 1012.41,524.622 1014.74,526.789 1017.5,528.5C 1020.02,526.81 1022.02,524.643 1023.5,522C 1025.1,521.727 1026.6,521.227 1028,520.5C 1028.16,518.324 1029,516.491 1030.5,515C 1033.05,513.624 1035.72,512.457 1038.5,511.5C 1037.54,510.188 1037.71,508.854 1039,507.5C 1041.49,506.013 1043.65,504.179 1045.5,502C 1048.76,501.251 1051.42,499.584 1053.5,497C 1054.78,496.316 1055.95,496.483 1057,497.5C 1058.08,495.447 1058.91,493.28 1059.5,491C 1073.35,482.91 1086.68,474.077 1099.5,464.5C 1101.65,462.228 1103.15,459.561 1104,456.5C 1106.19,454.46 1108.69,453.126 1111.5,452.5C 1111.5,451.5 1111.5,450.5 1111.5,449.5C 1113.81,449.007 1116.14,448.674 1118.5,448.5C 1118.39,446.097 1119.39,444.264 1121.5,443C 1127.96,439.6 1134.3,435.933 1140.5,432C 1142.05,428.554 1144.72,426.554 1148.5,426C 1151.08,423.941 1153.42,421.608 1155.5,419C 1158.5,419.094 1160.5,417.761 1161.5,415C 1165.46,411.655 1169.79,410.155 1174.5,410.5C 1174.29,408.286 1175.12,406.619 1177,405.5C 1180.19,404.955 1183.35,404.289 1186.5,403.5C 1187.98,401.517 1189.65,399.684 1191.5,398C 1197.69,394.458 1203.86,390.958 1210,387.5C 1212.38,387.361 1214.88,387.528 1217.5,388C 1219.5,385.667 1221.5,383.333 1223.5,381C 1228.99,379.135 1234.32,377.635 1239.5,376.5C 1242.45,377.302 1245.45,377.636 1248.5,377.5C 1248.56,375.408 1249.56,373.908 1251.5,373C 1258.95,371.632 1266.28,370.132 1273.5,368.5C 1273.5,367.5 1273.5,366.5 1273.5,365.5C 1279.18,366.097 1285.18,365.43 1291.5,363.5C 1292.55,363.68 1293.55,364.013 1294.5,364.5C 1295.23,363.066 1296.23,361.9 1297.5,361C 1302.06,361.082 1306.22,359.915 1310,357.5C 1313.24,357.604 1316.24,358.938 1319,361.5C 1322.14,360.008 1325.31,358.675 1328.5,357.5C 1330.94,357.598 1332.94,358.598 1334.5,360.5C 1339.86,355.867 1345.86,355.2 1352.5,358.5C 1354.75,357.541 1357.08,356.875 1359.5,356.5C 1362.41,357.528 1365.24,357.528 1368,356.5C 1371.62,359.891 1375.62,360.225 1380,357.5C 1387.15,358.36 1394.32,359.194 1401.5,360C 1403.33,360.273 1404.83,361.107 1406,362.5C 1408.74,361.39 1411.57,361.223 1414.5,362C 1419.32,363.248 1424.16,364.414 1429,365.5C 1435.01,363.662 1439.67,365.328 1443,370.5C 1444.67,369.833 1446.33,369.167 1448,368.5C 1451.79,371.291 1455.96,371.958 1460.5,370.5C 1464.75,371.75 1469.09,372.584 1473.5,373C 1474.93,373.465 1476.1,374.299 1477,375.5C 1479.4,374.707 1482.23,374.874 1485.5,376C 1487.02,377.685 1488.68,379.185 1490.5,380.5C 1495.25,378.163 1499.58,378.996 1503.5,383C 1515.37,384.839 1526.54,388.672 1537,394.5C 1538.58,392.971 1540.42,392.471 1542.5,393C 1548.71,395.708 1554.88,399.208 1561,403.5C 1562.51,402.465 1564.01,402.632 1565.5,404C 1567.59,405.041 1569.25,406.541 1570.5,408.5C 1579.74,409.956 1587.74,413.789 1594.5,420C 1600.08,420.208 1604.75,422.208 1608.5,426C 1613.98,428.275 1618.98,431.275 1623.5,435C 1624.78,435.684 1625.95,435.517 1627,434.5C 1632.25,437.712 1637.08,441.546 1641.5,446C 1647.5,447.332 1652.5,450.332 1656.5,455C 1658.9,455.186 1661.23,455.686 1663.5,456.5C 1664.73,457.59 1665.56,458.924 1666,460.5C 1667.49,459.253 1668.99,459.253 1670.5,460.5C 1674.19,463.691 1678.02,466.691 1682,469.5C 1682.27,471.101 1682.77,472.601 1683.5,474C 1685.5,474.333 1687.5,474.667 1689.5,475C 1691.09,477.133 1693.09,478.799 1695.5,480C 1697.78,482.397 1699.12,485.231 1699.5,488.5C 1703.76,489.09 1707.76,490.59 1711.5,493C 1713.08,494.828 1714.41,496.828 1715.5,499C 1722.97,502.635 1728.64,508.135 1732.5,515.5C 1738.68,520.591 1744.85,525.591 1751,530.5C 1751.81,532.436 1752.31,534.436 1752.5,536.5C 1754.39,536.297 1755.89,536.963 1757,538.5C 1757.94,543.053 1759.94,547.053 1763,550.5C 1763.49,551.793 1763.66,553.127 1763.5,554.5C 1765.39,554.297 1766.89,554.963 1768,556.5C 1769.01,560.807 1770.84,564.641 1773.5,568C 1773.31,569.82 1773.14,571.653 1773,573.5C 1774.96,575.974 1777.29,577.974 1780,579.5C 1780.33,582.167 1780.67,584.833 1781,587.5C 1783.52,591.407 1785.85,595.407 1788,599.5C 1788.27,601.101 1788.77,602.601 1789.5,604C 1789.17,604.333 1788.83,604.667 1788.5,605C 1792.95,608.9 1795.28,613.9 1795.5,620C 1797.82,622.815 1799.49,625.982 1800.5,629.5C 1801.81,630.313 1802.98,631.313 1804,632.5C 1804.99,635.961 1805.83,639.461 1806.5,643C 1810.26,645.133 1811.26,648.133 1809.5,652C 1811.41,653.87 1813.57,655.37 1816,656.5C 1817.36,658.655 1817.52,660.822 1816.5,663C 1818.69,664.853 1820.52,667.02 1822,669.5C 1824,675.585 1826,681.585 1828,687.5C 1828.76,689.769 1828.59,691.936 1827.5,694C 1828.04,696.255 1829.21,698.088 1831,699.5C 1832.19,703.568 1832.53,707.568 1832,711.5C 1835.39,715.144 1835.89,718.977 1833.5,723C 1838.37,726.403 1838.37,730.069 1833.5,734C 1837.95,737.356 1838.61,741.356 1835.5,746C 1840.87,748.844 1841.87,752.844 1838.5,758C 1839.98,760.592 1839.65,762.925 1837.5,765C 1840.35,767.571 1841.01,770.571 1839.5,774C 1841.27,776.783 1842.61,779.783 1843.5,783C 1843.29,784.366 1842.96,785.699 1842.5,787C 1844.76,789.745 1845.1,792.745 1843.5,796C 1845.55,801.528 1845.55,807.195 1843.5,813C 1844,816.197 1845,819.197 1846.5,822C 1846.29,826.654 1844.96,831.154 1842.5,835.5C 1843.25,837.332 1844.25,838.999 1845.5,840.5C 1843.4,845.508 1842.07,850.675 1841.5,856C 1842.57,856.739 1843.24,857.739 1843.5,859C 1842.17,863.333 1840.83,867.667 1839.5,872C 1839.76,873.261 1840.43,874.261 1841.5,875C 1840.17,876.333 1840.17,877.667 1841.5,879C 1840.27,883.047 1838.94,887.047 1837.5,891C 1837.96,891.414 1838.29,891.914 1838.5,892.5C 1837.32,895.102 1835.99,897.602 1834.5,900C 1834.64,900.772 1834.98,901.439 1835.5,902C 1834.14,905.212 1832.64,908.378 1831,911.5C 1830.23,914.099 1830.4,916.599 1831.5,919C 1830.73,921.567 1829.73,924.067 1828.5,926.5C 1828.93,927.293 1829.26,928.127 1829.5,929C 1827.83,934.535 1825.5,939.702 1822.5,944.5C 1823.1,946.857 1824.1,949.023 1825.5,951C 1822.69,955.554 1820.02,960.221 1817.5,965C 1819.32,966.466 1819.82,968.299 1819,970.5C 1817.45,974.99 1815.62,979.323 1813.5,983.5C 1813.58,989.518 1811.25,994.685 1806.5,999C 1807.02,999.561 1807.36,1000.23 1807.5,1001C 1806.84,1003.46 1806.34,1005.96 1806,1008.5C 1805.36,1010.3 1804.2,1011.64 1802.5,1012.5C 1803.56,1014.85 1803.4,1017.19 1802,1019.5C 1796.36,1022.39 1794.86,1026.56 1797.5,1032C 1796.75,1037.09 1794.42,1041.26 1790.5,1044.5C 1792.04,1048.84 1790.54,1051.84 1786,1053.5C 1785.15,1057.47 1784.48,1061.47 1784,1065.5C 1779.91,1071.25 1776.25,1077.25 1773,1083.5C 1770.3,1086.86 1767.63,1090.2 1765,1093.5C 1765.62,1095.98 1764.62,1097.98 1762,1099.5C 1762.15,1103.12 1760.65,1105.62 1757.5,1107C 1757.96,1107.41 1758.29,1107.91 1758.5,1108.5C 1757.56,1112.96 1755.73,1116.96 1753,1120.5C 1749.46,1130.3 1745.46,1139.96 1741,1149.5C 1737.28,1151.79 1735.61,1155.12 1736,1159.5C 1733.24,1160.5 1731.91,1162.5 1732,1165.5C 1729.83,1166.33 1728.33,1167.83 1727.5,1170C 1724.69,1171.22 1722.02,1172.72 1719.5,1174.5C 1716.17,1183.18 1711.33,1190.84 1705,1197.5C 1704.67,1199.5 1704.33,1201.5 1704,1203.5C 1699.61,1207.31 1695.94,1211.65 1693,1216.5C 1690.77,1220.82 1688.61,1225.15 1686.5,1229.5C 1690.29,1232.57 1694.29,1235.4 1698.5,1238C 1700.75,1240.25 1702.58,1242.08 1704,1243.5C 1707.46,1245.13 1709.63,1247.79 1710.5,1251.5C 1712.48,1252.22 1714.15,1253.38 1715.5,1255C 1721.99,1255.07 1725.99,1258.24 1727.5,1264.5C 1732.83,1266.67 1738.16,1268.83 1743.5,1271C 1745.75,1273 1746.75,1275.5 1746.5,1278.5C 1750.3,1280.27 1754.3,1281.61 1758.5,1282.5C 1763.15,1289.47 1768.15,1296.14 1773.5,1302.5C 1777.64,1304.03 1780.97,1306.53 1783.5,1310C 1785.17,1310.33 1786.83,1310.67 1788.5,1311C 1789.9,1312.34 1791.4,1313.5 1793,1314.5C 1794.16,1313.81 1795.33,1313.65 1796.5,1314C 1801.4,1318.91 1806.57,1323.41 1812,1327.5C 1812.74,1329.22 1813.57,1330.89 1814.5,1332.5C 1816.34,1331.08 1818.34,1329.91 1820.5,1329C 1823.84,1328.45 1827,1327.61 1830,1326.5C 1831.87,1326.71 1833.53,1327.37 1835,1328.5C 1836.29,1328.05 1837.45,1327.38 1838.5,1326.5C 1841.64,1327.68 1844.8,1327.68 1848,1326.5C 1849.87,1326.71 1851.53,1327.37 1853,1328.5C 1856.31,1326.61 1859.81,1326.61 1863.5,1328.5C 1866.02,1329.73 1868.35,1331.23 1870.5,1333C 1873.83,1333.67 1877.17,1334.33 1880.5,1335C 1883.7,1337.9 1886.04,1341.4 1887.5,1345.5C 1888.91,1346.62 1890.41,1347.62 1892,1348.5C 1894.4,1354.62 1896.4,1360.96 1898,1367.5C 1898.71,1369.9 1898.54,1372.23 1897.5,1374.5C 1901.94,1377.72 1902.28,1381.22 1898.5,1385C 1900.6,1386.86 1901.6,1389.19 1901.5,1392C 1901.05,1396.41 1900.38,1400.75 1899.5,1405C 1900.16,1409.2 1898.66,1412.7 1895,1415.5C 1895.43,1420.09 1894.26,1424.42 1891.5,1428.5C 1885.92,1432.77 1881.92,1437.77 1879.5,1443.5C 1876.19,1446.54 1872.53,1449.04 1868.5,1451C 1867.16,1453.89 1864.82,1455.22 1861.5,1455C 1860.83,1456 1860.17,1457 1859.5,1458C 1856.12,1460.4 1852.46,1462.07 1848.5,1463C 1846.29,1463.63 1844.12,1463.46 1842,1462.5C 1838.86,1463.65 1835.7,1464.65 1832.5,1465.5C 1830.52,1465.56 1828.85,1464.9 1827.5,1463.5C 1825,1464.12 1822.67,1463.45 1820.5,1461.5C 1817.17,1464.17 1813.83,1464.17 1810.5,1461.5C 1809.91,1461.71 1809.41,1462.04 1809,1462.5C 1806.37,1461.36 1803.87,1460.03 1801.5,1458.5C 1796.51,1460.64 1792.84,1459.31 1790.5,1454.5C 1789.19,1455.46 1787.85,1455.29 1786.5,1454C 1783.38,1444.38 1778.21,1435.88 1771,1428.5C 1770.32,1427.22 1770.48,1426.05 1771.5,1425C 1766.93,1421.67 1765.93,1417.67 1768.5,1413C 1762.34,1408.45 1762,1403.45 1767.5,1398C 1767.17,1397.67 1766.83,1397.33 1766.5,1397C 1767.22,1392.94 1768.22,1388.94 1769.5,1385C 1766.3,1383.3 1763.96,1380.8 1762.5,1377.5C 1759.33,1376.99 1757,1375.33 1755.5,1372.5C 1750.19,1372.02 1746.53,1369.35 1744.5,1364.5C 1740.35,1360.68 1735.68,1357.68 1730.5,1355.5C 1729.24,1353.55 1728.07,1351.55 1727,1349.5C 1725.95,1350.52 1724.78,1350.68 1723.5,1350C 1720.86,1348.04 1719.03,1345.54 1718,1342.5C 1717.67,1342.83 1717.33,1343.17 1717,1343.5C 1712.92,1340.54 1708.75,1337.71 1704.5,1335C 1702.24,1331.8 1700.24,1328.47 1698.5,1325C 1694.62,1324.9 1691.95,1323.06 1690.5,1319.5C 1678.49,1313.85 1668.16,1305.85 1659.5,1295.5C 1654.27,1292.37 1649.43,1288.71 1645,1284.5C 1644.78,1282.62 1644.12,1280.95 1643,1279.5C 1641.68,1283.57 1639.51,1287.07 1636.5,1290C 1636.83,1290.33 1637.17,1290.67 1637.5,1291C 1635.51,1293 1633.17,1294.5 1630.5,1295.5C 1630.11,1301.18 1627.11,1303.85 1621.5,1303.5C 1621.65,1306.61 1621.15,1309.61 1620,1312.5C 1614.98,1317.35 1610.15,1322.35 1605.5,1327.5C 1604.59,1331.91 1601.93,1334.41 1597.5,1335C 1595.61,1337.19 1593.44,1339.02 1591,1340.5C 1590.84,1344.29 1590.17,1347.95 1589,1351.5C 1585.57,1353.65 1582.23,1355.98 1579,1358.5C 1577.76,1360.31 1577.43,1362.31 1578,1364.5C 1574.86,1366.8 1572.7,1369.8 1571.5,1373.5C 1567.39,1374.04 1564.72,1376.2 1563.5,1380C 1562.55,1380.48 1561.55,1380.65 1560.5,1380.5C 1560.63,1382.65 1560.13,1384.65 1559,1386.5C 1556.27,1388.73 1554.1,1391.4 1552.5,1394.5C 1550.06,1397.98 1546.9,1400.64 1543,1402.5C 1540.16,1408.71 1535.66,1413.21 1529.5,1416C 1531.22,1419.41 1530.22,1421.74 1526.5,1423C 1524.87,1423.49 1523.2,1423.66 1521.5,1423.5C 1521.66,1425.53 1521.5,1427.53 1521,1429.5C 1516.54,1435.06 1511.04,1438.89 1504.5,1441C 1501.98,1443.36 1499.31,1445.52 1496.5,1447.5C 1494.45,1450.94 1492.95,1454.61 1492,1458.5C 1489.69,1460.82 1486.86,1462.15 1483.5,1462.5C 1481.98,1464.55 1481.15,1466.88 1481,1469.5C 1479.1,1471.4 1476.94,1472.9 1474.5,1474C 1475.28,1475.07 1475.11,1476.24 1474,1477.5C 1472.5,1479 1471,1480.5 1469.5,1482C 1462.41,1484.09 1457.57,1488.59 1455,1495.5C 1452.93,1496.52 1450.76,1497.36 1448.5,1498C 1446.2,1503.97 1441.86,1507.3 1435.5,1508C 1435.49,1509.73 1435.16,1511.56 1434.5,1513.5C 1429.11,1516.43 1424.44,1520.27 1420.5,1525C 1414.34,1525.83 1410.34,1529.17 1408.5,1535C 1405.51,1538.16 1401.84,1539.66 1397.5,1539.5C 1398,1546.45 1394.67,1549.62 1387.5,1549C 1385.47,1551.68 1382.81,1553.35 1379.5,1554C 1376.12,1557.72 1373.12,1561.72 1370.5,1566C 1367.64,1567.4 1364.64,1568.4 1361.5,1569C 1357.63,1572.37 1353.96,1575.87 1350.5,1579.5C 1349.87,1581.57 1348.87,1583.4 1347.5,1585C 1343.34,1585.73 1339.34,1586.9 1335.5,1588.5C 1334.9,1589.79 1334.4,1591.13 1334,1592.5C 1330.84,1594.66 1328.01,1597.16 1325.5,1600C 1322.5,1601 1319.5,1602 1316.5,1603C 1313.1,1606.35 1309.76,1609.68 1306.5,1613C 1303.17,1614.23 1300.17,1615.9 1297.5,1618C 1295.42,1618.19 1293.42,1618.69 1291.5,1619.5C 1291.17,1620.83 1290.83,1622.17 1290.5,1623.5C 1287.01,1625.09 1283.35,1625.76 1279.5,1625.5C 1279.1,1629.07 1277.1,1631.24 1273.5,1632C 1272.17,1634 1270.83,1636 1269.5,1638C 1264.49,1638.98 1260.49,1641.65 1257.5,1646C 1251.82,1647.89 1246.82,1650.89 1242.5,1655C 1238.14,1656.95 1233.8,1658.78 1229.5,1660.5C 1229.7,1662.39 1229.04,1663.89 1227.5,1665C 1224,1666.85 1220.33,1668.18 1216.5,1669C 1214.59,1671.79 1211.92,1673.12 1208.5,1673C 1198.78,1678.68 1188.61,1683.18 1178,1686.5C 1177.67,1686.17 1177.33,1685.83 1177,1685.5C 1171.56,1688.43 1165.72,1690.43 1159.5,1691.5C 1157.69,1695.14 1155.03,1697.97 1151.5,1700C 1145.43,1701.03 1139.77,1703.2 1134.5,1706.5C 1132.9,1705.52 1131.24,1705.35 1129.5,1706C 1128.13,1709.68 1125.46,1711.35 1121.5,1711C 1119.89,1713.28 1117.72,1714.78 1115,1715.5C 1114.59,1715.04 1114.09,1714.71 1113.5,1714.5C 1110.03,1716.62 1106.36,1718.28 1102.5,1719.5C 1098.83,1718.16 1096.16,1719.33 1094.5,1723C 1088.74,1724.01 1083.07,1725.35 1077.5,1727C 1073.19,1728.41 1069.19,1730.41 1065.5,1733C 1061.44,1733.34 1057.44,1734.01 1053.5,1735C 1051.13,1736.41 1049.46,1738.41 1048.5,1741C 1044.37,1742.85 1040.54,1742.35 1037,1739.5C 1034.6,1741.69 1031.76,1743.03 1028.5,1743.5C 1022.83,1740.83 1017.17,1740.83 1011.5,1743.5C 1008.24,1743.03 1005.4,1741.69 1003,1739.5C 999.46,1742.35 995.627,1742.85 991.5,1741C 990.538,1738.41 988.871,1736.41 986.5,1735C 982.558,1734.01 978.558,1733.34 974.5,1733C 971.142,1730.44 967.475,1728.44 963.5,1727C 957.57,1725.45 951.57,1724.12 945.5,1723C 943.835,1719.33 941.169,1718.16 937.5,1719.5C 931.935,1717.48 926.601,1715.65 921.5,1714C 919.944,1711.39 917.61,1710.05 914.5,1710C 912.739,1705.68 909.739,1704.51 905.5,1706.5C 900.894,1703.53 895.894,1701.69 890.5,1701C 886.084,1698.96 882.751,1695.79 880.5,1691.5C 874.278,1690.43 868.444,1688.43 863,1685.5C 862.667,1685.83 862.333,1686.17 862,1686.5C 851.399,1683.18 841.232,1678.68 831.5,1673C 828.079,1673.12 825.412,1671.79 823.5,1669C 819.67,1668.18 816.004,1666.85 812.5,1665C 810.963,1663.89 810.297,1662.39 810.5,1660.5C 800.835,1656.34 791.502,1651.51 782.5,1646C 779.508,1641.65 775.508,1638.98 770.5,1638C 769.333,1636.17 768.167,1634.33 767,1632.5C 763.236,1631.57 761.07,1629.24 760.5,1625.5C 756.128,1626.2 752.461,1625.03 749.5,1622C 750.641,1621.26 750.641,1620.43 749.5,1619.5C 738.823,1617.32 730.156,1611.82 723.5,1603C 720.5,1602 717.5,1601 714.5,1600C 711.989,1597.16 709.156,1594.66 706,1592.5C 705.598,1591.13 705.098,1589.79 704.5,1588.5C 700.956,1587.02 697.29,1585.86 693.5,1585C 692.134,1583.4 691.134,1581.57 690.5,1579.5C 689.205,1578.9 687.872,1578.4 686.5,1578C 684.32,1574.57 681.653,1571.57 678.5,1569C 675.363,1568.4 672.363,1567.4 669.5,1566C 664.102,1555.76 655.768,1549.43 644.5,1547C 642.722,1544.86 642.055,1542.36 642.5,1539.5C 641.127,1539.66 639.793,1539.49 638.5,1539C 636.404,1537.23 634.071,1535.9 631.5,1535C 629.661,1529.17 625.661,1525.83 619.5,1525C 615.556,1520.27 610.889,1516.43 605.5,1513.5C 604.842,1511.56 604.509,1509.73 604.5,1508C 598.136,1507.3 593.802,1503.97 591.5,1498C 589.754,1497.53 588.087,1496.86 586.5,1496C 583.651,1488.56 578.318,1483.9 570.5,1482C 568.126,1479.96 566.126,1477.63 564.5,1475C 564.833,1474.67 565.167,1474.33 565.5,1474C 563.064,1472.9 560.897,1471.4 559,1469.5C 558.937,1463.86 556.104,1461.03 550.5,1461C 549.667,1460.17 548.833,1459.33 548,1458.5C 545.62,1448.45 539.453,1441.95 529.5,1439C 525.947,1435.96 522.447,1432.79 519,1429.5C 518.505,1427.53 518.338,1425.53 518.5,1423.5C 514.092,1424.13 511.092,1422.47 509.5,1418.5C 509.608,1417.56 509.941,1416.72 510.5,1416C 504.343,1413.21 499.843,1408.71 497,1402.5C 493.104,1400.64 489.938,1397.98 487.5,1394.5C 485.902,1391.4 483.735,1388.73 481,1386.5C 479.83,1382.83 478.164,1379.49 476,1376.5C 473.413,1374.8 470.579,1373.8 467.5,1373.5C 467.657,1372.13 467.49,1370.79 467,1369.5C 465.291,1367.82 463.624,1366.16 462,1364.5C 462.57,1362.31 462.236,1360.31 461,1358.5C 457.766,1355.98 454.433,1353.65 451,1351.5C 449.826,1347.95 449.16,1344.29 449,1340.5C 445.982,1337.47 442.482,1335.3 438.5,1334C 432.759,1326.91 426.925,1319.74 421,1312.5C 419.851,1309.61 419.351,1306.61 419.5,1303.5C 413.503,1304.17 410.17,1301.5 409.5,1295.5C 406.827,1294.5 404.493,1293 402.5,1291C 402.833,1290.67 403.167,1290.33 403.5,1290C 400.738,1287.35 398.738,1284.19 397.5,1280.5C 392.748,1276.33 390.248,1277.67 390,1284.5C 377.874,1294.29 366.04,1304.46 354.5,1315C 351.405,1316.98 348.072,1318.48 344.5,1319.5C 343.047,1323.06 340.381,1324.9 336.5,1325C 334.765,1328.47 332.765,1331.8 330.5,1335C 326.247,1337.71 322.08,1340.54 318,1343.5C 317.667,1343.17 317.333,1342.83 317,1342.5C 315.969,1345.54 314.135,1348.04 311.5,1350C 310.216,1350.68 309.049,1350.52 308,1349.5C 306.927,1351.55 305.761,1353.55 304.5,1355.5C 297.43,1359.08 291.43,1363.91 286.5,1370C 282.283,1370.61 278.95,1372.61 276.5,1376C 275.128,1376.4 273.795,1376.9 272.5,1377.5C 269.697,1382.14 266.03,1385.97 261.5,1389C 262.2,1394.8 263.533,1400.47 265.5,1406C 264.949,1407.4 264.616,1408.73 264.5,1410C 269.996,1415.45 269.662,1420.45 263.5,1425C 264.517,1426.05 264.684,1427.22 264,1428.5C 256.764,1435.61 251.764,1443.94 249,1453.5C 247.561,1455.01 246.061,1455.35 244.5,1454.5C 242.157,1459.31 238.491,1460.64 233.5,1458.5C 231.129,1460.03 228.629,1461.36 226,1462.5C 224.703,1461.22 223.536,1461.38 222.5,1463C 219.574,1463.22 216.74,1463.72 214,1464.5C 213.586,1464.04 213.086,1463.71 212.5,1463.5C 211.148,1464.9 209.481,1465.56 207.5,1465.5C 204.76,1464.42 201.927,1463.42 199,1462.5C 196.547,1463.49 194.047,1463.66 191.5,1463C 187.542,1462.07 183.876,1460.4 180.5,1458C 179.158,1455.11 176.825,1453.78 173.5,1454C 172.833,1453 172.167,1452 171.5,1451C 164.353,1447.86 159.52,1443.02 157,1436.5C 149.882,1431.04 146.215,1424.04 146,1415.5C 143.05,1412.88 140.883,1409.71 139.5,1406C 139.833,1405.67 140.167,1405.33 140.5,1405C 139.566,1401.2 138.232,1397.53 136.5,1394C 136.833,1393.67 137.167,1393.33 137.5,1393C 135.95,1387.22 135.617,1381.39 136.5,1375.5C 137.325,1374.61 138.325,1374.28 139.5,1374.5C 138.587,1372.17 137.253,1370 135.5,1368C 135.941,1365.06 137.607,1363.23 140.5,1362.5C 139.456,1360.23 139.289,1357.9 140,1355.5C 141.952,1353.66 142.952,1351.33 143,1348.5C 146.223,1347.28 147.889,1344.94 148,1341.5C 149.979,1339.43 151.812,1337.27 153.5,1335C 156.833,1334.33 160.167,1333.67 163.5,1333C 167.623,1329.72 172.29,1327.56 177.5,1326.5C 178.548,1327.38 179.715,1328.05 181,1328.5C 182.468,1327.37 184.135,1326.71 186,1326.5C 187.669,1327.17 189.169,1327.17 190.5,1326.5C 191.548,1327.38 192.715,1328.05 194,1328.5C 195.468,1327.37 197.135,1326.71 199,1326.5C 205.965,1328.11 212.965,1330.44 220,1333.5C 220.36,1331.39 221.027,1329.39 222,1327.5C 227.431,1323.41 232.597,1318.91 237.5,1314C 238.672,1313.65 239.838,1313.81 241,1314.5C 242.596,1313.5 244.096,1312.34 245.5,1311C 247.5,1310.67 249.5,1310.33 251.5,1310C 253.681,1306.57 256.681,1304.07 260.5,1302.5C 265.853,1296.14 270.853,1289.47 275.5,1282.5C 279.697,1281.61 283.697,1280.27 287.5,1278.5C 287.253,1275.5 288.253,1273 290.5,1271C 296.109,1268.68 301.776,1266.51 307.5,1264.5C 308.584,1258.24 312.251,1255.08 318.5,1255C 319.851,1253.38 321.518,1252.22 323.5,1251.5C 324.374,1247.79 326.54,1245.13 330,1243.5C 331.421,1242.08 333.255,1240.25 335.5,1238C 340.969,1234.7 346.302,1231.2 351.5,1227.5C 350.417,1222.27 347.917,1217.94 344,1214.5C 343.529,1212.75 342.862,1211.09 342,1209.5C 337.57,1206.73 335.237,1202.73 335,1197.5C 328.666,1190.84 323.833,1183.18 320.5,1174.5C 316.145,1172.08 312.312,1169.08 309,1165.5C 309.132,1161.97 307.465,1159.97 304,1159.5C 304.385,1155.12 302.719,1151.79 299,1149.5C 294.541,1139.96 290.541,1130.3 287,1120.5C 284.273,1116.96 282.44,1112.96 281.5,1108.5C 282.491,1106.88 281.824,1105.88 279.5,1105.5C 279.317,1101.52 277.651,1098.35 274.5,1096C 275.451,1095.28 275.617,1094.45 275,1093.5C 264.893,1082.29 258.227,1069.29 255,1054.5C 253.185,1052.6 251.185,1050.93 249,1049.5C 248.349,1047.76 248.515,1046.1 249.5,1044.5C 244.726,1040.5 242.726,1035.5 243.5,1029.5C 241.946,1025.99 240.112,1022.66 238,1019.5C 236.602,1017.19 236.435,1014.85 237.5,1012.5C 235.803,1011.64 234.637,1010.3 234,1008.5C 233.271,1000.72 230.604,993.717 226,987.5C 225.405,986.101 225.572,984.768 226.5,983.5C 222.104,974.265 218.938,964.598 217,954.5C 214.172,952.408 214.005,950.241 216.5,948C 215.712,944.537 214.046,941.537 211.5,939C 212.167,938 212.833,937 213.5,936C 212.344,929.674 210.344,923.341 207.5,917C 207.735,916.127 208.069,915.293 208.5,914.5C 207.27,912.067 206.27,909.567 205.5,907C 205.316,904.724 205.316,902.39 205.5,900C 201.287,888.014 198.287,875.681 196.5,863C 197.167,862.333 197.833,861.667 198.5,861C 197.481,856.28 196.147,851.614 194.5,847C 195.055,843.799 195.388,840.633 195.5,837.5C 194.513,834.352 193.18,831.352 191.5,828.5C 192.751,827.369 193.751,826.036 194.5,824.5C 192.323,819.721 190.99,814.887 190.5,810C 191.711,806.967 193.044,803.967 194.5,801C 192.767,797.556 191.767,793.889 191.5,790C 192.164,787.834 193.164,785.834 194.5,784C 193.946,782.449 193.28,780.949 192.5,779.5C 193.523,777.997 194.523,776.497 195.5,775C 194.541,772.88 194.374,770.713 195,768.5C 197.437,764.101 199.27,759.434 200.5,754.5C 199.27,749.805 198.27,745.138 197.5,740.5C 198.156,737.667 199.49,735.167 201.5,733C 199.982,728.923 200.649,725.257 203.5,722C 199.763,718.166 199.763,714.5 203.5,711C 202.833,709.333 202.167,707.667 201.5,706C 203.134,703.02 204.8,700.02 206.5,697C 206.014,694.033 205.847,690.866 206,687.5C 209.242,685.774 210.075,683.274 208.5,680C 209.627,673.242 212.627,667.576 217.5,663C 216.476,660.822 216.643,658.655 218,656.5C 220.428,655.37 222.595,653.87 224.5,652C 222.744,648.133 223.744,645.133 227.5,643C 228.173,639.461 229.006,635.961 230,632.5C 231.019,631.313 232.186,630.313 233.5,629.5C 234.509,625.982 236.176,622.815 238.5,620C 238.719,613.9 241.053,608.9 245.5,605C 245.167,604.667 244.833,604.333 244.5,604C 245.227,602.601 245.727,601.101 246,599.5C 251.164,593.837 254.164,587.17 255,579.5C 257.992,578.005 260.159,575.672 261.5,572.5C 259.653,568.809 260.486,565.476 264,562.5C 264.083,557.944 266.249,555.278 270.5,554.5C 270.343,553.127 270.51,551.793 271,550.5C 274.057,547.053 276.057,543.053 277,538.5C 278.11,536.963 279.61,536.297 281.5,536.5C 281.687,534.436 282.187,532.436 283,530.5C 285.5,528.667 287.667,526.5 289.5,524C 294.015,520.659 298.682,517.492 303.5,514.5C 306.345,509.306 310.012,504.639 314.5,500.5C 315.729,499.719 317.062,499.219 318.5,499C 320.74,494.133 324.407,490.8 329.5,489C 331.134,488.506 332.801,488.34 334.5,488.5C 334.884,485.231 336.218,482.397 338.5,480C 340.909,478.799 342.909,477.133 344.5,475C 346.5,474.667 348.5,474.333 350.5,474C 351.056,471.763 352.056,469.763 353.5,468C 358.083,465.791 362.249,462.958 366,459.5C 366.772,459.645 367.439,459.978 368,460.5C 368.44,458.924 369.273,457.59 370.5,456.5C 376.852,454.775 382.518,451.609 387.5,447C 389.167,446.667 390.833,446.333 392.5,446C 396.916,441.546 401.749,437.712 407,434.5C 407.561,435.022 408.228,435.355 409,435.5C 416.168,432.167 422.668,427.833 428.5,422.5C 434.532,422.55 439.532,420.384 443.5,416C 447.699,414.485 451.699,412.485 455.5,410C 458.226,409.818 460.893,409.318 463.5,408.5C 466.186,406.143 469.186,404.143 472.5,402.5C 473.086,402.709 473.586,403.043 474,403.5C 479.623,398.967 485.457,395.467 491.5,393C 493.585,392.471 495.418,392.971 497,394.5C 507.458,388.672 518.625,384.839 530.5,383C 534.416,378.996 538.749,378.163 543.5,380.5C 545.316,379.185 546.983,377.685 548.5,376C 551.77,374.874 554.603,374.707 557,375.5C 557.903,374.299 559.069,373.465 560.5,373C 564.914,372.584 569.248,371.75 573.5,370.5C 578.082,372.153 582.248,371.486 586,368.5C 587.667,369.167 589.333,369.833 591,370.5C 594.327,365.328 598.993,363.662 605,365.5C 609.844,364.414 614.677,363.248 619.5,362C 622.429,361.223 625.263,361.39 628,362.5C 629.491,360.996 631.324,360.163 633.5,360C 640.341,359.139 647.175,358.305 654,357.5C 658.336,360.19 662.17,359.857 665.5,356.5 Z M 702.5,427.5 C 703.885,428.614 705.385,429.614 707,430.5C 708.667,429.5 710.333,428.5 712,427.5C 713.981,429.657 716.314,431.324 719,432.5C 723.5,433.376 728.167,433.376 733,432.5C 735.74,433.144 738.24,434.311 740.5,436C 742.441,436.743 744.274,436.576 746,435.5C 749.789,438.784 753.955,439.117 758.5,436.5C 765.641,439.323 772.808,441.99 780,444.5C 780.333,444.167 780.667,443.833 781,443.5C 785,445.5 789,447.5 793,449.5C 796,447.827 799,447.16 802,447.5C 802.819,452.986 805.985,455.486 811.5,455C 812.047,455.925 812.713,456.758 813.5,457.5C 815.889,458.18 818.222,459.014 820.5,460C 827.149,463.653 833.649,467.486 840,471.5C 840.333,471.167 840.667,470.833 841,470.5C 843.426,473.595 846.426,475.928 850,477.5C 851.569,477.153 853.402,476.986 855.5,477C 856.24,478.785 856.907,480.618 857.5,482.5C 862.163,484.498 866.83,486.498 871.5,488.5C 873.027,491.521 875.527,493.187 879,493.5C 881.313,496.654 884.48,498.32 888.5,498.5C 890.795,500.2 892.128,502.534 892.5,505.5C 894.225,506.015 895.892,506.682 897.5,507.5C 900.699,511.443 904.366,514.943 908.5,518C 913.564,518.728 917.23,521.395 919.5,526C 921.397,527.11 923.23,527.276 925,526.5C 927.706,532.778 932.539,535.944 939.5,536C 940.26,537.441 940.926,538.941 941.5,540.5C 948.065,545.782 955.398,549.449 963.5,551.5C 964.126,554.315 965.46,556.815 967.5,559C 970.769,561.617 974.435,563.283 978.5,564C 979.813,567.812 982.48,569.979 986.5,570.5C 990.844,574.003 995.177,577.503 999.5,581C 1004.44,584.4 1009.77,587.234 1015.5,589.5C 1016.83,588.167 1018.17,588.167 1019.5,589.5C 1025.23,587.234 1030.56,584.4 1035.5,581C 1041.1,576.222 1047.1,572.056 1053.5,568.5C 1054.62,567.086 1055.62,565.586 1056.5,564C 1060.56,563.283 1064.23,561.617 1067.5,559C 1069.54,556.815 1070.87,554.315 1071.5,551.5C 1079.6,549.449 1086.94,545.782 1093.5,540.5C 1094.07,538.941 1094.74,537.441 1095.5,536C 1102.46,535.944 1107.29,532.778 1110,526.5C 1111.77,527.276 1113.6,527.11 1115.5,526C 1117.77,521.395 1121.44,518.728 1126.5,518C 1130.63,514.943 1134.3,511.443 1137.5,507.5C 1141.89,507.223 1144.06,504.889 1144,500.5C 1146.4,498.364 1149.23,497.197 1152.5,497C 1154.72,493.973 1157.72,492.14 1161.5,491.5C 1162.41,490.672 1163.08,489.672 1163.5,488.5C 1168.17,486.498 1172.84,484.498 1177.5,482.5C 1178.09,480.618 1178.76,478.785 1179.5,477C 1181.6,476.986 1183.43,477.153 1185,477.5C 1188.57,475.928 1191.57,473.595 1194,470.5C 1194.33,470.833 1194.67,471.167 1195,471.5C 1201.35,467.486 1207.85,463.653 1214.5,460C 1216.78,459.014 1219.11,458.18 1221.5,457.5C 1223.46,454.983 1226.12,453.816 1229.5,454C 1231.04,452.068 1232.21,449.901 1233,447.5C 1236,447.16 1239,447.827 1242,449.5C 1246,447.5 1250,445.5 1254,443.5C 1254.33,443.833 1254.67,444.167 1255,444.5C 1262.19,441.99 1269.36,439.323 1276.5,436.5C 1281.04,439.117 1285.21,438.784 1289,435.5C 1290.73,436.576 1292.56,436.743 1294.5,436C 1296.76,434.311 1299.26,433.144 1302,432.5C 1306.83,433.376 1311.5,433.376 1316,432.5C 1318.69,431.324 1321.02,429.657 1323,427.5C 1326.07,430.059 1329.07,430.059 1332,427.5C 1333.26,429.594 1335.09,430.594 1337.5,430.5C 1344.68,430.219 1351.85,429.886 1359,429.5C 1362.51,430.984 1366.18,431.984 1370,432.5C 1370.67,431.833 1371.33,431.167 1372,430.5C 1376.14,433.66 1380.64,433.993 1385.5,431.5C 1387.79,433.23 1390.29,434.563 1393,435.5C 1398.3,436.268 1403.8,436.268 1409.5,435.5C 1412.49,436.078 1415.32,437.078 1418,438.5C 1421.78,435.503 1424.95,436.003 1427.5,440C 1429.43,440.251 1431.27,440.751 1433,441.5C 1435.6,442.351 1438.44,442.351 1441.5,441.5C 1445.1,442.603 1448.6,443.937 1452,445.5C 1453.56,444.971 1455.06,444.304 1456.5,443.5C 1458.36,445.192 1460.36,446.692 1462.5,448C 1464.71,448.626 1466.88,448.459 1469,447.5C 1470.17,448.009 1471,448.842 1471.5,450C 1475.55,451.112 1479.38,452.612 1483,454.5C 1484.73,453.424 1486.56,453.257 1488.5,454C 1491.68,457.201 1495.34,458.035 1499.5,456.5C 1502.59,458.93 1505.92,460.93 1509.5,462.5C 1510.09,462.291 1510.59,461.957 1511,461.5C 1513.74,462.57 1516.24,464.07 1518.5,466C 1520.11,466.72 1521.61,466.554 1523,465.5C 1526.03,468.809 1529.86,470.309 1534.5,470C 1536.32,471.658 1537.99,473.491 1539.5,475.5C 1546.75,475.966 1552.75,478.799 1557.5,484C 1559.18,484.395 1560.85,484.228 1562.5,483.5C 1567.05,487.226 1571.72,490.726 1576.5,494C 1580.65,494.073 1583.98,495.739 1586.5,499C 1588.83,499.333 1591.17,499.667 1593.5,500C 1596.09,506.249 1600.75,509.915 1607.5,511C 1609.35,514.417 1612.02,515.584 1615.5,514.5C 1617.95,519.843 1621.95,522.177 1627.5,521.5C 1628.25,522.376 1628.75,523.376 1629,524.5C 1635.1,530.326 1641.6,535.826 1648.5,541C 1650.44,541.743 1652.27,541.576 1654,540.5C 1655.58,547.412 1659.58,551.412 1666,552.5C 1667.28,556.78 1670.11,559.28 1674.5,560C 1675.26,561.441 1675.93,562.941 1676.5,564.5C 1677.96,566.422 1679.63,567.089 1681.5,566.5C 1685.82,570.822 1689.82,575.489 1693.5,580.5C 1696.03,581.599 1698.53,582.599 1701,583.5C 1703.11,586.933 1704.78,590.599 1706,594.5C 1710.2,598.219 1712.86,602.885 1714,608.5C 1718.27,612.56 1720.6,617.56 1721,623.5C 1722.5,625.667 1724.33,627.5 1726.5,629C 1724.86,632.682 1725.53,635.849 1728.5,638.5C 1729.22,643.931 1731.05,648.931 1734,653.5C 1736.89,654.842 1738.22,657.175 1738,660.5C 1741.33,667.156 1744.66,673.823 1748,680.5C 1751.49,681.918 1753.16,684.584 1753,688.5C 1756.23,692.184 1757.9,696.517 1758,701.5C 1762.75,706.577 1765.09,712.577 1765,719.5C 1765.79,721.587 1766.96,723.421 1768.5,725C 1767.68,729.48 1767.68,733.814 1768.5,738C 1772.02,748.268 1773.35,758.601 1772.5,769C 1773.78,771.639 1775.12,774.306 1776.5,777C 1775.53,781.5 1774.86,785.833 1774.5,790C 1775.18,793.42 1776.18,796.754 1777.5,800C 1775.49,803.048 1775.82,806.048 1778.5,809C 1775.93,813.894 1775.93,818.727 1778.5,823.5C 1776.27,826.964 1775.94,830.631 1777.5,834.5C 1777.56,837.047 1776.89,839.38 1775.5,841.5C 1777.05,846 1777.71,850.667 1777.5,855.5C 1775.29,861.227 1773.29,867.06 1771.5,873C 1771.69,876.354 1772.03,879.688 1772.5,883C 1768.12,885.622 1766.45,889.289 1767.5,894C 1766.76,896.139 1765.76,898.139 1764.5,900C 1765.9,901.977 1766.9,904.143 1767.5,906.5C 1765.73,909.447 1763.73,912.281 1761.5,915C 1763.45,920.105 1762.61,924.605 1759,928.5C 1758.55,931.149 1757.71,933.649 1756.5,936C 1757.17,937 1757.83,938 1758.5,939C 1756.74,940.008 1755.57,941.508 1755,943.5C 1753.54,948.762 1752.37,954.095 1751.5,959.5C 1751.83,960.167 1752.17,960.833 1752.5,961.5C 1750.19,965.155 1749.02,969.155 1749,973.5C 1746.8,975.615 1744.8,977.949 1743,980.5C 1743.98,984.884 1742.64,988.551 1739,991.5C 1736.42,997.438 1734.92,1003.44 1734.5,1009.5C 1729.61,1016.27 1725.44,1023.6 1722,1031.5C 1721.32,1032.78 1721.48,1033.95 1722.5,1035C 1716.86,1040.43 1714.86,1046.93 1716.5,1054.5C 1712.01,1055.17 1709.84,1057.83 1710,1062.5C 1707.04,1064.46 1705.87,1066.96 1706.5,1070C 1702.67,1074.62 1699.67,1079.78 1697.5,1085.5C 1698.04,1086.75 1698.71,1087.91 1699.5,1089C 1693.24,1093.4 1689.24,1099.24 1687.5,1106.5C 1684.96,1108.41 1683.29,1110.91 1682.5,1114C 1682.76,1115.26 1683.43,1116.26 1684.5,1117C 1679.16,1120.34 1675.5,1125 1673.5,1131C 1673.64,1131.77 1673.98,1132.44 1674.5,1133C 1669.01,1137.16 1666.01,1142.66 1665.5,1149.5C 1661.84,1150.67 1658.84,1152.84 1656.5,1156C 1657.85,1158.79 1657.35,1161.29 1655,1163.5C 1649.87,1164.3 1647.2,1167.3 1647,1172.5C 1643.34,1177.82 1639.34,1182.82 1635,1187.5C 1634,1189.83 1633,1192.17 1632,1194.5C 1627.53,1195.97 1624.86,1198.97 1624,1203.5C 1617.75,1208.31 1613.75,1214.64 1612,1222.5C 1608.96,1224.04 1606.8,1226.37 1605.5,1229.5C 1603.59,1230.37 1601.75,1231.37 1600,1232.5C 1598.06,1236.44 1595.4,1239.77 1592,1242.5C 1590.56,1248.27 1587.23,1252.61 1582,1255.5C 1580.53,1258.62 1579.2,1261.62 1578,1264.5C 1576.58,1265.46 1575.08,1266.29 1573.5,1267C 1570.77,1273.07 1566.6,1277.9 1561,1281.5C 1560.75,1284.18 1559.75,1286.51 1558,1288.5C 1554.96,1289.53 1552.46,1291.36 1550.5,1294C 1550.67,1295.12 1551,1296.28 1551.5,1297.5C 1547.69,1299.47 1544.69,1302.31 1542.5,1306C 1541.04,1308.65 1538.71,1311.15 1535.5,1313.5C 1535.02,1314.48 1534.36,1315.31 1533.5,1316C 1534.45,1316.72 1534.62,1317.55 1534,1318.5C 1531.25,1320.04 1528.92,1322.04 1527,1324.5C 1526.38,1325.45 1526.55,1326.28 1527.5,1327C 1523.3,1328.37 1520.63,1331.2 1519.5,1335.5C 1514.67,1338.83 1511,1343.16 1508.5,1348.5C 1507.62,1349.25 1506.62,1349.75 1505.5,1350C 1500.99,1354.18 1496.82,1358.68 1493,1363.5C 1492.82,1365.49 1492.99,1367.49 1493.5,1369.5C 1486.33,1369.91 1482.16,1373.58 1481,1380.5C 1477.68,1382.41 1475.18,1385.07 1473.5,1388.5C 1471.18,1389.66 1468.84,1390.83 1466.5,1392C 1463.32,1395.68 1459.99,1399.18 1456.5,1402.5C 1455.9,1403.79 1455.4,1405.13 1455,1406.5C 1451.19,1408.98 1447.69,1411.82 1444.5,1415C 1445.73,1416.18 1445.73,1417.35 1444.5,1418.5C 1438.57,1420.1 1434.57,1423.77 1432.5,1429.5C 1427.93,1430.57 1425.27,1433.4 1424.5,1438C 1421.14,1439.38 1417.81,1440.72 1414.5,1442C 1411.25,1445.95 1407.92,1449.79 1404.5,1453.5C 1403.61,1454.32 1403.28,1455.32 1403.5,1456.5C 1401.15,1456.84 1398.81,1457.34 1396.5,1458C 1394.96,1461.04 1392.63,1463.2 1389.5,1464.5C 1388.57,1465.69 1388.24,1467.02 1388.5,1468.5C 1387.13,1468.34 1385.79,1468.51 1384.5,1469C 1380.87,1472.29 1377.54,1475.79 1374.5,1479.5C 1369.5,1481.01 1365.5,1483.84 1362.5,1488C 1360.13,1490.02 1357.46,1491.69 1354.5,1493C 1352.84,1494.44 1352.18,1496.28 1352.5,1498.5C 1347.31,1497.92 1343.98,1500.09 1342.5,1505C 1333.33,1510.69 1324.33,1516.52 1315.5,1522.5C 1314.38,1523.91 1313.38,1525.41 1312.5,1527C 1308.25,1527.28 1305.25,1529.28 1303.5,1533C 1299.67,1533.5 1297.01,1535.5 1295.5,1539C 1290.91,1540.46 1287.24,1543.12 1284.5,1547C 1282.03,1548.46 1279.36,1549.46 1276.5,1550C 1275.03,1551.55 1274.03,1553.39 1273.5,1555.5C 1271.73,1557.05 1269.9,1557.39 1268,1556.5C 1263.85,1560.16 1259.02,1562.66 1253.5,1564C 1252.66,1565.01 1252.33,1566.18 1252.5,1567.5C 1250.8,1567.34 1249.13,1567.51 1247.5,1568C 1242.38,1570.95 1237.38,1574.11 1232.5,1577.5C 1231.76,1579.54 1230.93,1581.54 1230,1583.5C 1229.44,1582.98 1228.77,1582.64 1228,1582.5C 1222.68,1583.47 1218.02,1585.8 1214,1589.5C 1213.52,1590.45 1213.35,1591.45 1213.5,1592.5C 1209.53,1595.01 1204.86,1597.51 1199.5,1600C 1198.54,1601.42 1197.71,1602.92 1197,1604.5C 1194.82,1605.12 1192.99,1606.28 1191.5,1608C 1181.17,1610.83 1171.17,1614.5 1161.5,1619C 1159.46,1620.24 1158.29,1622.08 1158,1624.5C 1156.49,1625.26 1155.15,1626.26 1154,1627.5C 1152.09,1625.81 1149.92,1625.31 1147.5,1626C 1145.64,1627.69 1143.64,1629.19 1141.5,1630.5C 1140.55,1630.01 1139.55,1629.68 1138.5,1629.5C 1135.39,1630.56 1132.39,1631.89 1129.5,1633.5C 1128.61,1634.32 1128.28,1635.32 1128.5,1636.5C 1124.08,1636.91 1120.25,1638.58 1117,1641.5C 1114.5,1640.4 1112,1640.57 1109.5,1642C 1106,1646.26 1101.67,1647.93 1096.5,1647C 1094.25,1647.61 1092.58,1648.94 1091.5,1651C 1089.89,1651.72 1088.39,1651.55 1087,1650.5C 1082.66,1652.38 1078.16,1653.88 1073.5,1655C 1070.92,1655.78 1068.92,1657.28 1067.5,1659.5C 1061.64,1658.61 1057.64,1661.11 1055.5,1667C 1049.25,1666.84 1042.92,1667.17 1036.5,1668C 1030.53,1669.8 1024.86,1672.3 1019.5,1675.5C 1015.5,1674.56 1011.5,1674.39 1007.5,1675C 997.173,1668.18 985.84,1665.51 973.5,1667C 971.358,1661.11 967.358,1658.61 961.5,1659.5C 960.076,1657.28 958.076,1655.78 955.5,1655C 950.839,1653.88 946.339,1652.38 942,1650.5C 940.612,1651.55 939.112,1651.72 937.5,1651C 934.886,1647.02 931.386,1645.85 927,1647.5C 924.018,1646.27 921.518,1644.43 919.5,1642C 916.998,1640.57 914.498,1640.4 912,1641.5C 908.754,1638.58 904.92,1636.91 900.5,1636.5C 900.719,1635.32 900.386,1634.32 899.5,1633.5C 897.167,1632.33 894.833,1631.17 892.5,1630C 890.765,1629.35 889.098,1629.52 887.5,1630.5C 885.075,1628.4 882.409,1626.73 879.5,1625.5C 877.813,1625.76 876.313,1626.43 875,1627.5C 873.846,1626.26 872.512,1625.26 871,1624.5C 870.707,1622.08 869.541,1620.24 867.5,1619C 857.826,1614.5 847.826,1610.83 837.5,1608C 836.012,1606.28 834.179,1605.12 832,1604.5C 830.991,1602.98 830.491,1601.31 830.5,1599.5C 827.063,1598.87 823.896,1597.53 821,1595.5C 820.667,1595.83 820.333,1596.17 820,1596.5C 819.55,1593.89 818.05,1592.56 815.5,1592.5C 815.649,1591.45 815.483,1590.45 815,1589.5C 810.983,1585.8 806.316,1583.47 801,1582.5C 800.228,1582.64 799.561,1582.98 799,1583.5C 798.069,1581.54 797.236,1579.54 796.5,1577.5C 791.619,1574.11 786.619,1570.95 781.5,1568C 779.866,1567.51 778.199,1567.34 776.5,1567.5C 776.67,1566.18 776.337,1565.01 775.5,1564C 769.979,1562.66 765.145,1560.16 761,1556.5C 759.098,1557.39 757.265,1557.05 755.5,1555.5C 754.966,1553.39 753.966,1551.55 752.5,1550C 747.841,1549.13 744.174,1546.79 741.5,1543C 739.112,1541.14 736.446,1539.81 733.5,1539C 731.993,1535.5 729.327,1533.5 725.5,1533C 723.752,1529.28 720.752,1527.28 716.5,1527C 715.624,1525.41 714.624,1523.91 713.5,1522.5C 704.667,1516.52 695.667,1510.69 686.5,1505C 685.023,1500.09 681.69,1497.92 676.5,1498.5C 676.822,1496.28 676.155,1494.44 674.5,1493C 671.539,1491.69 668.872,1490.02 666.5,1488C 663.498,1483.84 659.498,1481.01 654.5,1479.5C 651.461,1475.79 648.128,1472.29 644.5,1469C 643.207,1468.51 641.873,1468.34 640.5,1468.5C 640.762,1467.02 640.429,1465.69 639.5,1464.5C 636.369,1463.2 634.036,1461.04 632.5,1458C 630.187,1457.34 627.854,1456.84 625.5,1456.5C 625.719,1455.32 625.386,1454.32 624.5,1453.5C 621.082,1449.79 617.748,1445.95 614.5,1442C 611.193,1440.72 607.859,1439.38 604.5,1438C 603.734,1433.4 601.067,1430.57 596.5,1429.5C 594.434,1423.77 590.434,1420.1 584.5,1418.5C 583.269,1417.35 583.269,1416.18 584.5,1415C 581.314,1411.82 577.814,1408.98 574,1406.5C 573.598,1405.13 573.098,1403.79 572.5,1402.5C 569.012,1399.18 565.679,1395.68 562.5,1392C 560.158,1390.83 557.824,1389.66 555.5,1388.5C 553.819,1385.07 551.319,1382.41 548,1380.5C 546.838,1373.58 542.672,1369.91 535.5,1369.5C 536.014,1367.49 536.18,1365.49 536,1363.5C 528.697,1356.21 521.864,1348.54 515.5,1340.5C 511.413,1338.25 508.58,1334.91 507,1330.5C 505.421,1328.96 503.587,1327.79 501.5,1327C 502.451,1326.28 502.617,1325.45 502,1324.5C 500.079,1322.04 497.746,1320.04 495,1318.5C 494.383,1317.55 494.549,1316.72 495.5,1316C 490.909,1312.13 487.409,1307.97 485,1303.5C 482.591,1301.38 480.091,1299.38 477.5,1297.5C 478.002,1296.28 478.335,1295.12 478.5,1294C 476.539,1291.36 474.039,1289.53 471,1288.5C 469.249,1286.51 468.249,1284.18 468,1281.5C 462.564,1278.06 458.564,1273.4 456,1267.5C 454.333,1266.5 452.667,1265.5 451,1264.5C 449.803,1261.62 448.47,1258.62 447,1255.5C 441.773,1252.61 438.44,1248.27 437,1242.5C 433.604,1239.77 430.937,1236.44 429,1232.5C 427.247,1231.37 425.413,1230.37 423.5,1229.5C 422.203,1226.37 420.036,1224.04 417,1222.5C 415.246,1214.64 411.246,1208.31 405,1203.5C 404.138,1198.97 401.472,1195.97 397,1194.5C 395.857,1189.9 393.357,1186.23 389.5,1183.5C 385.341,1178.85 382.508,1173.51 381,1167.5C 379.164,1165.29 376.831,1163.96 374,1163.5C 371.654,1161.29 371.154,1158.79 372.5,1156C 370.163,1152.84 367.163,1150.67 363.5,1149.5C 362.995,1142.66 359.995,1137.16 354.5,1133C 355.464,1130.35 354.964,1127.85 353,1125.5C 350.833,1122 348,1119.17 344.5,1117C 345.574,1116.26 346.241,1115.26 346.5,1114C 343.177,1105 338.011,1097.17 331,1090.5C 331.121,1087.92 330.954,1085.42 330.5,1083C 328.431,1078.23 325.764,1073.9 322.5,1070C 323.129,1066.96 321.963,1064.46 319,1062.5C 318.859,1058.36 317.025,1055.19 313.5,1053C 313.711,1046.14 311.377,1040.14 306.5,1035C 307.517,1033.95 307.684,1032.78 307,1031.5C 303.822,1024.47 300.155,1017.8 296,1011.5C 295.417,1005.39 293.75,999.387 291,993.5C 288.445,991.137 286.612,988.304 285.5,985C 286.554,983.612 286.72,982.112 286,980.5C 283.933,977.891 281.766,975.391 279.5,973C 279.957,972.586 280.291,972.086 280.5,971.5C 278.441,959.737 275.441,948.571 271.5,938C 271.645,937.228 271.978,936.561 272.5,936C 270.827,933 270.16,930 270.5,927C 266.332,922.43 265.332,917.43 267.5,912C 265.254,909.573 264.588,906.906 265.5,904C 264.459,900.579 263.125,897.246 261.5,894C 261.645,893.228 261.978,892.561 262.5,892C 260.949,887.631 259.782,883.131 259,878.5C 258.535,877.069 257.701,875.903 256.5,875C 257.271,871.177 256.604,867.511 254.5,864C 254.667,860.653 255.333,857.153 256.5,853.5C 254.272,849.335 253.939,845.001 255.5,840.5C 255.113,838.726 254.447,837.059 253.5,835.5C 256.068,830.727 256.068,825.894 253.5,821C 256.179,818.048 256.512,815.048 254.5,812C 257.698,803.807 257.698,795.473 254.5,787C 257.291,785.881 258.957,783.881 259.5,781C 259.254,774.144 258.921,767.144 258.5,760C 262.316,756.209 263.65,751.709 262.5,746.5C 264.662,743.532 264.995,740.366 263.5,737C 266.681,732.558 267.848,728.058 267,723.5C 270.517,719.528 271.351,715.028 269.5,710C 275.215,705.601 278.382,699.768 279,692.5C 281.639,689.719 283.139,686.386 283.5,682.5C 284.748,681.96 285.915,681.293 287,680.5C 291.422,672.448 295.088,664.115 298,655.5C 299,654.833 300,654.167 301,653.5C 303.835,647.474 306.502,641.474 309,635.5C 309.758,633.231 309.591,631.064 308.5,629C 313.285,626.21 315.451,622.044 315,616.5C 316.026,613.12 318.026,610.454 321,608.5C 322.137,602.885 324.804,598.219 329,594.5C 330.062,589.727 332.228,585.56 335.5,582C 336.549,581.508 337.549,581.674 338.5,582.5C 339.5,581.833 340.5,581.167 341.5,580.5C 345.184,575.489 349.184,570.822 353.5,566.5C 354.833,566.167 356.167,565.833 357.5,565.5C 358.782,563.821 359.782,561.987 360.5,560C 364.888,559.28 367.721,556.78 369,552.5C 375.424,551.412 379.424,547.412 381,540.5C 382.726,541.576 384.559,541.743 386.5,541C 393.399,535.826 399.899,530.326 406,524.5C 406.36,521.572 407.693,520.906 410,522.5C 414.525,521.477 417.692,518.81 419.5,514.5C 422.979,515.584 425.645,514.417 427.5,511C 434.245,509.915 438.912,506.249 441.5,500C 445.568,500.293 448.902,498.959 451.5,496C 453.715,494.956 456.048,494.29 458.5,494C 462.5,490.833 466.5,487.667 470.5,484.5C 472.781,483.815 475.114,483.649 477.5,484C 482.253,478.799 488.253,475.966 495.5,475.5C 497.89,470.47 501.89,468.304 507.5,469C 509.492,468.426 510.992,467.259 512,465.5C 513.388,466.554 514.888,466.72 516.5,466C 518.758,464.07 521.258,462.57 524,461.5C 525.77,462.276 527.603,462.11 529.5,461C 531.897,457.372 535.064,456.205 539,457.5C 541.819,457.007 544.319,455.84 546.5,454C 548.441,453.257 550.274,453.424 552,454.5C 555.621,452.612 559.454,451.112 563.5,450C 563.998,448.842 564.831,448.009 566,447.5C 568.12,448.459 570.287,448.626 572.5,448C 574.641,446.692 576.641,445.192 578.5,443.5C 579.941,444.304 581.441,444.971 583,445.5C 586.402,443.937 589.902,442.603 593.5,441.5C 596.564,442.351 599.398,442.351 602,441.5C 603.734,440.751 605.567,440.251 607.5,440C 610.054,436.003 613.22,435.503 617,438.5C 619.678,437.078 622.512,436.078 625.5,435.5C 631.198,436.268 636.698,436.268 642,435.5C 644.707,434.563 647.207,433.23 649.5,431.5C 654.359,433.993 658.859,433.66 663,430.5C 663.667,431.167 664.333,431.833 665,432.5C 668.824,431.984 672.49,430.984 676,429.5C 683.154,429.886 690.321,430.219 697.5,430.5C 699.942,430.714 701.608,429.714 702.5,427.5 Z"/></g>
<g><path style="opacity:0.994" fill="#000000" d="M 841.5,1165.5 C 843.824,1166.08 845.99,1167.08 848,1168.5C 848.95,1167.98 849.784,1167.31 850.5,1166.5C 851.842,1167.9 852.676,1167.57 853,1165.5C 854.337,1167 856.004,1168 858,1168.5C 858.483,1169.45 858.649,1170.45 858.5,1171.5C 860.527,1171.34 862.527,1171.5 864.5,1172C 867.814,1176.13 870.48,1180.63 872.5,1185.5C 880.685,1187.54 883.018,1191.87 879.5,1198.5C 882.133,1200.94 883.8,1204.44 884.5,1209C 884.415,1210.11 884.081,1211.11 883.5,1212C 885.99,1212.5 887.49,1214 888,1216.5C 887.68,1219.46 887.68,1222.46 888,1225.5C 889.522,1230.56 891.355,1235.56 893.5,1240.5C 893.099,1242.43 892.099,1243.93 890.5,1245C 891.416,1245.37 892.25,1245.87 893,1246.5C 893.833,1249 894.667,1251.5 895.5,1254C 895.18,1255.65 894.18,1256.65 892.5,1257C 893.167,1257.33 893.833,1257.67 894.5,1258C 893.248,1263.95 893.248,1269.95 894.5,1276C 894.139,1278.45 893.472,1280.78 892.5,1283C 893.167,1283.33 893.833,1283.67 894.5,1284C 893.023,1285.88 891.69,1287.88 890.5,1290C 894.153,1295.01 893.153,1298.68 887.5,1301C 888.664,1302.99 889.331,1305.16 889.5,1307.5C 887.413,1311.14 885.913,1315.14 885,1319.5C 881.602,1321.94 879.436,1325.28 878.5,1329.5C 877.167,1331.5 875.5,1333.17 873.5,1334.5C 873.197,1339.97 871.531,1344.97 868.5,1349.5C 861.385,1354.11 854.718,1359.27 848.5,1365C 844.812,1365.19 841.312,1366.02 838,1367.5C 835.271,1366.47 832.271,1366.47 829,1367.5C 825.522,1365.71 821.855,1364.38 818,1363.5C 814.74,1359.63 810.573,1357.47 805.5,1357C 803.261,1352.69 801.428,1348.19 800,1343.5C 796.418,1342.25 793.751,1339.92 792,1336.5C 791.257,1334.56 791.424,1332.73 792.5,1331C 789.907,1329.41 788.241,1327.58 787.5,1325.5C 788.853,1324.48 789.52,1323.14 789.5,1321.5C 788.5,1321.5 787.5,1321.5 786.5,1321.5C 785.833,1319.18 785.666,1316.85 786,1314.5C 786.333,1314.83 786.667,1315.17 787,1315.5C 787.667,1313.83 787.667,1312.17 787,1310.5C 784.87,1308.41 783.37,1305.91 782.5,1303C 783.658,1301.99 784.325,1300.66 784.5,1299C 783.514,1293.52 783.348,1288.02 784,1282.5C 785.587,1280.37 787.087,1278.2 788.5,1276C 784.999,1273.67 783.333,1270.33 783.5,1266C 783.809,1262.69 784.642,1259.53 786,1256.5C 786.796,1252.25 786.629,1248.08 785.5,1244C 786.133,1240.54 786.8,1237.04 787.5,1233.5C 788.086,1233.29 788.586,1232.96 789,1232.5C 789.547,1226.69 791.38,1221.36 794.5,1216.5C 793.978,1215.39 793.645,1214.23 793.5,1213C 795.042,1209.62 796.209,1206.12 797,1202.5C 799.93,1201.98 802.43,1200.64 804.5,1198.5C 804.707,1195.6 804.873,1192.6 805,1189.5C 805.589,1187.14 807.089,1186.14 809.5,1186.5C 809.433,1183.23 811.099,1181.73 814.5,1182C 815.293,1180.91 815.96,1179.75 816.5,1178.5C 817.776,1177.36 819.109,1177.36 820.5,1178.5C 822.903,1176.29 824.569,1173.62 825.5,1170.5C 827.792,1168.98 829.792,1169.31 831.5,1171.5C 834.404,1168.63 837.737,1166.63 841.5,1165.5 Z"/></g>
<g><path style="opacity:0.995" fill="#000000" d="M 1214.5,1171.5 C 1217.25,1172.19 1219.92,1173.19 1222.5,1174.5C 1223.52,1173.31 1224.69,1172.31 1226,1171.5C 1229.38,1174.36 1233.21,1176.52 1237.5,1178C 1240.71,1182.34 1243.54,1186.84 1246,1191.5C 1250.79,1192.13 1253.63,1194.8 1254.5,1199.5C 1253.8,1200.86 1253.8,1202.03 1254.5,1203C 1253.83,1203.33 1253.17,1203.67 1252.5,1204C 1254.05,1205.21 1255.22,1206.71 1256,1208.5C 1256.65,1214.12 1258.48,1219.29 1261.5,1224C 1260.51,1226.45 1260.34,1228.95 1261,1231.5C 1262.52,1236.56 1264.36,1241.56 1266.5,1246.5C 1265.83,1247.83 1265.17,1249.17 1264.5,1250.5C 1266.31,1253.43 1267.65,1256.6 1268.5,1260C 1268.24,1261.26 1267.57,1262.26 1266.5,1263C 1266.44,1272.04 1266.77,1281.04 1267.5,1290C 1266.9,1292.47 1265.56,1294.47 1263.5,1296C 1267.1,1301.09 1266.1,1304.76 1260.5,1307C 1261.66,1308.99 1262.33,1311.16 1262.5,1313.5C 1261.48,1316.06 1260.64,1318.72 1260,1321.5C 1255.26,1327.96 1250.76,1334.63 1246.5,1341.5C 1245.52,1345.9 1244.35,1350.23 1243,1354.5C 1235.64,1359.79 1228.47,1365.29 1221.5,1371C 1218.1,1371.1 1214.93,1371.93 1212,1373.5C 1208.87,1372.57 1205.54,1372.57 1202,1373.5C 1198.09,1371.31 1193.93,1369.64 1189.5,1368.5C 1187.13,1364.22 1183.46,1362.38 1178.5,1363C 1176.48,1358.6 1174.64,1354.1 1173,1349.5C 1169.72,1347.88 1167.05,1345.55 1165,1342.5C 1164.31,1340.43 1164.48,1338.43 1165.5,1336.5C 1163.82,1335.15 1162.48,1333.48 1161.5,1331.5C 1161.93,1330.71 1162.26,1329.87 1162.5,1329C 1160.83,1327.14 1159.83,1324.98 1159.5,1322.5C 1160.4,1320.2 1160.56,1317.87 1160,1315.5C 1158.17,1313.7 1157.01,1311.53 1156.5,1309C 1156.56,1302.23 1156.9,1295.39 1157.5,1288.5C 1158.81,1287.09 1159.64,1285.42 1160,1283.5C 1163.36,1282.26 1163.19,1281.42 1159.5,1281C 1156.09,1276.2 1155.76,1271.37 1158.5,1266.5C 1157.36,1250.85 1160.7,1236.18 1168.5,1222.5C 1167.97,1221.81 1167.31,1221.31 1166.5,1221C 1167.65,1216.78 1168.98,1212.61 1170.5,1208.5C 1174.32,1207.93 1176.99,1205.93 1178.5,1202.5C 1177.17,1199.83 1177.17,1197.17 1178.5,1194.5C 1181,1193.42 1182.66,1191.59 1183.5,1189C 1186.81,1189.23 1188.64,1187.73 1189,1184.5C 1189.33,1184.83 1189.67,1185.17 1190,1185.5C 1191.44,1183.95 1193.27,1183.12 1195.5,1183C 1196.67,1180.99 1197.34,1178.83 1197.5,1176.5C 1200.45,1174.94 1203.12,1175.28 1205.5,1177.5C 1206.38,1176.24 1207.38,1175.07 1208.5,1174C 1210.85,1173.76 1212.85,1172.93 1214.5,1171.5 Z"/></g>
</svg>
