<?xml version="1.0" encoding="UTF-8"?>
<!DOCTYPE svg PUBLIC "-//W3C//DTD SVG 1.1//EN" "http://www.w3.org/Graphics/SVG/1.1/DTD/svg11.dtd">
<svg xmlns="http://www.w3.org/2000/svg" version="1.1" width="2048px" height="2048px" style="shape-rendering:geometricPrecision; text-rendering:geometricPrecision; image-rendering:optimizeQuality; fill-rule:evenodd; clip-rule:evenodd" xmlns:xlink="http://www.w3.org/1999/xlink">
<g><path style="opacity:0.998" fill="#0c0a09" d="M 1070.5,101.5 C 1075.49,103.787 1080.82,104.953 1086.5,105C 1092.88,107.595 1099.38,110.095 1106,112.5C 1113.36,109.065 1120.86,108.898 1128.5,112C 1131.7,114.415 1135.2,116.249 1139,117.5C 1141.27,114.935 1143.94,112.935 1147,111.5C 1150.01,112.469 1153.17,112.802 1156.5,112.5C 1156.42,113.93 1156.75,115.264 1157.5,116.5C 1160.16,117.499 1162.83,118.499 1165.5,119.5C 1170.37,117.296 1173.71,118.629 1175.5,123.5C 1180.21,119.953 1185.54,118.62 1191.5,119.5C 1191.36,121.124 1192.03,122.29 1193.5,123C 1199.27,125.242 1205.27,126.742 1211.5,127.5C 1211.99,129.806 1212.33,132.139 1212.5,134.5C 1215.57,134.183 1218.57,134.516 1221.5,135.5C 1225.73,140.095 1230.57,140.762 1236,137.5C 1240.1,137.728 1244.26,137.895 1248.5,138C 1251.41,139.117 1253.41,141.117 1254.5,144C 1258.12,143.595 1261.79,143.595 1265.5,144C 1267.92,145.063 1270.42,145.896 1273,146.5C 1274.88,147.619 1275.71,149.286 1275.5,151.5C 1279.51,151.334 1283.51,151.501 1287.5,152C 1289.04,153.11 1289.7,154.61 1289.5,156.5C 1293.62,157.727 1297.62,159.227 1301.5,161C 1304.48,161.498 1307.48,161.665 1310.5,161.5C 1310.5,162.5 1310.5,163.5 1310.5,164.5C 1313.6,163.907 1315.93,164.907 1317.5,167.5C 1320.75,167.953 1323.08,169.619 1324.5,172.5C 1330.84,175.67 1337.5,178.17 1344.5,180C 1347.4,180.943 1349.73,182.61 1351.5,185C 1354.5,186 1357.5,187 1360.5,188C 1361.17,189.333 1361.83,190.667 1362.5,192C 1367.82,193.813 1372.82,196.313 1377.5,199.5C 1378.93,201.22 1379.77,203.22 1380,205.5C 1380.33,204.833 1380.67,204.167 1381,203.5C 1384.9,205.192 1388.73,207.192 1392.5,209.5C 1393.97,213.13 1396.47,214.463 1400,213.5C 1404.53,218.077 1409.2,222.411 1414,226.5C 1414.63,224.009 1415.46,224.009 1416.5,226.5C 1422.21,228.047 1426.88,231.213 1430.5,236C 1431.79,236.49 1433.13,236.657 1434.5,236.5C 1434.2,238.604 1434.53,240.604 1435.5,242.5C 1439.2,244.784 1443.2,246.617 1447.5,248C 1450.4,249.715 1451.73,252.215 1451.5,255.5C 1452.87,255.343 1454.21,255.51 1455.5,256C 1456.5,257.667 1457.5,259.333 1458.5,261C 1463.97,262.152 1467.97,265.152 1470.5,270C 1474.8,272.61 1479.13,275.276 1483.5,278C 1484.43,280.97 1486.43,282.803 1489.5,283.5C 1490.01,285.225 1490.68,286.892 1491.5,288.5C 1495.61,291.957 1499.94,294.957 1504.5,297.5C 1505.95,298.85 1506.62,300.516 1506.5,302.5C 1507.82,302.33 1508.99,302.663 1510,303.5C 1510.78,306.429 1510.61,309.263 1509.5,312C 1513.22,312.388 1516.89,313.055 1520.5,314C 1522.92,317.737 1524.09,321.904 1524,326.5C 1527.48,328.65 1530.65,331.15 1533.5,334C 1539.21,335.205 1542.21,338.705 1542.5,344.5C 1548.18,345.51 1551.51,348.844 1552.5,354.5C 1558.21,359.204 1563.21,364.537 1567.5,370.5C 1566.85,373.501 1566.51,376.834 1566.5,380.5C 1571.39,380.095 1574.55,382.095 1576,386.5C 1578,387.833 1580,389.167 1582,390.5C 1582.95,393.432 1583.45,396.432 1583.5,399.5C 1588.68,399.523 1590.84,402.19 1590,407.5C 1593.61,408.95 1596.44,411.283 1598.5,414.5C 1599.22,417.615 1600.72,420.282 1603,422.5C 1603.33,424.167 1603.67,425.833 1604,427.5C 1606.33,428.5 1608,430.167 1609,432.5C 1609.33,435.5 1609.67,438.5 1610,441.5C 1612.88,445.656 1614.71,450.323 1615.5,455.5C 1620.33,458.344 1624.49,462.01 1628,466.5C 1628.68,469.614 1627.85,472.281 1625.5,474.5C 1626.91,475.624 1628.41,476.624 1630,477.5C 1630.71,479.847 1631.88,481.847 1633.5,483.5C 1634.17,486.167 1634.83,488.833 1635.5,491.5C 1637.32,492.747 1639.32,493.414 1641.5,493.5C 1642.42,495.881 1642.42,498.214 1641.5,500.5C 1643.85,503.871 1646.18,507.204 1648.5,510.5C 1647.45,512.056 1646.79,513.723 1646.5,515.5C 1647.5,515.5 1648.5,515.5 1649.5,515.5C 1650.94,520.006 1651.77,524.673 1652,529.5C 1653.38,531.592 1655.21,533.258 1657.5,534.5C 1658.57,537.297 1658.57,540.131 1657.5,543C 1658.78,545.564 1659.78,548.231 1660.5,551C 1660.36,551.772 1660.02,552.439 1659.5,553C 1661.4,559.591 1664.9,565.091 1670,569.5C 1671.04,572.68 1670.2,575.18 1667.5,577C 1670.1,578.015 1671.94,579.848 1673,582.5C 1673.61,587.243 1675.27,591.577 1678,595.5C 1678.58,599.947 1678.08,604.28 1676.5,608.5C 1679.89,610.726 1682.39,613.726 1684,617.5C 1684.73,620.23 1684.56,622.897 1683.5,625.5C 1685.78,630.165 1686.11,634.998 1684.5,640C 1686.35,644.081 1686.69,648.247 1685.5,652.5C 1685.72,653.938 1686.22,655.271 1687,656.5C 1693.11,660.375 1694.94,665.709 1692.5,672.5C 1692.88,675.575 1694.21,678.075 1696.5,680C 1695.83,681 1695.17,682 1694.5,683C 1696.63,685.268 1697.97,687.934 1698.5,691C 1699.5,696.986 1699.5,703.152 1698.5,709.5C 1698.89,711.274 1699.55,712.941 1700.5,714.5C 1700.73,716.988 1700.06,719.488 1698.5,722C 1700.45,727.604 1702.12,733.271 1703.5,739C 1702.11,744.016 1700.78,749.016 1699.5,754C 1700.28,756.74 1700.78,759.574 1701,762.5C 1701.44,764.076 1702.27,765.41 1703.5,766.5C 1702.97,767.192 1702.31,767.692 1701.5,768C 1702.85,768.772 1703.68,769.939 1704,771.5C 1704.33,778.595 1704.5,785.595 1704.5,792.5C 1703.73,794.771 1702.73,796.938 1701.5,799C 1701.95,800.447 1702.61,801.78 1703.5,803C 1700.52,805.801 1698.52,809.134 1697.5,813C 1699.01,815.699 1700.34,818.532 1701.5,821.5C 1701.47,826.348 1701.3,831.348 1701,836.5C 1698.92,838.123 1696.75,839.623 1694.5,841C 1701.74,847.172 1701.74,853.172 1694.5,859C 1698.44,863.59 1699.44,868.757 1697.5,874.5C 1696.5,874.5 1695.5,874.5 1694.5,874.5C 1694.67,877.266 1695.34,879.933 1696.5,882.5C 1696.29,883.994 1695.62,885.161 1694.5,886C 1695.17,886.333 1695.83,886.667 1696.5,887C 1694.83,888.667 1693.17,890.333 1691.5,892C 1691.41,895.463 1691.41,898.963 1691.5,902.5C 1690.6,909.029 1688.94,915.363 1686.5,921.5C 1688.34,927.051 1686.67,931.385 1681.5,934.5C 1683.7,939.302 1684.04,944.302 1682.5,949.5C 1680.85,950.779 1679.69,952.445 1679,954.5C 1678.67,957.833 1678.33,961.167 1678,964.5C 1675.61,966.681 1673.44,969.014 1671.5,971.5C 1673.76,976.11 1673.93,980.777 1672,985.5C 1669.76,988.729 1667.6,992.063 1665.5,995.5C 1664.26,998.168 1664.26,1000.83 1665.5,1003.5C 1664.73,1006.51 1663.9,1009.51 1663,1012.5C 1662,1013.17 1661,1013.83 1660,1014.5C 1659.67,1017.5 1659.33,1020.5 1659,1023.5C 1657.51,1025 1655.68,1025.84 1653.5,1026C 1654.31,1026.31 1654.97,1026.81 1655.5,1027.5C 1653.8,1030.13 1652.46,1032.96 1651.5,1036C 1650.99,1037.17 1650.16,1038 1649,1038.5C 1648.11,1037.29 1647.27,1037.29 1646.5,1038.5C 1648.99,1039.54 1648.99,1040.37 1646.5,1041C 1647.17,1041.33 1647.83,1041.67 1648.5,1042C 1646.89,1049.96 1644.73,1057.79 1642,1065.5C 1640.29,1067.19 1638.29,1068.53 1636,1069.5C 1635.05,1075.38 1633.38,1081.05 1631,1086.5C 1628.36,1088.5 1626.86,1091.17 1626.5,1094.5C 1625.02,1096.57 1623.02,1097.57 1620.5,1097.5C 1620.82,1100.57 1620.48,1103.57 1619.5,1106.5C 1617.99,1108.66 1616.99,1110.99 1616.5,1113.5C 1615.07,1113.42 1613.74,1113.75 1612.5,1114.5C 1612.04,1119.19 1610.54,1123.53 1608,1127.5C 1606.49,1128.09 1604.99,1128.76 1603.5,1129.5C 1603.01,1133.98 1600.68,1136.98 1596.5,1138.5C 1594.32,1145.9 1591.49,1152.9 1588,1159.5C 1586.64,1160.38 1585.14,1160.71 1583.5,1160.5C 1584.49,1170.85 1579.82,1175.51 1569.5,1174.5C 1569.19,1180.11 1567.85,1185.44 1565.5,1190.5C 1561.33,1190.85 1559.5,1193.18 1560,1197.5C 1556.9,1199.78 1554.73,1202.78 1553.5,1206.5C 1550.83,1208.34 1548.33,1210.34 1546,1212.5C 1545.03,1215.95 1543.03,1218.62 1540,1220.5C 1539.8,1225.63 1537.3,1228.63 1532.5,1229.5C 1532.51,1231.31 1532.01,1232.98 1531,1234.5C 1528.94,1237.08 1526.61,1239.42 1524,1241.5C 1523.51,1242.79 1523.34,1244.13 1523.5,1245.5C 1520.5,1246.83 1517.5,1248.17 1514.5,1249.5C 1514.67,1250.82 1514.34,1251.99 1513.5,1253C 1511.22,1253.23 1509.22,1254.07 1507.5,1255.5C 1506.36,1259.11 1504.69,1262.45 1502.5,1265.5C 1497.93,1267.4 1494.27,1270.4 1491.5,1274.5C 1487.43,1276.86 1483.77,1279.69 1480.5,1283C 1479.11,1284.17 1478.27,1285.67 1478,1287.5C 1474.58,1288.62 1472.08,1290.79 1470.5,1294C 1468.61,1294.97 1466.61,1295.64 1464.5,1296C 1462.83,1297.51 1461.83,1299.34 1461.5,1301.5C 1454.37,1303.62 1449.37,1308.29 1446.5,1315.5C 1444.02,1316.9 1441.35,1317.73 1438.5,1318C 1437.94,1320.24 1436.94,1322.24 1435.5,1324C 1431.44,1324.34 1427.44,1325.01 1423.5,1326C 1422.45,1328.98 1421.12,1331.81 1419.5,1334.5C 1415.86,1336.64 1412.69,1339.31 1410,1342.5C 1409.48,1341.48 1408.65,1340.82 1407.5,1340.5C 1402.94,1342.23 1399.94,1345.39 1398.5,1350C 1393.3,1350.84 1388.3,1352.34 1383.5,1354.5C 1382.74,1355.63 1382.07,1356.79 1381.5,1358C 1375.92,1362.29 1369.92,1365.79 1363.5,1368.5C 1362.38,1369.91 1361.38,1371.41 1360.5,1373C 1354.4,1372.4 1349.23,1374.24 1345,1378.5C 1344.52,1379.45 1344.35,1380.45 1344.5,1381.5C 1342.5,1381.83 1340.5,1382.17 1338.5,1382.5C 1338.67,1383.82 1338.34,1384.99 1337.5,1386C 1334.76,1386.8 1332.09,1387.8 1329.5,1389C 1326.24,1389.62 1323.24,1389.28 1320.5,1388C 1319.25,1391.25 1317.92,1394.41 1316.5,1397.5C 1314.4,1397.48 1312.57,1398.14 1311,1399.5C 1309.53,1398.67 1308.03,1398.5 1306.5,1399C 1302.26,1404.95 1296.59,1407.11 1289.5,1405.5C 1286.21,1407.98 1282.54,1409.64 1278.5,1410.5C 1275.66,1415.73 1271.32,1417.56 1265.5,1416C 1259.42,1419.46 1253.42,1422.8 1247.5,1426C 1245.86,1426.6 1244.2,1427.1 1242.5,1427.5C 1240.68,1426.16 1238.68,1425.66 1236.5,1426C 1232.91,1428.38 1229.41,1430.88 1226,1433.5C 1224.31,1432.82 1222.81,1431.82 1221.5,1430.5C 1217.39,1432.55 1213.06,1434.05 1208.5,1435C 1206.33,1436.34 1204.33,1437.84 1202.5,1439.5C 1199,1440 1195.67,1441 1192.5,1442.5C 1190.89,1441.11 1189.06,1440.11 1187,1439.5C 1184.93,1441.14 1182.76,1442.64 1180.5,1444C 1179.17,1445 1179.17,1446 1180.5,1447C 1184.23,1447.01 1187.06,1448.51 1189,1451.5C 1189.87,1451.26 1190.71,1450.93 1191.5,1450.5C 1195.11,1451.82 1198.78,1452.99 1202.5,1454C 1203.68,1455.9 1205.18,1457.4 1207,1458.5C 1209.85,1457.31 1212.68,1457.31 1215.5,1458.5C 1217.61,1459.95 1219.94,1460.95 1222.5,1461.5C 1223.83,1462.83 1225.17,1464.17 1226.5,1465.5C 1231.05,1460.92 1234.05,1461.58 1235.5,1467.5C 1238.47,1467.71 1241.14,1468.71 1243.5,1470.5C 1248.21,1467.94 1252.88,1467.94 1257.5,1470.5C 1257.33,1471.82 1257.66,1472.99 1258.5,1474C 1264.09,1473.05 1267.42,1475.22 1268.5,1480.5C 1273.05,1480.38 1277.71,1480.88 1282.5,1482C 1284.43,1483.35 1285.77,1485.19 1286.5,1487.5C 1289.78,1488.32 1293.12,1488.82 1296.5,1489C 1297.85,1492.2 1300.18,1494.03 1303.5,1494.5C 1303.26,1496.47 1303.59,1498.3 1304.5,1500C 1308.19,1500.42 1311.86,1500.92 1315.5,1501.5C 1315.3,1503.39 1315.96,1504.89 1317.5,1506C 1323.46,1507.75 1329.46,1509.25 1335.5,1510.5C 1334.91,1514.07 1336.41,1516.07 1340,1516.5C 1340.49,1518.13 1340.66,1519.8 1340.5,1521.5C 1344.83,1520.98 1349.16,1521.65 1353.5,1523.5C 1355.09,1525.17 1355.75,1527.17 1355.5,1529.5C 1361.43,1529.02 1365.77,1531.36 1368.5,1536.5C 1370.37,1537.62 1372.37,1538.46 1374.5,1539C 1376.38,1541.88 1378.88,1544.05 1382,1545.5C 1382.66,1547.81 1383.16,1550.15 1383.5,1552.5C 1387.43,1552.13 1390.1,1553.8 1391.5,1557.5C 1396.44,1557.63 1400.11,1559.8 1402.5,1564C 1403.79,1564.49 1405.13,1564.66 1406.5,1564.5C 1408.3,1568.24 1409.3,1572.24 1409.5,1576.5C 1415.41,1576.45 1419.74,1578.95 1422.5,1584C 1421.52,1586.15 1421.69,1588.31 1423,1590.5C 1426.39,1591.93 1429.89,1593.1 1433.5,1594C 1435.99,1597.99 1439.32,1601.16 1443.5,1603.5C 1446.39,1609.56 1450.56,1614.56 1456,1618.5C 1456.2,1621.8 1457.54,1624.47 1460,1626.5C 1459.41,1631.07 1461.24,1634.07 1465.5,1635.5C 1467.2,1637.07 1468.53,1638.9 1469.5,1641C 1471.44,1641.81 1473.44,1642.31 1475.5,1642.5C 1475.59,1644.68 1476.25,1646.68 1477.5,1648.5C 1479.97,1650.77 1481.97,1653.44 1483.5,1656.5C 1483.08,1657.67 1482.41,1658.67 1481.5,1659.5C 1483.48,1660.98 1485.32,1662.65 1487,1664.5C 1489.27,1667.73 1491.44,1671.07 1493.5,1674.5C 1495.19,1676.03 1497.03,1677.36 1499,1678.5C 1499.46,1682.08 1500.96,1685.08 1503.5,1687.5C 1503.29,1688.09 1502.96,1688.59 1502.5,1689C 1506.22,1691.46 1508.05,1694.96 1508,1699.5C 1513.5,1703.64 1516,1709.31 1515.5,1716.5C 1517.57,1718.35 1518.9,1720.68 1519.5,1723.5C 1519.29,1724.09 1518.96,1724.59 1518.5,1725C 1520.68,1725.16 1522.51,1726 1524,1727.5C 1525.73,1732.8 1526.4,1738.14 1526,1743.5C 1530.27,1746.3 1532.27,1750.3 1532,1755.5C 1534,1758.17 1536,1760.83 1538,1763.5C 1538.5,1765.03 1538.33,1766.53 1537.5,1768C 1539.09,1769.85 1540.42,1771.85 1541.5,1774C 1540.93,1775.87 1540.27,1777.7 1539.5,1779.5C 1542.03,1782.25 1544.2,1785.25 1546,1788.5C 1546.63,1790.71 1546.46,1792.88 1545.5,1795C 1546.98,1798.33 1547.81,1801.83 1548,1805.5C 1553.55,1811.76 1555.55,1819.09 1554,1827.5C 1556.05,1830.49 1557.22,1833.82 1557.5,1837.5C 1557.15,1839.7 1556.15,1841.53 1554.5,1843C 1555.77,1844.8 1555.77,1846.63 1554.5,1848.5C 1558.14,1851.19 1560.8,1854.69 1562.5,1859C 1561.69,1860.31 1560.69,1861.48 1559.5,1862.5C 1561.92,1864.73 1561.92,1867.06 1559.5,1869.5C 1562.16,1873.38 1563.16,1877.72 1562.5,1882.5C 1560.61,1882.3 1559.11,1882.96 1558,1884.5C 1557.48,1887.02 1556.15,1889.02 1554,1890.5C 1553.61,1898.72 1549.44,1901.72 1541.5,1899.5C 1541.51,1902.82 1539.84,1904.49 1536.5,1904.5C 1531.8,1901.72 1526.8,1899.38 1521.5,1897.5C 1515.57,1898.7 1509.74,1900.37 1504,1902.5C 1497.63,1898.45 1491.46,1898.95 1485.5,1904C 1481.83,1904.19 1478.33,1905.02 1475,1906.5C 1471.79,1906 1468.79,1905 1466,1903.5C 1460.62,1906.54 1454.96,1907.2 1449,1905.5C 1446.58,1906.47 1444.08,1907.14 1441.5,1907.5C 1437.18,1906.87 1432.85,1906.37 1428.5,1906C 1426.48,1905.55 1424.65,1904.72 1423,1903.5C 1421.83,1904.89 1420.33,1905.73 1418.5,1906C 1413.54,1906.93 1408.71,1907.1 1404,1906.5C 1400.94,1906.48 1398.11,1907.15 1395.5,1908.5C 1384.38,1908.28 1373.38,1906.61 1362.5,1903.5C 1354.13,1906.41 1345.46,1907.24 1336.5,1906C 1335.89,1905.13 1335.06,1904.63 1334,1904.5C 1328.64,1906.25 1323.14,1907.58 1317.5,1908.5C 1314.91,1908.15 1312.41,1907.48 1310,1906.5C 1304.6,1909.49 1299.43,1909.15 1294.5,1905.5C 1290.81,1906.37 1287.14,1907.37 1283.5,1908.5C 1281.83,1907.83 1280.17,1907.17 1278.5,1906.5C 1273.72,1907.29 1269.06,1907.63 1264.5,1907.5C 1260.84,1906.59 1257.34,1905.25 1254,1903.5C 1251.63,1904.67 1248.79,1905.67 1245.5,1906.5C 1243.55,1905.15 1241.38,1904.48 1239,1904.5C 1231.22,1905.89 1223.39,1906.89 1215.5,1907.5C 1195.47,1907.38 1175.47,1907.38 1155.5,1907.5C 1153.16,1907.33 1150.99,1906.66 1149,1905.5C 1145.52,1905.77 1141.85,1906.44 1138,1907.5C 1134.87,1906.42 1131.7,1905.42 1128.5,1904.5C 1125.71,1905.99 1122.71,1906.65 1119.5,1906.5C 1106.52,1905.37 1093.69,1905.37 1081,1906.5C 1077.86,1906.46 1075.19,1905.46 1073,1903.5C 1071.57,1903.93 1070.4,1904.76 1069.5,1906C 1063.14,1906.83 1056.81,1906.66 1050.5,1905.5C 1049.23,1903.15 1047.89,1903.32 1046.5,1906C 1040.18,1906.94 1034.02,1906.44 1028,1904.5C 1024.97,1904.48 1021.81,1905.15 1018.5,1906.5C 1016.73,1906.11 1015.06,1905.45 1013.5,1904.5C 1008.72,1905.42 1003.89,1906.09 999,1906.5C 996.95,1906.31 995.117,1905.64 993.5,1904.5C 992.148,1905.9 990.481,1906.56 988.5,1906.5C 985.466,1905.99 982.466,1905.32 979.5,1904.5C 974.658,1907.12 969.825,1907.12 965,1904.5C 959.739,1907.77 955.239,1907.11 951.5,1902.5C 948.229,1906.09 944.229,1907.26 939.5,1906C 937.424,1903.84 934.758,1903.34 931.5,1904.5C 927.9,1904.36 924.4,1903.69 921,1902.5C 919.029,1902.47 917.529,1903.3 916.5,1905C 914.134,1905.56 911.801,1905.4 909.5,1904.5C 907.235,1904.94 905.068,1905.61 903,1906.5C 902,1905.83 901,1905.17 900,1904.5C 896.528,1906.42 893.195,1906.42 890,1904.5C 887.782,1905.47 885.449,1906.14 883,1906.5C 878.719,1905.18 874.386,1904.18 870,1903.5C 868.527,1905.01 866.693,1905.67 864.5,1905.5C 861.853,1904.84 859.353,1904.84 857,1905.5C 855.135,1905.29 853.468,1904.63 852,1903.5C 849.307,1904.93 846.473,1905.93 843.5,1906.5C 840.74,1906.02 839.073,1904.35 838.5,1901.5C 836.034,1900.12 834.034,1900.62 832.5,1903C 830.287,1903.63 828.12,1903.46 826,1902.5C 821.793,1906.82 817.46,1907.16 813,1903.5C 809.851,1904.58 806.684,1905.58 803.5,1906.5C 801.737,1906.31 799.903,1906.31 798,1906.5C 793.367,1906.37 788.867,1905.04 784.5,1902.5C 781.445,1903.71 778.778,1903.04 776.5,1900.5C 775.738,1901.63 775.071,1902.79 774.5,1904C 769.046,1906.51 763.713,1906.51 758.5,1904C 757.663,1902.99 757.33,1901.82 757.5,1900.5C 755.126,1901.21 753.126,1902.55 751.5,1904.5C 749.198,1905.03 746.865,1905.36 744.5,1905.5C 741.838,1904.97 739.338,1904.97 737,1905.5C 735.88,1903.93 734.38,1902.93 732.5,1902.5C 729.567,1904.27 726.4,1905.27 723,1905.5C 720.41,1905.62 718.077,1904.96 716,1903.5C 711.094,1905.91 706.094,1905.91 701,1903.5C 697.901,1904.41 695.401,1903.41 693.5,1900.5C 691.597,1903.79 688.931,1904.79 685.5,1903.5C 683.588,1904.85 681.422,1905.52 679,1905.5C 677.342,1905.32 676.009,1904.66 675,1903.5C 673.874,1904.94 672.374,1905.61 670.5,1905.5C 660.22,1905.35 649.887,1905.35 639.5,1905.5C 635.292,1904.71 631.792,1902.71 629,1899.5C 628.221,1903.28 625.888,1905.28 622,1905.5C 618.855,1904.59 616.189,1902.93 614,1900.5C 613.5,1901.67 612.667,1902.5 611.5,1903C 604.83,1904.51 598.33,1904.35 592,1902.5C 588.592,1904.11 585.758,1903.44 583.5,1900.5C 579.167,1902.89 574.501,1904.23 569.5,1904.5C 563.639,1904.37 557.806,1904.37 552,1904.5C 548.885,1901.85 545.218,1900.18 541,1899.5C 538.5,1900.5 536,1901.5 533.5,1902.5C 530.828,1901.5 528.162,1900.5 525.5,1899.5C 524.914,1899.71 524.414,1900.04 524,1900.5C 517.923,1900.02 511.923,1899.02 506,1897.5C 502.286,1894.8 498.619,1892.14 495,1889.5C 492.881,1883.77 490.715,1878.1 488.5,1872.5C 489.652,1868.87 489.652,1865.2 488.5,1861.5C 488.667,1860.5 488.833,1859.5 489,1858.5C 490.609,1857.85 492.109,1857.02 493.5,1856C 490.833,1851.67 490.833,1847.33 493.5,1843C 492.282,1841.56 491.615,1839.9 491.5,1838C 493.682,1831.41 495.016,1824.57 495.5,1817.5C 496.357,1816.26 497.023,1814.93 497.5,1813.5C 499.482,1812.78 501.149,1811.62 502.5,1810C 499.303,1806.73 498.969,1803.23 501.5,1799.5C 500.035,1797.06 500.535,1795.06 503,1793.5C 503.346,1790.21 504.179,1787.04 505.5,1784C 504.051,1780 504.885,1776.5 508,1773.5C 508.977,1771.26 509.477,1768.93 509.5,1766.5C 510.675,1766.72 511.675,1766.39 512.5,1765.5C 513.348,1763.59 513.682,1761.59 513.5,1759.5C 516.14,1759.05 518.473,1757.88 520.5,1756C 519.833,1754 519.167,1752 518.5,1750C 523.451,1739.24 528.118,1728.41 532.5,1717.5C 534.484,1717.62 536.15,1716.95 537.5,1715.5C 538.324,1712.22 538.824,1708.88 539,1705.5C 540.011,1704.66 541.178,1704.33 542.5,1704.5C 542.337,1702.14 542.503,1699.81 543,1697.5C 545.665,1696.38 548.165,1695.71 550.5,1695.5C 548.959,1689.58 550.959,1685.25 556.5,1682.5C 557.04,1681.25 557.707,1680.09 558.5,1679C 558.167,1678.67 557.833,1678.33 557.5,1678C 560.721,1674.4 563.054,1670.23 564.5,1665.5C 568.245,1663.57 570.579,1660.57 571.5,1656.5C 573.672,1655.8 575.672,1654.8 577.5,1653.5C 579.102,1647.57 582.769,1643.57 588.5,1641.5C 589.5,1639.5 590.5,1637.5 591.5,1635.5C 593.045,1634.55 594.712,1634.21 596.5,1634.5C 596.035,1630.21 596.868,1626.21 599,1622.5C 600.356,1621.62 601.856,1621.29 603.5,1621.5C 603.351,1620.45 603.517,1619.45 604,1618.5C 608.518,1617.15 611.018,1614.15 611.5,1609.5C 613.246,1607.15 615.579,1606.15 618.5,1606.5C 618.066,1601.32 620.399,1598.32 625.5,1597.5C 627.019,1596.15 628.352,1594.65 629.5,1593C 630.448,1592.52 631.448,1592.35 632.5,1592.5C 632.178,1590.28 632.845,1588.44 634.5,1587C 638.013,1586.07 641.513,1585.24 645,1584.5C 645.72,1582.89 645.554,1581.39 644.5,1580C 646.54,1577.47 647.874,1574.64 648.5,1571.5C 651.278,1571.98 653.278,1570.98 654.5,1568.5C 658.388,1566.41 662.388,1564.57 666.5,1563C 667.38,1561.64 667.714,1560.14 667.5,1558.5C 668.978,1558.76 670.311,1558.43 671.5,1557.5C 674.891,1551.73 679.557,1547.4 685.5,1544.5C 687.187,1544.76 688.687,1545.43 690,1546.5C 691.818,1541.57 694.651,1537.23 698.5,1533.5C 700.854,1532.94 703.187,1532.27 705.5,1531.5C 708.617,1528.91 711.617,1526.07 714.5,1523C 716.402,1521.35 718.402,1521.02 720.5,1522C 721.585,1519.83 722.919,1517.83 724.5,1516C 729.371,1515.78 734.037,1514.95 738.5,1513.5C 738.343,1512.13 738.51,1510.79 739,1509.5C 741.667,1507.5 744,1505.17 746,1502.5C 747.797,1504.16 749.964,1505.16 752.5,1505.5C 753.277,1503.22 754.277,1501.05 755.5,1499C 758.956,1498.82 762.289,1498.15 765.5,1497C 767.032,1493.3 769.699,1490.8 773.5,1489.5C 774.086,1489.71 774.586,1490.04 775,1490.5C 779.566,1488.91 784.4,1487.91 789.5,1487.5C 792.082,1483.34 795.582,1480.34 800,1478.5C 801.551,1479.05 803.051,1479.72 804.5,1480.5C 806.253,1478.3 808.586,1477.13 811.5,1477C 813.5,1474.33 815.5,1471.67 817.5,1469C 819.441,1468.26 821.274,1468.42 823,1469.5C 825.48,1467.06 828.314,1466.39 831.5,1467.5C 835.91,1464.14 840.91,1462.14 846.5,1461.5C 850.136,1457.21 854.303,1456.55 859,1459.5C 862.949,1453.63 868.282,1451.96 875,1454.5C 877.255,1453.96 879.088,1452.79 880.5,1451C 883.623,1450.79 886.623,1450.13 889.5,1449C 879.715,1445.32 869.715,1442.82 859.5,1441.5C 857.703,1440.3 856.703,1438.64 856.5,1436.5C 850.539,1435.99 844.539,1435.82 838.5,1436C 835.494,1433.84 832.161,1432.34 828.5,1431.5C 826.771,1427.13 823.771,1425.8 819.5,1427.5C 813.389,1427.19 808.222,1424.85 804,1420.5C 803.667,1420.83 803.333,1421.17 803,1421.5C 797.23,1420.57 791.397,1419.74 785.5,1419C 783.741,1415.38 780.741,1413.71 776.5,1414C 773.301,1411.72 769.635,1410.89 765.5,1411.5C 765.703,1409.61 765.037,1408.11 763.5,1407C 759.839,1406.17 756.505,1404.67 753.5,1402.5C 749.739,1401.99 746.072,1401.15 742.5,1400C 740.883,1396.72 738.55,1394.05 735.5,1392C 731.908,1392.5 728.241,1392.5 724.5,1392C 723.833,1390.67 723.167,1389.33 722.5,1388C 718.104,1387.25 713.77,1386.25 709.5,1385C 708.277,1381.78 705.944,1380.11 702.5,1380C 700.787,1378.62 699.453,1376.96 698.5,1375C 693.036,1374.98 688.369,1373.14 684.5,1369.5C 683.311,1368.57 681.978,1368.24 680.5,1368.5C 680.5,1367.17 680.5,1365.83 680.5,1364.5C 676.675,1365.21 673.675,1364.04 671.5,1361C 665.687,1359.08 660.354,1356.41 655.5,1353C 654.134,1351.4 653.134,1349.57 652.5,1347.5C 647.603,1347.03 644.936,1344.36 644.5,1339.5C 639.049,1340.22 634.215,1338.89 630,1335.5C 629.506,1333.87 629.34,1332.2 629.5,1330.5C 626.482,1330.3 623.482,1329.96 620.5,1329.5C 620.5,1328.5 620.5,1327.5 620.5,1326.5C 614.355,1326.45 611.688,1323.45 612.5,1317.5C 609.813,1317.66 607.146,1317.5 604.5,1317C 599.586,1311.41 594.086,1306.58 588,1302.5C 587.788,1300.22 586.955,1298.22 585.5,1296.5C 582.856,1295.6 580.19,1294.77 577.5,1294C 575.471,1291.81 573.138,1289.98 570.5,1288.5C 569.106,1286.28 567.94,1283.94 567,1281.5C 564.504,1277.66 561.004,1275.5 556.5,1275C 554.431,1273.35 553.098,1271.19 552.5,1268.5C 551.264,1267.75 549.93,1267.42 548.5,1267.5C 548.162,1265.15 547.662,1262.81 547,1260.5C 545.414,1257.78 543.414,1255.45 541,1253.5C 540.826,1250 538.993,1248.16 535.5,1248C 533.578,1246.58 532.245,1244.75 531.5,1242.5C 528.49,1241.73 525.49,1240.9 522.5,1240C 520.07,1237.7 519.07,1234.86 519.5,1231.5C 518.325,1231.72 517.325,1231.39 516.5,1230.5C 514.707,1227.75 513.041,1224.92 511.5,1222C 508.705,1220.7 506.039,1219.2 503.5,1217.5C 502.692,1215.58 502.192,1213.58 502,1211.5C 498.769,1208.84 496.436,1205.51 495,1201.5C 492.429,1199.65 489.762,1197.98 487,1196.5C 485.873,1193.62 485.206,1190.62 485,1187.5C 483.601,1186.77 482.101,1186.27 480.5,1186C 478.5,1183.03 476,1180.53 473,1178.5C 470.874,1171.88 467.04,1166.55 461.5,1162.5C 460.636,1159.71 459.136,1157.38 457,1155.5C 456.505,1153.53 456.338,1151.53 456.5,1149.5C 454.516,1149.62 452.85,1148.95 451.5,1147.5C 450.77,1144.89 450.27,1142.22 450,1139.5C 447.571,1138.97 445.738,1137.64 444.5,1135.5C 443.285,1131.29 441.618,1127.29 439.5,1123.5C 439.48,1120.18 437.813,1117.51 434.5,1115.5C 433.655,1108.85 431.988,1102.52 429.5,1096.5C 427.738,1096.64 426.071,1096.31 424.5,1095.5C 422.068,1092.43 419.568,1089.43 417,1086.5C 415.916,1082.13 415.75,1077.8 416.5,1073.5C 410.008,1069.85 408.008,1064.52 410.5,1057.5C 410.167,1056.83 409.833,1056.17 409.5,1055.5C 406.944,1054.95 404.611,1053.95 402.5,1052.5C 400.417,1044.01 396.75,1036.34 391.5,1029.5C 392.311,1028.78 392.978,1027.95 393.5,1027C 388.195,1022.3 387.528,1017.13 391.5,1011.5C 390.445,1007.11 387.778,1004.44 383.5,1003.5C 384.075,997.833 384.242,992.167 384,986.5C 382.908,983.956 382.241,981.289 382,978.5C 373.343,973.698 371.51,967.032 376.5,958.5C 374.115,956.116 372.115,953.45 370.5,950.5C 371.669,948.58 372.669,946.58 373.5,944.5C 366.729,942.737 364.729,938.571 367.5,932C 366.922,930.189 366.422,928.355 366,926.5C 363.257,924.02 361.257,921.02 360,917.5C 359.318,915.062 359.818,912.895 361.5,911C 359.45,907.521 357.784,903.855 356.5,900C 356.748,898.284 357.415,896.784 358.5,895.5C 356.297,893.705 355.131,891.371 355,888.5C 354.329,882.643 353.496,876.81 352.5,871C 352.439,868.739 353.106,866.739 354.5,865C 352.988,862.347 352.655,859.681 353.5,857C 352.089,853.741 350.423,850.574 348.5,847.5C 350.167,845.333 351.833,843.167 353.5,841C 352.271,839.471 350.771,838.304 349,837.5C 348.207,833.577 348.374,829.744 349.5,826C 347.148,821.598 346.982,817.098 349,812.5C 349.75,811.874 350.584,811.374 351.5,811C 349.777,810.225 348.777,808.892 348.5,807C 349.238,802.786 349.571,798.619 349.5,794.5C 349.101,792.803 348.601,791.137 348,789.5C 347.907,781.457 347.74,773.457 347.5,765.5C 347.542,762.741 348.042,760.075 349,757.5C 349.75,756.874 350.584,756.374 351.5,756C 350.333,755.5 349.5,754.667 349,753.5C 348.333,750.167 348.333,746.833 349,743.5C 349.833,742 351,740.833 352.5,740C 351.833,738.667 350.833,737.667 349.5,737C 350.428,736.612 351.095,735.945 351.5,735C 349.722,733.001 348.722,730.667 348.5,728C 351.587,724.201 353.92,719.868 355.5,715C 352.894,711.15 352.894,707.316 355.5,703.5C 352.937,698.525 352.937,693.525 355.5,688.5C 355.103,687.014 354.77,685.514 354.5,684C 356.105,680.002 356.771,675.835 356.5,671.5C 357.5,671.5 358.5,671.5 359.5,671.5C 360.143,660.09 361.476,648.756 363.5,637.5C 364.5,637.5 365.5,637.5 366.5,637.5C 366.735,631.151 367.235,624.817 368,618.5C 371.79,613.568 374.624,608.068 376.5,602C 374.782,598.311 374.282,594.478 375,590.5C 376.561,586.377 378.395,582.377 380.5,578.5C 380.291,577.914 379.957,577.414 379.5,577C 381.774,574.656 382.941,571.822 383,568.5C 384.57,567.386 385.903,566.053 387,564.5C 388.085,559.563 388.752,554.563 389,549.5C 390.523,547.431 391.357,545.097 391.5,542.5C 394.044,542.896 396.211,542.229 398,540.5C 397.853,537.168 397.353,533.835 396.5,530.5C 396.558,527.441 397.891,525.108 400.5,523.5C 399.975,522.808 399.308,522.308 398.5,522C 400.118,519.379 402.118,517.046 404.5,515C 406.402,514.801 407.902,513.967 409,512.5C 409.499,509.482 409.332,506.482 408.5,503.5C 408.709,502.006 409.376,500.839 410.5,500C 410.141,494.893 411.974,490.393 416,486.5C 416.822,484.212 417.489,481.878 418,479.5C 419.333,478.833 420.667,478.167 422,477.5C 422.384,468.11 426.551,461.11 434.5,456.5C 435.454,451.992 436.454,447.492 437.5,443C 439.566,440.553 442.066,438.719 445,437.5C 445.409,431.424 447.576,426.09 451.5,421.5C 453.225,420.985 454.892,420.318 456.5,419.5C 457.961,414.904 460.294,410.904 463.5,407.5C 464.988,401.031 467.655,395.198 471.5,390C 472.448,389.517 473.448,389.351 474.5,389.5C 475.31,387.202 476.144,384.868 477,382.5C 478.356,381.62 479.856,381.286 481.5,381.5C 481.341,378.813 482.175,376.48 484,374.5C 485.11,372.963 486.61,372.297 488.5,372.5C 489.734,368.035 492.734,365.701 497.5,365.5C 497.547,362.072 498.713,359.072 501,356.5C 502.699,355.594 504.533,355.261 506.5,355.5C 505.993,348.172 508.493,342.172 514,337.5C 514.333,336.5 514.667,335.5 515,334.5C 517.57,333.991 519.903,332.991 522,331.5C 524.35,322.72 530.184,318.386 539.5,318.5C 539.262,312.002 541.762,307.002 547,303.5C 547.309,302.234 547.809,301.067 548.5,300C 553.146,299.674 557.479,298.34 561.5,296C 562.998,293.197 563.998,290.197 564.5,287C 566.839,283.995 569.173,280.995 571.5,278C 573,277.5 574.5,277 576,276.5C 577.567,277.856 579.4,278.523 581.5,278.5C 581.337,276.143 581.503,273.81 582,271.5C 583.559,269.783 584.392,267.783 584.5,265.5C 585.5,265.5 586.5,265.5 587.5,265.5C 587.5,264.5 587.5,263.5 587.5,262.5C 590.187,262.664 592.854,262.497 595.5,262C 600.156,259.5 604.823,257 609.5,254.5C 611.286,251.042 612.619,247.376 613.5,243.5C 618.66,239.093 624.66,236.593 631.5,236C 632.931,232.573 635.098,229.74 638,227.5C 638.333,226.167 638.667,224.833 639,223.5C 641.473,222.88 643.973,222.214 646.5,221.5C 647.246,220.264 647.579,218.93 647.5,217.5C 652.261,214.761 657.261,212.427 662.5,210.5C 664.41,209.452 666.244,209.452 668,210.5C 669.893,207.882 671.393,205.048 672.5,202C 682.229,200.583 689.895,195.916 695.5,188C 699.465,185.588 703.632,185.088 708,186.5C 710.795,185.815 713.628,185.315 716.5,185C 717.952,182.255 719.952,179.922 722.5,178C 728.09,178.481 732.423,176.481 735.5,172C 740.396,171.455 744.729,169.622 748.5,166.5C 752.784,163.151 756.451,159.151 759.5,154.5C 763.054,152.516 766.72,152.183 770.5,153.5C 774.547,152.335 778.214,150.502 781.5,148C 784.882,147.824 788.215,147.324 791.5,146.5C 794.931,144.069 798.598,142.069 802.5,140.5C 804.503,138.867 805.836,136.867 806.5,134.5C 809.572,134.187 812.405,134.854 815,136.5C 817.906,134.924 820.74,133.257 823.5,131.5C 826.32,130.306 829.153,130.306 832,131.5C 834.798,130.856 836.965,129.356 838.5,127C 841.002,125.568 843.502,125.402 846,126.5C 849.084,123.113 852.751,122.113 857,123.5C 858.28,123.387 859.113,122.72 859.5,121.5C 862,121.167 864.5,120.833 867,120.5C 870.035,120.609 872.869,121.276 875.5,122.5C 876.386,121.675 876.719,120.675 876.5,119.5C 884.241,117.944 892.075,116.611 900,115.5C 911.795,112.618 923.962,110.451 936.5,109C 941.209,105.92 946.042,105.753 951,108.5C 952.092,107.704 953.259,107.037 954.5,106.5C 960.869,111.065 966.536,110.398 971.5,104.5C 976.625,101.506 981.459,101.839 986,105.5C 991.88,104.788 997.38,103.788 1002.5,102.5C 1007.86,103.888 1013.19,104.888 1018.5,105.5C 1022.5,102.833 1026.5,102.833 1030.5,105.5C 1040.13,103.081 1049.63,103.414 1059,106.5C 1062.73,104.443 1066.57,102.776 1070.5,101.5 Z M 1075.5,180.5 C 1079.2,180.195 1081.53,181.862 1082.5,185.5C 1086.75,185.441 1089.08,187.441 1089.5,191.5C 1091.91,191.669 1094.08,191.003 1096,189.5C 1101.11,192.932 1106.11,192.932 1111,189.5C 1116.94,193.951 1123.28,194.618 1130,191.5C 1131.04,192.623 1131.71,193.956 1132,195.5C 1133.68,196.061 1135.01,197.061 1136,198.5C 1136.33,197.833 1136.67,197.167 1137,196.5C 1137.39,197.428 1138.05,198.095 1139,198.5C 1141.1,196.951 1143.43,195.951 1146,195.5C 1149.35,198.148 1153.19,199.982 1157.5,201C 1166.04,201.76 1174.71,202.26 1183.5,202.5C 1183.5,203.5 1183.5,204.5 1183.5,205.5C 1187.69,205.094 1191.02,206.594 1193.5,210C 1199.62,210.232 1205.62,211.066 1211.5,212.5C 1212.04,216.215 1214.21,218.548 1218,219.5C 1223.42,221.07 1228.92,222.403 1234.5,223.5C 1235.04,224.748 1235.71,225.915 1236.5,227C 1241.87,227.185 1247.2,228.018 1252.5,229.5C 1254.39,231.432 1256.39,233.265 1258.5,235C 1264.18,236.338 1269.84,237.505 1275.5,238.5C 1275.5,240.842 1276.34,242.842 1278,244.5C 1283.88,244.769 1289.54,244.769 1295,244.5C 1295.95,246.788 1297.11,248.955 1298.5,251C 1301.72,253.358 1305.39,254.858 1309.5,255.5C 1310.74,257.733 1312.08,259.899 1313.5,262C 1319.75,264.193 1326.08,266.193 1332.5,268C 1333.4,270.202 1334.4,272.368 1335.5,274.5C 1339.88,276.906 1344.22,279.406 1348.5,282C 1354.03,283.184 1359.37,284.017 1364.5,284.5C 1362.52,286.264 1362.19,288.264 1363.5,290.5C 1365.5,291.833 1367.17,293.5 1368.5,295.5C 1370.41,296.348 1372.41,296.682 1374.5,296.5C 1374.58,298.929 1375.58,300.929 1377.5,302.5C 1382.64,303.652 1387.14,305.985 1391,309.5C 1396.51,309.905 1401.67,311.238 1406.5,313.5C 1406.35,314.552 1406.52,315.552 1407,316.5C 1410.09,319.415 1412.59,322.749 1414.5,326.5C 1418.7,329.328 1423.36,330.995 1428.5,331.5C 1430.76,336.917 1432.76,342.417 1434.5,348C 1437.97,351.768 1442.3,353.268 1447.5,352.5C 1447.34,355.518 1447.5,358.518 1448,361.5C 1452.09,365.44 1456.93,367.773 1462.5,368.5C 1465.04,372.42 1466.04,376.753 1465.5,381.5C 1466.87,381.343 1468.21,381.51 1469.5,382C 1474.85,385.008 1479.85,388.508 1484.5,392.5C 1487.19,397.266 1489.35,402.266 1491,407.5C 1492.53,409.562 1494.53,410.896 1497,411.5C 1497.28,417.717 1500.28,422.051 1506,424.5C 1506.09,428.633 1507.92,431.633 1511.5,433.5C 1514.47,437.967 1517.63,442.301 1521,446.5C 1521.62,447.449 1521.45,448.282 1520.5,449C 1525.88,450.89 1528.88,454.723 1529.5,460.5C 1530.83,462.167 1532.17,463.833 1533.5,465.5C 1535.07,466.309 1536.74,466.643 1538.5,466.5C 1538.85,469.067 1539.52,471.567 1540.5,474C 1539.38,478.783 1541.04,482.283 1545.5,484.5C 1547.46,486.291 1548.79,488.457 1549.5,491C 1555.83,493.489 1557.99,497.989 1556,504.5C 1557.26,506.303 1558.93,507.636 1561,508.5C 1561.67,511.833 1562.33,515.167 1563,518.5C 1565.46,520.701 1567.3,523.367 1568.5,526.5C 1567.62,528.48 1567.78,530.48 1569,532.5C 1574.1,534.987 1577.6,538.987 1579.5,544.5C 1580.49,548.131 1581.32,551.798 1582,555.5C 1583.26,557.746 1585.09,559.079 1587.5,559.5C 1586.67,564.561 1588,568.895 1591.5,572.5C 1591.63,584.907 1595.3,596.073 1602.5,606C 1600.99,608.766 1601.32,611.266 1603.5,613.5C 1602.83,616.832 1602.83,619.999 1603.5,623C 1604.6,625.432 1606.1,627.598 1608,629.5C 1608.39,633.812 1609.05,638.145 1610,642.5C 1610.5,644.333 1611.67,645.5 1613.5,646C 1611.76,647.182 1610.76,648.849 1610.5,651C 1612.87,654.588 1614.87,658.421 1616.5,662.5C 1616.24,663.689 1615.91,664.856 1615.5,666C 1616.24,670.127 1616.74,674.294 1617,678.5C 1619.2,680.706 1621.04,683.206 1622.5,686C 1620.64,687.258 1619.31,688.925 1618.5,691C 1619.65,693.158 1620.82,695.325 1622,697.5C 1621.23,701.071 1622.07,704.404 1624.5,707.5C 1623.39,708.611 1622.72,709.945 1622.5,711.5C 1624.13,717.095 1625.46,722.761 1626.5,728.5C 1629.33,729.668 1630.67,731.835 1630.5,735C 1630.23,738.574 1629.57,742.074 1628.5,745.5C 1630.72,748.711 1630.72,752.045 1628.5,755.5C 1629.88,756.551 1630.88,757.884 1631.5,759.5C 1629.15,761.514 1627.15,763.847 1625.5,766.5C 1628.75,770.836 1630.75,775.67 1631.5,781C 1629.49,785.905 1628.15,791.072 1627.5,796.5C 1627.35,799.272 1628.02,801.772 1629.5,804C 1627.51,808.915 1627.18,813.915 1628.5,819C 1627.92,820.914 1626.92,822.581 1625.5,824C 1628.11,828.479 1629.45,833.145 1629.5,838C 1627.24,843.484 1625.57,849.151 1624.5,855C 1624.97,857.868 1625.97,860.534 1627.5,863C 1625.27,865.291 1623.27,867.791 1621.5,870.5C 1624.28,879.315 1622.95,887.481 1617.5,895C 1618.64,895.741 1618.64,896.575 1617.5,897.5C 1617.97,899.134 1618.97,900.3 1620.5,901C 1619.5,901.5 1618.5,902 1617.5,902.5C 1615.94,906.142 1615.61,909.809 1616.5,913.5C 1616.3,915.286 1615.47,916.619 1614,917.5C 1613.96,921.089 1613.13,924.422 1611.5,927.5C 1612.98,928.88 1613.98,930.547 1614.5,932.5C 1610.23,941.033 1606.9,949.867 1604.5,959C 1604.64,960.955 1605.47,962.455 1607,963.5C 1607.49,965.134 1607.66,966.801 1607.5,968.5C 1605.17,968.247 1603.17,968.914 1601.5,970.5C 1600.73,974.779 1600.23,979.113 1600,983.5C 1598.25,984.67 1597.25,986.337 1597,988.5C 1595.67,989.167 1594.33,989.833 1593,990.5C 1592.5,995.155 1592.33,999.821 1592.5,1004.5C 1587.63,1005.18 1584.46,1007.85 1583,1012.5C 1582.08,1021.5 1579.92,1030.16 1576.5,1038.5C 1574.83,1039.83 1573.17,1041.17 1571.5,1042.5C 1569.07,1050.03 1567.24,1057.69 1566,1065.5C 1564.67,1066.17 1563.33,1066.83 1562,1067.5C 1560.22,1071.77 1558.05,1075.77 1555.5,1079.5C 1553.67,1080.25 1552,1081.25 1550.5,1082.5C 1549.89,1087.73 1548.56,1092.73 1546.5,1097.5C 1544.71,1097.21 1543.05,1097.55 1541.5,1098.5C 1539.63,1101.94 1538.46,1105.61 1538,1109.5C 1536.33,1110.17 1534.67,1110.83 1533,1111.5C 1532.5,1113.81 1532.34,1116.14 1532.5,1118.5C 1530.71,1118.21 1529.05,1118.55 1527.5,1119.5C 1524.94,1122.39 1523.28,1125.72 1522.5,1129.5C 1519.82,1131.85 1517.49,1134.51 1515.5,1137.5C 1514.42,1141.9 1512.75,1145.9 1510.5,1149.5C 1507.19,1148.97 1505.03,1150.31 1504,1153.5C 1500.28,1159.01 1497.94,1165.01 1497,1171.5C 1493.67,1173.25 1490.17,1174.58 1486.5,1175.5C 1484.81,1178.02 1482.64,1180.02 1480,1181.5C 1478.06,1184.93 1476.89,1188.59 1476.5,1192.5C 1472.17,1192.17 1470.17,1194.17 1470.5,1198.5C 1469.13,1198.34 1467.79,1198.51 1466.5,1199C 1466.12,1204.71 1463.12,1207.71 1457.5,1208C 1456.54,1211.44 1454.38,1213.61 1451,1214.5C 1450.21,1218.16 1449.04,1221.66 1447.5,1225C 1443.76,1225.82 1440.09,1226.48 1436.5,1227C 1435.13,1230.24 1433.13,1233.07 1430.5,1235.5C 1424.25,1235.99 1420.59,1239.33 1419.5,1245.5C 1417.8,1245.34 1416.13,1245.51 1414.5,1246C 1413.6,1248.2 1412.6,1250.37 1411.5,1252.5C 1407.96,1253.76 1404.96,1255.76 1402.5,1258.5C 1401.05,1259.85 1400.38,1261.52 1400.5,1263.5C 1397.81,1263.34 1395.15,1263.5 1392.5,1264C 1391.66,1265.01 1391.33,1266.18 1391.5,1267.5C 1389.8,1267.34 1388.13,1267.51 1386.5,1268C 1381.29,1271.22 1377.45,1275.72 1375,1281.5C 1372.48,1282.21 1369.98,1283.04 1367.5,1284C 1366.58,1286.97 1364.58,1288.8 1361.5,1289.5C 1359.57,1288.48 1357.57,1288.31 1355.5,1289C 1353.03,1293.47 1350.03,1297.47 1346.5,1301C 1341.95,1302.43 1337.28,1303.43 1332.5,1304C 1331.13,1305.24 1330.13,1306.74 1329.5,1308.5C 1326.57,1309.82 1323.57,1310.98 1320.5,1312C 1319.31,1313.91 1318.31,1315.91 1317.5,1318C 1314.83,1318.33 1312.17,1318.67 1309.5,1319C 1306.88,1321.07 1304.55,1323.41 1302.5,1326C 1297.46,1325.69 1292.46,1325.85 1287.5,1326.5C 1285.59,1330.25 1282.76,1333.25 1279,1335.5C 1274.25,1335.11 1269.42,1335.61 1264.5,1337C 1261.82,1340.68 1258.48,1343.68 1254.5,1346C 1250.11,1346.72 1246.11,1348.39 1242.5,1351C 1239.77,1351.18 1237.11,1351.68 1234.5,1352.5C 1233.63,1354.58 1232.13,1355.92 1230,1356.5C 1228.02,1356.74 1226.18,1357.41 1224.5,1358.5C 1222.35,1357.24 1220.18,1357.24 1218,1358.5C 1216.53,1358.1 1215.19,1357.43 1214,1356.5C 1210.56,1358.96 1206.72,1360.46 1202.5,1361C 1201.95,1361.92 1201.29,1362.76 1200.5,1363.5C 1198.74,1361.52 1196.74,1361.19 1194.5,1362.5C 1192.73,1363.99 1191.4,1365.82 1190.5,1368C 1188.23,1368.47 1186.23,1369.47 1184.5,1371C 1177.9,1369.68 1171.57,1370.51 1165.5,1373.5C 1160.83,1371.42 1157.83,1372.75 1156.5,1377.5C 1148.99,1377.54 1141.32,1377.71 1133.5,1378C 1132.17,1378.67 1131.17,1379.67 1130.5,1381C 1122.86,1380.82 1115.52,1382.15 1108.5,1385C 1100.04,1386.17 1091.7,1386.84 1083.5,1387C 1082.69,1388.31 1081.69,1389.48 1080.5,1390.5C 1077.23,1391.49 1073.9,1391.82 1070.5,1391.5C 1070.28,1387.45 1068.11,1385.79 1064,1386.5C 1061.41,1386.57 1058.91,1387.07 1056.5,1388C 1053.73,1393.64 1050.39,1393.97 1046.5,1389C 1041.32,1388.44 1036.15,1388.61 1031,1389.5C 1025.21,1392.28 1019.21,1393.95 1013,1394.5C 1008.7,1393.65 1004.87,1391.98 1001.5,1389.5C 995.624,1393.7 990.291,1393.04 985.5,1387.5C 978.555,1386.22 971.555,1386.22 964.5,1387.5C 957.337,1386.1 950.17,1385.77 943,1386.5C 941.333,1385.83 939.667,1385.17 938,1384.5C 936.234,1385.23 934.401,1385.57 932.5,1385.5C 932.714,1383.86 932.38,1382.36 931.5,1381C 927.046,1378 922.546,1377.83 918,1380.5C 915.891,1378.38 913.225,1377.38 910,1377.5C 905.344,1377.25 901.01,1378.25 897,1380.5C 895.142,1378.26 892.976,1376.43 890.5,1375C 883.58,1372.88 876.58,1372.21 869.5,1373C 867.893,1371.95 867.227,1370.45 867.5,1368.5C 862.56,1366.52 857.56,1364.52 852.5,1362.5C 847.507,1361.73 842.507,1361.07 837.5,1360.5C 832.52,1355.96 827.02,1355.29 821,1358.5C 816.544,1357.36 812.71,1355.19 809.5,1352C 806.167,1351.67 802.833,1351.33 799.5,1351C 797.833,1350 796.5,1348.67 795.5,1347C 793.833,1346.67 792.167,1346.33 790.5,1346C 788.031,1344.17 785.698,1342.17 783.5,1340C 781.655,1338.87 779.655,1338.37 777.5,1338.5C 775.619,1333.2 771.952,1331.53 766.5,1333.5C 765.315,1332.15 763.981,1330.98 762.5,1330C 759.151,1328.04 755.485,1326.54 751.5,1325.5C 749.806,1323.14 747.806,1321.14 745.5,1319.5C 741.075,1320.15 736.741,1319.48 732.5,1317.5C 731.559,1309.68 727.393,1307.35 720,1310.5C 717.377,1308.84 715.544,1306.51 714.5,1303.5C 710.261,1302.78 706.094,1301.78 702,1300.5C 699.746,1297.91 697.579,1295.24 695.5,1292.5C 693.5,1291.83 691.5,1291.17 689.5,1290.5C 689.054,1287.72 688.054,1285.22 686.5,1283C 678.936,1281.14 671.936,1278.31 665.5,1274.5C 665.67,1273.18 665.337,1272.01 664.5,1271C 661.179,1269.09 657.679,1267.59 654,1266.5C 653,1263.17 652,1259.83 651,1256.5C 648.635,1255.71 646.468,1254.54 644.5,1253C 643.663,1251.99 643.33,1250.82 643.5,1249.5C 640.482,1249.3 637.482,1248.96 634.5,1248.5C 634.509,1246.69 634.009,1245.02 633,1243.5C 630.798,1242.6 628.632,1241.6 626.5,1240.5C 624.756,1235.08 621.09,1232.41 615.5,1232.5C 612.807,1228.92 610.64,1224.92 609,1220.5C 607.184,1219.67 605.351,1218.84 603.5,1218C 602.237,1215.61 600.403,1213.78 598,1212.5C 596.991,1210.98 596.491,1209.31 596.5,1207.5C 592.856,1207.29 590.689,1205.29 590,1201.5C 586.167,1199 583,1195.83 580.5,1192C 578.649,1191.16 576.816,1190.33 575,1189.5C 571.299,1180.47 564.966,1174.13 556,1170.5C 555.258,1167.34 553.758,1164.68 551.5,1162.5C 552.037,1161.26 552.704,1160.09 553.5,1159C 550.684,1157.02 548.017,1154.85 545.5,1152.5C 544.649,1147.05 541.649,1143.39 536.5,1141.5C 533.695,1137.86 530.695,1134.36 527.5,1131C 525.833,1130.67 524.167,1130.33 522.5,1130C 524.303,1128.13 525.636,1125.96 526.5,1123.5C 523.743,1118.77 519.743,1115.44 514.5,1113.5C 513.194,1112.09 512.36,1110.42 512,1108.5C 511,1107.83 510,1107.17 509,1106.5C 507.722,1103.28 506.889,1099.95 506.5,1096.5C 504.856,1096.71 503.356,1096.38 502,1095.5C 501.503,1093.19 501.337,1090.86 501.5,1088.5C 498.06,1088.11 495.727,1086.28 494.5,1083C 494.833,1082.67 495.167,1082.33 495.5,1082C 493.951,1077 493.118,1071.83 493,1066.5C 492.085,1065.67 491.419,1064.67 491,1063.5C 487.603,1061.71 484.103,1060.38 480.5,1059.5C 482.31,1052.96 481.81,1046.63 479,1040.5C 477.022,1038.26 474.522,1036.93 471.5,1036.5C 470.511,1035.53 469.844,1034.37 469.5,1033C 471.038,1029.28 471.538,1025.45 471,1021.5C 468.92,1019.88 466.754,1018.38 464.5,1017C 466.037,1014.69 466.537,1012.19 466,1009.5C 464.396,1005.33 462.063,1001.66 459,998.5C 457.894,994.196 456.894,989.863 456,985.5C 453.021,984.251 452.854,982.584 455.5,980.5C 453.733,977.963 452.233,975.297 451,972.5C 446.419,958.288 442.586,943.788 439.5,929C 438.305,924.582 436.305,920.749 433.5,917.5C 430.043,917.333 429.71,916.333 432.5,914.5C 434.055,907.328 433.555,900.328 431,893.5C 424.57,886.577 422.736,878.41 425.5,869C 423.07,864.215 421.07,859.215 419.5,854C 421.795,850.251 423.795,846.417 425.5,842.5C 424.985,839.137 423.652,836.137 421.5,833.5C 422.687,832.481 423.687,831.314 424.5,830C 424.232,825.552 422.566,821.718 419.5,818.5C 423.252,816.171 424.418,812.837 423,808.5C 422.226,806.061 420.726,804.227 418.5,803C 418.963,800.415 420.13,798.248 422,796.5C 423.078,790.323 422.245,784.49 419.5,779C 419.821,776.719 420.488,774.552 421.5,772.5C 420.72,771.051 420.054,769.551 419.5,768C 422.565,762.293 423.231,756.293 421.5,750C 424.855,745.721 424.855,741.221 421.5,736.5C 423.919,734.414 424.919,731.747 424.5,728.5C 424.494,724.672 423.494,721.172 421.5,718C 421.615,716.105 422.282,714.438 423.5,713C 422.424,711.274 422.257,709.441 423,707.5C 424.715,703.663 426.548,699.996 428.5,696.5C 426.999,693.327 425.999,689.993 425.5,686.5C 427.903,686.607 429.736,685.607 431,683.5C 431.407,680.318 431.907,677.151 432.5,674C 430.244,670.218 430.41,666.718 433,663.5C 433.33,657.479 433.33,651.479 433,645.5C 436.443,639.613 439.609,633.613 442.5,627.5C 443.726,622.983 443.726,618.483 442.5,614C 444.736,610.873 446.236,607.373 447,603.5C 448,602.833 449,602.167 450,601.5C 451.467,596.164 451.633,590.831 450.5,585.5C 455.673,579.316 459.673,572.483 462.5,565C 462.371,563.019 461.704,561.353 460.5,560C 465.207,558.94 468.207,556.107 469.5,551.5C 472.037,544.954 473.037,538.287 472.5,531.5C 474.288,531.785 475.955,531.452 477.5,530.5C 479.189,527.109 481.356,524.109 484,521.5C 487.158,514.857 488.991,507.857 489.5,500.5C 490.167,499.5 490.833,498.5 491.5,497.5C 498.254,495.339 501.587,490.673 501.5,483.5C 502.833,483.5 504.167,483.5 505.5,483.5C 505.731,477.518 507.064,471.851 509.5,466.5C 512.403,464.512 515.07,462.179 517.5,459.5C 517.833,458 518.167,456.5 518.5,455C 518.371,453.019 517.704,451.353 516.5,450C 518.218,449.654 519.885,449.154 521.5,448.5C 524.869,444.801 528.202,441.134 531.5,437.5C 532.549,434.92 533.216,432.254 533.5,429.5C 535.936,429.683 538.103,429.016 540,427.5C 542.748,421.25 545.081,414.916 547,408.5C 549.405,407.726 551.905,407.226 554.5,407C 556.348,404.821 558.515,402.987 561,401.5C 561.495,399.527 561.662,397.527 561.5,395.5C 565.806,395.697 567.806,393.697 567.5,389.5C 572.233,389.457 575.066,387.123 576,382.5C 579.725,379.362 583.225,376.029 586.5,372.5C 587.795,369.988 588.461,367.321 588.5,364.5C 590.638,364.297 592.305,363.297 593.5,361.5C 594.406,359.614 595.406,357.78 596.5,356C 600.573,355.641 602.907,353.474 603.5,349.5C 606.167,348.833 608.833,348.167 611.5,347.5C 612.292,345.535 612.959,343.535 613.5,341.5C 615.583,340.041 617.75,338.708 620,337.5C 622.813,334.042 624.98,330.209 626.5,326C 628.326,325.708 630.159,325.875 632,326.5C 638.497,323.666 643.997,319.499 648.5,314C 652.995,312.189 656.995,309.522 660.5,306C 661.793,305.51 663.127,305.343 664.5,305.5C 664.472,303.418 665.139,301.584 666.5,300C 671.966,298.15 676.633,295.15 680.5,291C 682.78,290.767 684.78,289.934 686.5,288.5C 688.168,285.823 689.834,283.156 691.5,280.5C 693.736,279.188 695.736,279.521 697.5,281.5C 699.713,279.226 702.379,277.726 705.5,277C 707.714,273.785 710.548,271.285 714,269.5C 714.111,265.025 716.111,263.359 720,264.5C 722.782,263.528 725.615,262.695 728.5,262C 729.743,260.846 730.743,259.512 731.5,258C 733.112,257.28 734.612,257.446 736,258.5C 742.694,254.762 749.527,251.262 756.5,248C 760.694,243.903 765.694,241.403 771.5,240.5C 773.321,238.757 775.321,237.257 777.5,236C 781.987,234.377 786.653,233.544 791.5,233.5C 791.5,232.5 791.5,231.5 791.5,230.5C 796.36,231.035 801.194,230.368 806,228.5C 808.396,227.104 810.063,225.104 811,222.5C 811.414,222.957 811.914,223.291 812.5,223.5C 817.181,220.744 822.181,218.578 827.5,217C 833.128,215.336 838.795,215.002 844.5,216C 846.48,213.497 848.813,211.664 851.5,210.5C 851.281,209.325 851.614,208.325 852.5,207.5C 854.976,208.229 857.476,208.896 860,209.5C 862.151,209.235 863.818,208.235 865,206.5C 869.966,209.601 873.799,208.434 876.5,203C 881.86,203.905 887.193,203.572 892.5,202C 894.102,200.065 895.269,197.899 896,195.5C 900.198,194.443 904.365,194.776 908.5,196.5C 914.722,194.982 921.055,194.148 927.5,194C 929.788,193.178 932.122,192.511 934.5,192C 935.667,191.5 936.5,190.667 937,189.5C 938.312,192.581 940.645,194.248 944,194.5C 948.187,192.979 951.854,190.646 955,187.5C 957.648,187.699 960.482,188.365 963.5,189.5C 965.11,188.448 966.777,188.448 968.5,189.5C 971.558,186.853 974.558,186.853 977.5,189.5C 981.676,188.984 985.676,187.984 989.5,186.5C 993.913,188.666 998.413,188.666 1003,186.5C 1008.04,186.818 1013.04,187.152 1018,187.5C 1022.42,185.339 1026.92,184.506 1031.5,185C 1034.56,182.627 1037.56,183.294 1040.5,187C 1045.74,187.652 1050.74,186.818 1055.5,184.5C 1060.7,188.842 1066.36,189.175 1072.5,185.5C 1073.26,183.64 1074.26,181.973 1075.5,180.5 Z M 1167.5,1444.5 C 1168.68,1444.28 1169.68,1444.61 1170.5,1445.5C 1168.95,1446.8 1167.95,1446.46 1167.5,1444.5 Z M 1041.5,1483.5 C 1047.52,1485.53 1053.52,1487.53 1059.5,1489.5C 1072.59,1490.6 1085.59,1490.6 1098.5,1489.5C 1101.4,1490.53 1104.07,1492.03 1106.5,1494C 1114.86,1493.87 1122.86,1495.37 1130.5,1498.5C 1131.61,1497.98 1132.77,1497.64 1134,1497.5C 1136.54,1498.68 1139.21,1499.68 1142,1500.5C 1147.04,1500.18 1152.04,1499.85 1157,1499.5C 1159.57,1501.31 1162.41,1502.64 1165.5,1503.5C 1166.52,1506.24 1168.19,1506.91 1170.5,1505.5C 1172.56,1506.73 1174.73,1507.73 1177,1508.5C 1183.36,1507.77 1189.53,1508.77 1195.5,1511.5C 1196.04,1512.75 1196.71,1513.91 1197.5,1515C 1201.72,1516.45 1206.06,1517.28 1210.5,1517.5C 1210.22,1520.39 1211.55,1521.89 1214.5,1522C 1218.83,1522.33 1223.17,1522.67 1227.5,1523C 1231.08,1530.11 1236.58,1531.94 1244,1528.5C 1245.31,1530.98 1247.14,1532.98 1249.5,1534.5C 1252.67,1535.23 1255.67,1536.4 1258.5,1538C 1260.32,1542.44 1263.65,1544.77 1268.5,1545C 1271.3,1546.57 1273.97,1548.41 1276.5,1550.5C 1281.68,1551.01 1286.68,1552.18 1291.5,1554C 1292.17,1556 1292.83,1558 1293.5,1560C 1296.85,1561.93 1300.35,1563.43 1304,1564.5C 1304.33,1564.17 1304.67,1563.83 1305,1563.5C 1305.63,1568.13 1308.3,1570.8 1313,1571.5C 1315.33,1570.83 1317.67,1570.17 1320,1569.5C 1321.83,1572.31 1323.66,1575.15 1325.5,1578C 1327.71,1579.04 1330.05,1579.71 1332.5,1580C 1333.65,1580.64 1334.65,1581.48 1335.5,1582.5C 1336.17,1585.99 1337.51,1589.15 1339.5,1592C 1343.61,1593.89 1347.94,1594.89 1352.5,1595C 1354.52,1599.54 1357.19,1603.71 1360.5,1607.5C 1363.7,1608.87 1367.03,1609.87 1370.5,1610.5C 1370.9,1612.43 1371.9,1613.93 1373.5,1615C 1371.5,1616.15 1371.17,1617.65 1372.5,1619.5C 1374.16,1621.33 1376.16,1622.66 1378.5,1623.5C 1379.43,1624.69 1379.76,1626.02 1379.5,1627.5C 1382.43,1629.4 1385.43,1631.4 1388.5,1633.5C 1389.24,1634.99 1389.91,1636.49 1390.5,1638C 1393.05,1639.44 1395.72,1640.61 1398.5,1641.5C 1399.5,1647.65 1402.83,1651.82 1408.5,1654C 1408.04,1654.41 1407.71,1654.91 1407.5,1655.5C 1408.5,1657.5 1409.5,1659.5 1410.5,1661.5C 1415.63,1662.96 1418.63,1666.3 1419.5,1671.5C 1421.61,1673.53 1423.61,1675.7 1425.5,1678C 1427.78,1678.47 1429.78,1679.47 1431.5,1681C 1430.2,1683.54 1430.37,1686.04 1432,1688.5C 1433.98,1692.15 1436.65,1695.15 1440,1697.5C 1441.55,1702.93 1444.38,1707.59 1448.5,1711.5C 1449.31,1713.77 1449.81,1716.1 1450,1718.5C 1454.51,1721.19 1456.68,1725.19 1456.5,1730.5C 1457.5,1730.5 1458.5,1730.5 1459.5,1730.5C 1459.47,1737.29 1462.81,1741.12 1469.5,1742C 1468.92,1742.89 1468.59,1743.89 1468.5,1745C 1469.71,1747.32 1470.54,1749.82 1471,1752.5C 1472,1754.83 1473.67,1756.5 1476,1757.5C 1476.78,1758.73 1477.28,1760.06 1477.5,1761.5C 1476.95,1764.95 1476.78,1768.61 1477,1772.5C 1479.42,1774.58 1481.59,1776.92 1483.5,1779.5C 1482.97,1780.19 1482.31,1780.69 1481.5,1781C 1483.26,1784.96 1484.76,1789.13 1486,1793.5C 1488.32,1795.67 1490.16,1798.17 1491.5,1801C 1490.83,1801.33 1490.17,1801.67 1489.5,1802C 1492.59,1804.19 1493.26,1807.02 1491.5,1810.5C 1494.85,1817.54 1496.51,1825.04 1496.5,1833C 1499.32,1839.04 1501.32,1845.38 1502.5,1852C 1501.63,1853.69 1501.3,1855.19 1501.5,1856.5C 1498.11,1855.43 1494.44,1855.43 1490.5,1856.5C 1489.24,1854.62 1487.57,1853.29 1485.5,1852.5C 1482.41,1853.21 1479.41,1854.21 1476.5,1855.5C 1474.87,1855.12 1473.37,1854.46 1472,1853.5C 1469.33,1856.17 1466.67,1856.17 1464,1853.5C 1463.05,1853.91 1462.39,1854.57 1462,1855.5C 1458.81,1851.61 1455.47,1851.61 1452,1855.5C 1445.56,1850.04 1438.72,1849.37 1431.5,1853.5C 1429.23,1852.46 1426.9,1852.29 1424.5,1853C 1423.29,1854.57 1421.62,1855.4 1419.5,1855.5C 1415.18,1854.45 1411.01,1853.11 1407,1851.5C 1405.13,1852.07 1403.3,1852.73 1401.5,1853.5C 1397.94,1851.71 1394.11,1850.71 1390,1850.5C 1381.33,1850.35 1372.49,1850.51 1363.5,1851C 1360.28,1853.48 1356.61,1854.14 1352.5,1853C 1350.75,1851.13 1348.58,1849.96 1346,1849.5C 1343,1850.83 1340,1850.83 1337,1849.5C 1335,1850.17 1333,1850.83 1331,1851.5C 1310.71,1850.92 1290.21,1850.59 1269.5,1850.5C 1266.09,1850.3 1262.93,1850.96 1260,1852.5C 1258.26,1851.11 1256.26,1850.44 1254,1850.5C 1249.85,1851.59 1245.69,1851.59 1241.5,1850.5C 1235.86,1850.8 1230.36,1851.8 1225,1853.5C 1221.88,1852.18 1218.72,1851.18 1215.5,1850.5C 1204.03,1851.69 1192.53,1851.69 1181,1850.5C 1173.73,1852.67 1166.4,1853.01 1159,1851.5C 1158,1852.17 1157,1852.83 1156,1853.5C 1152.8,1852.69 1149.63,1851.69 1146.5,1850.5C 1142.25,1851.75 1137.91,1852.58 1133.5,1853C 1131.97,1854.36 1130.3,1855.53 1128.5,1856.5C 1127.28,1855.23 1125.94,1854.07 1124.5,1853C 1118.06,1851 1111.73,1851.17 1105.5,1853.5C 1101.79,1853.03 1098.29,1852.03 1095,1850.5C 1091.38,1851.14 1088.38,1852.81 1086,1855.5C 1083.78,1853.29 1081.12,1851.95 1078,1851.5C 1073.24,1852.75 1068.41,1853.75 1063.5,1854.5C 1061.67,1856.05 1059.5,1857.05 1057,1857.5C 1053.02,1853.75 1048.68,1853.08 1044,1855.5C 1039.08,1852.99 1034.25,1852.99 1029.5,1855.5C 1027.06,1852.93 1024.56,1852.93 1022,1855.5C 1016.35,1851.78 1010.52,1851.11 1004.5,1853.5C 1004.69,1855.1 1004.19,1856.44 1003,1857.5C 1000.51,1855.92 997.844,1854.59 995,1853.5C 992.217,1854.93 989.384,1856.26 986.5,1857.5C 984.193,1856.17 981.859,1854.84 979.5,1853.5C 975.663,1856.97 971.663,1856.97 967.5,1853.5C 966.353,1853.82 965.519,1854.48 965,1855.5C 964.242,1853.09 962.575,1852.09 960,1852.5C 956.434,1853.54 952.934,1854.87 949.5,1856.5C 948.155,1855.65 947.155,1854.49 946.5,1853C 945.5,1852.83 944.5,1852.67 943.5,1852.5C 938.723,1854.34 933.89,1856.01 929,1857.5C 926.463,1856.9 924.463,1855.57 923,1853.5C 919.956,1856.9 917.789,1856.73 916.5,1853C 911.915,1851.48 908.415,1852.65 906,1856.5C 903.794,1855.65 901.627,1854.65 899.5,1853.5C 898.328,1853.92 897.328,1854.59 896.5,1855.5C 895.808,1854.97 895.308,1854.31 895,1853.5C 893.934,1855.1 892.434,1856.1 890.5,1856.5C 888.958,1855.25 887.458,1855.25 886,1856.5C 884.586,1854.5 882.586,1853.5 880,1853.5C 875.919,1854.27 872.086,1855.6 868.5,1857.5C 862.47,1856.31 856.637,1854.64 851,1852.5C 848.667,1852.58 846.834,1853.58 845.5,1855.5C 840.233,1852.92 834.899,1852.92 829.5,1855.5C 827.913,1854.64 826.246,1853.97 824.5,1853.5C 822.147,1855 819.647,1856.33 817,1857.5C 815.028,1855.56 812.861,1855.22 810.5,1856.5C 809.176,1854.68 807.343,1853.68 805,1853.5C 801.151,1855.23 797.151,1856.56 793,1857.5C 791.304,1854.73 788.804,1853.06 785.5,1852.5C 783.866,1852.97 782.7,1853.97 782,1855.5C 781.326,1854.42 780.326,1853.75 779,1853.5C 775.974,1854.84 772.974,1856.17 770,1857.5C 766.685,1854.84 763.352,1854.84 760,1857.5C 757.864,1856.73 755.697,1856.07 753.5,1855.5C 749.606,1856.81 745.606,1857.47 741.5,1857.5C 731.34,1857.31 721.173,1856.64 711,1855.5C 708.41,1856.46 705.743,1857.13 703,1857.5C 699.796,1856.73 696.796,1855.4 694,1853.5C 688.764,1856.86 683.264,1858.02 677.5,1857C 673.122,1852.35 668.788,1852.35 664.5,1857C 660.004,1857.85 655.67,1857.35 651.5,1855.5C 650.252,1856.04 649.085,1856.71 648,1857.5C 646.014,1855.67 643.681,1854.34 641,1853.5C 639.166,1854.84 637.166,1855.84 635,1856.5C 631.104,1855.74 627.271,1854.74 623.5,1853.5C 618.937,1854.74 614.437,1856.08 610,1857.5C 607.323,1856.29 604.49,1855.62 601.5,1855.5C 596.413,1854.85 591.413,1855.51 586.5,1857.5C 584.156,1856.66 582.156,1855.33 580.5,1853.5C 577.07,1856.93 573.903,1856.93 571,1853.5C 567.648,1857.17 563.648,1858.17 559,1856.5C 557.667,1857.17 556.333,1857.83 555,1858.5C 550.304,1855.91 545.638,1855.91 541,1858.5C 538.619,1857.56 536.119,1857.23 533.5,1857.5C 533.295,1853.24 535.128,1850.24 539,1848.5C 539.879,1845.3 541.545,1842.63 544,1840.5C 544.804,1836.8 544.304,1833.3 542.5,1830C 550.22,1829.43 553.22,1825.26 551.5,1817.5C 552.822,1817.67 553.989,1817.34 555,1816.5C 556.679,1812.12 558.346,1807.79 560,1803.5C 560.784,1800.24 560.617,1797.07 559.5,1794C 561.431,1791.7 563.764,1789.86 566.5,1788.5C 567.48,1785.91 567.813,1783.25 567.5,1780.5C 569.144,1780.71 570.644,1780.38 572,1779.5C 575.672,1771.81 579.338,1764.14 583,1756.5C 585.95,1753.88 587.116,1750.55 586.5,1746.5C 587.833,1746.5 589.167,1746.5 590.5,1746.5C 590.178,1742.81 591.678,1740.14 595,1738.5C 596.07,1735.12 597.236,1731.79 598.5,1728.5C 600.868,1727.63 602.368,1725.96 603,1723.5C 604.989,1719.75 605.822,1715.75 605.5,1711.5C 610.739,1711.3 614.573,1708.97 617,1704.5C 617.182,1701.77 617.682,1699.11 618.5,1696.5C 624.165,1694.51 626.831,1690.51 626.5,1684.5C 629.059,1684.61 631.392,1683.94 633.5,1682.5C 635.23,1678.59 637.23,1674.92 639.5,1671.5C 641.13,1670.1 642.964,1669.1 645,1668.5C 646.535,1662.07 650.368,1657.74 656.5,1655.5C 657.072,1653.08 658.072,1650.92 659.5,1649C 662.364,1647.59 665.03,1646.09 667.5,1644.5C 669.739,1641.57 671.072,1638.24 671.5,1634.5C 676.602,1633.43 680.602,1630.6 683.5,1626C 689.089,1623.9 692.755,1620.07 694.5,1614.5C 696.262,1614.64 697.929,1614.31 699.5,1613.5C 705.51,1608.46 710.843,1602.79 715.5,1596.5C 718.879,1594.14 722.546,1592.31 726.5,1591C 728.847,1587.53 732.181,1585.53 736.5,1585C 739.555,1580.77 743.555,1577.94 748.5,1576.5C 749.95,1575.15 750.617,1573.48 750.5,1571.5C 753.595,1570.12 756.595,1568.45 759.5,1566.5C 763.82,1567.25 767.153,1565.59 769.5,1561.5C 775.532,1560.28 780.366,1557.28 784,1552.5C 786.985,1553.96 789.485,1553.29 791.5,1550.5C 792.246,1549.26 792.579,1547.93 792.5,1546.5C 796.933,1546.08 800.766,1544.42 804,1541.5C 809.301,1540.57 814.134,1538.57 818.5,1535.5C 820.155,1536.23 821.821,1536.39 823.5,1536C 828.98,1532.36 833.98,1528.03 838.5,1523C 844.167,1522.67 849.833,1522.33 855.5,1522C 858.051,1520.2 860.385,1518.2 862.5,1516C 866.833,1515.67 871.167,1515.33 875.5,1515C 877.708,1514.06 879.042,1512.4 879.5,1510C 883.664,1510.26 886.997,1508.76 889.5,1505.5C 892.986,1504.04 896.486,1502.71 900,1501.5C 900.865,1504.2 902.699,1505.54 905.5,1505.5C 908.818,1502.93 912.651,1501.26 917,1500.5C 923.333,1501.7 929.333,1500.7 935,1497.5C 936.226,1497.64 937.393,1497.98 938.5,1498.5C 943.402,1496.72 947.902,1494.39 952,1491.5C 955.541,1493.06 959.041,1494.06 962.5,1494.5C 966.632,1493.52 970.298,1491.68 973.5,1489C 976.763,1488.94 979.763,1488.1 982.5,1486.5C 986.416,1488 990.416,1489.33 994.5,1490.5C 996.94,1488.08 999.274,1488.08 1001.5,1490.5C 1004.4,1488.68 1007.4,1488.35 1010.5,1489.5C 1014.05,1488.62 1017.38,1487.28 1020.5,1485.5C 1027.84,1489.44 1034.84,1488.77 1041.5,1483.5 Z"/></g>
<g><path style="opacity:0.997" fill="#000000" d="M 796.5,653.5 C 798.138,654.159 799.805,654.826 801.5,655.5C 804.344,653.897 807.344,653.397 810.5,654C 815.638,656.571 820.972,658.571 826.5,660C 829.733,663.44 833.4,665.44 837.5,666C 838.5,667 839.5,668 840.5,669C 839.359,669.741 839.359,670.575 840.5,671.5C 842.328,672.795 844.328,673.795 846.5,674.5C 848.736,678.081 851.236,681.414 854,684.5C 854.977,686.74 855.477,689.073 855.5,691.5C 859.354,691.883 860.687,693.883 859.5,697.5C 861.049,700.245 862.882,702.579 865,704.5C 865.72,706.112 865.554,707.612 864.5,709C 865.333,710.5 866.5,711.667 868,712.5C 868.417,715.422 869.417,718.089 871,720.5C 871.66,723.047 871.493,725.547 870.5,728C 874.108,734.487 876.275,741.32 877,748.5C 875,749.5 875,750.5 877,751.5C 877.723,757.173 878.89,762.673 880.5,768C 880.055,769.447 879.388,770.78 878.5,772C 880.134,775.431 881.134,779.098 881.5,783C 882.127,788.006 881.46,793.006 879.5,798C 879.482,800.379 880.149,802.546 881.5,804.5C 879.006,809.292 878.339,814.292 879.5,819.5C 877.922,824.291 877.089,829.291 877,834.5C 876.085,835.328 875.419,836.328 875,837.5C 873.327,860.57 865.661,881.57 852,900.5C 850.333,901.833 848.667,903.167 847,904.5C 846.791,910.043 843.957,912.876 838.5,913C 836.629,915.37 834.962,917.87 833.5,920.5C 828.38,922.103 823.713,924.436 819.5,927.5C 816.227,926.415 812.894,926.248 809.5,927C 808.107,928.363 806.441,929.196 804.5,929.5C 799.162,929.697 794.829,927.864 791.5,924C 787.535,922.874 783.535,921.874 779.5,921C 777.269,918.614 774.603,916.781 771.5,915.5C 769.873,912.043 768.04,908.71 766,905.5C 760.047,902.209 756.381,897.209 755,890.5C 752.771,886.706 750.271,883.039 747.5,879.5C 748.002,878.284 748.335,877.117 748.5,876C 746.91,874.954 745.41,873.787 744,872.5C 743.316,871.216 743.483,870.049 744.5,869C 741.868,864.371 739.702,859.537 738,854.5C 737.502,852.473 737.669,850.473 738.5,848.5C 737.03,842.757 735.363,837.091 733.5,831.5C 732.614,827.404 732.614,823.07 733.5,818.5C 732.598,815.96 731.598,813.46 730.5,811C 731.167,808.333 731.833,805.667 732.5,803C 731.526,800.579 730.86,798.079 730.5,795.5C 731.705,792.153 731.705,788.82 730.5,785.5C 731.065,783.595 732.065,781.929 733.5,780.5C 732.212,777.966 732.212,775.466 733.5,773C 732.833,771 732.167,769 731.5,767C 732.167,766.333 732.833,765.667 733.5,765C 734.588,759.756 734.588,754.423 733.5,749C 736.581,744.008 738.081,738.508 738,732.5C 739.02,729.401 740.186,726.401 741.5,723.5C 741.089,719.266 742.589,715.599 746,712.5C 748.354,706.616 750.354,700.616 752,694.5C 753.674,693.324 755.174,691.99 756.5,690.5C 757.717,687.343 759.217,684.343 761,681.5C 765.852,677.983 770.352,673.483 774.5,668C 775.793,667.51 777.127,667.343 778.5,667.5C 779.126,664.685 780.46,662.185 782.5,660C 786.288,658.85 789.954,657.517 793.5,656C 794.571,655.148 795.571,654.315 796.5,653.5 Z"/></g>
<g><path style="opacity:0.997" fill="#000000" d="M 1229.5,653.5 C 1231.14,654.159 1232.8,654.826 1234.5,655.5C 1237.34,653.897 1240.34,653.397 1243.5,654C 1248.64,656.571 1253.97,658.571 1259.5,660C 1262.73,663.44 1266.4,665.44 1270.5,666C 1271.5,667 1272.5,668 1273.5,669C 1272.36,669.741 1272.36,670.575 1273.5,671.5C 1275.33,672.795 1277.33,673.795 1279.5,674.5C 1281.74,678.081 1284.24,681.414 1287,684.5C 1287.98,686.74 1288.48,689.073 1288.5,691.5C 1292.35,691.883 1293.69,693.883 1292.5,697.5C 1294.05,700.245 1295.88,702.579 1298,704.5C 1298.72,706.112 1298.55,707.612 1297.5,709C 1298.33,710.5 1299.5,711.667 1301,712.5C 1301.42,715.422 1302.42,718.089 1304,720.5C 1304.66,723.047 1304.49,725.547 1303.5,728C 1307.11,734.487 1309.28,741.32 1310,748.5C 1308,749.5 1308,750.5 1310,751.5C 1310.72,757.173 1311.89,762.673 1313.5,768C 1313.05,769.447 1312.39,770.78 1311.5,772C 1313.13,775.431 1314.13,779.098 1314.5,783C 1315.13,788.006 1314.46,793.006 1312.5,798C 1312.48,800.379 1313.15,802.546 1314.5,804.5C 1312.01,809.292 1311.34,814.292 1312.5,819.5C 1310.92,824.291 1310.09,829.291 1310,834.5C 1309.09,835.328 1308.42,836.328 1308,837.5C 1306.33,860.57 1298.66,881.57 1285,900.5C 1283.33,901.833 1281.67,903.167 1280,904.5C 1279.79,910.043 1276.96,912.876 1271.5,913C 1269.63,915.37 1267.96,917.87 1266.5,920.5C 1261.38,922.103 1256.71,924.436 1252.5,927.5C 1249.23,926.415 1245.89,926.248 1242.5,927C 1241.11,928.363 1239.44,929.196 1237.5,929.5C 1232.16,929.697 1227.83,927.864 1224.5,924C 1220.54,922.874 1216.54,921.874 1212.5,921C 1210.27,918.614 1207.6,916.781 1204.5,915.5C 1202.87,912.043 1201.04,908.71 1199,905.5C 1193.05,902.209 1189.38,897.209 1188,890.5C 1185.77,886.706 1183.27,883.039 1180.5,879.5C 1181,878.284 1181.33,877.117 1181.5,876C 1179.91,874.954 1178.41,873.787 1177,872.5C 1176.32,871.216 1176.48,870.049 1177.5,869C 1174.87,864.371 1172.7,859.537 1171,854.5C 1170.5,852.473 1170.67,850.473 1171.5,848.5C 1170.03,842.757 1168.36,837.091 1166.5,831.5C 1165.61,827.404 1165.61,823.07 1166.5,818.5C 1165.6,815.96 1164.6,813.46 1163.5,811C 1164.17,808.333 1164.83,805.667 1165.5,803C 1164.53,800.579 1163.86,798.079 1163.5,795.5C 1164.71,792.153 1164.71,788.82 1163.5,785.5C 1164.06,783.595 1165.06,781.929 1166.5,780.5C 1165.21,777.966 1165.21,775.466 1166.5,773C 1165.83,771 1165.17,769 1164.5,767C 1165.17,766.333 1165.83,765.667 1166.5,765C 1167.59,759.756 1167.59,754.423 1166.5,749C 1169.58,744.008 1171.08,738.508 1171,732.5C 1172.02,729.401 1173.19,726.401 1174.5,723.5C 1174.09,719.266 1175.59,715.599 1179,712.5C 1181.35,706.616 1183.35,700.616 1185,694.5C 1186.67,693.324 1188.17,691.99 1189.5,690.5C 1190.72,687.343 1192.22,684.343 1194,681.5C 1198.85,677.983 1203.35,673.483 1207.5,668C 1208.79,667.51 1210.13,667.343 1211.5,667.5C 1212.13,664.685 1213.46,662.185 1215.5,660C 1219.29,658.85 1222.95,657.517 1226.5,656C 1227.57,655.148 1228.57,654.315 1229.5,653.5 Z"/></g>
</svg>
